{
.appVersion = "1357";
date = "2021-11-24 13:41:02 +0000";
familyName = Trace;
featurePrefixes = (
{
automatic = 1;
code = "languagesystem DFLT dflt;\012";
name = Languagesystems;
}
);
features = (
{
automatic = 1;
code = "feature salt;\012feature ss01;\012";
name = aalt;
},
{
automatic = 1;
code = "lookupflag IgnoreMarks;\012sub d o g by d_o_g;\012";
name = dlig;
},
{
automatic = 1;
code = "lookupflag IgnoreMarks;\012sub f i by f_i;\012";
name = liga;
},
{
automatic = 1;
code = "sub a by a.ss01;\012sub ampersand by ampersand.ss01;\012";
name = salt;
},
{
automatic = 1;
code = "sub a by a.ss01;\012sub ampersand by ampersand.ss01;\012";
name = ss01;
}
);
fontMaster = (
{
alignmentZones = (
"{800, 20}",
"{780, 20}",
"{500, 20}",
"{0, -20}",
"{-200, -20}"
);
ascender = 800;
capHeight = 780;
descender = -200;
id = "D4A6A7D4-A1C7-46AD-82E1-17E0F86778FD";
userData = {
GSOffsetHorizontal = 150;
GSOffsetVertical = 10;
};
xHeight = 500;
}
);
glyphs = (
{
color = 1;
glyphname = A;
lastChange = "2021-12-02 15:43:32 +0000";
layers = (
{
anchors = (
{
name = bottom;
position = "{361, 0}";
},
{
name = ogonek;
position = "{658, 10}";
},
{
name = top;
position = "{361, 780}";
}
);
background = {
paths = (
{
closed = 1;
nodes = (
"132 0 OFFCURVE",
"157 21 OFFCURVE",
"157 47 CURVE SMOOTH",
"157 73 OFFCURVE",
"132 94 OFFCURVE",
"102 94 CURVE SMOOTH",
"72 94 OFFCURVE",
"47 73 OFFCURVE",
"47 47 CURVE SMOOTH",
"47 21 OFFCURVE",
"72 0 OFFCURVE",
"102 0 CURVE SMOOTH"
);
},
{
closed = 1;
nodes = (
"327 599 OFFCURVE",
"352 620 OFFCURVE",
"352 646 CURVE SMOOTH",
"352 672 OFFCURVE",
"327 693 OFFCURVE",
"297 693 CURVE SMOOTH",
"267 693 OFFCURVE",
"242 672 OFFCURVE",
"242 646 CURVE SMOOTH",
"242 620 OFFCURVE",
"267 599 OFFCURVE",
"297 599 CURVE SMOOTH"
);
},
{
closed = 1;
nodes = (
"454 599 OFFCURVE",
"479 620 OFFCURVE",
"479 646 CURVE SMOOTH",
"479 672 OFFCURVE",
"454 693 OFFCURVE",
"424 693 CURVE SMOOTH",
"394 693 OFFCURVE",
"369 672 OFFCURVE",
"369 646 CURVE SMOOTH",
"369 620 OFFCURVE",
"394 599 OFFCURVE",
"424 599 CURVE SMOOTH"
);
},
{
closed = 1;
nodes = (
"650 0 OFFCURVE",
"675 21 OFFCURVE",
"675 47 CURVE SMOOTH",
"675 73 OFFCURVE",
"650 94 OFFCURVE",
"620 94 CURVE SMOOTH",
"590 94 OFFCURVE",
"565 73 OFFCURVE",
"565 47 CURVE SMOOTH",
"565 21 OFFCURVE",
"590 0 OFFCURVE",
"620 0 CURVE SMOOTH"
);
}
);
};
backgroundImage = {
crop = "{{0, 0}, {758, 1000}}";
imagePath = "VOT-Workshop-Letters-Export/uppercase/A_uc.jpg";
locked = "1";
transform = "{1, 0, 0, 1, -14, -200}";
};
layerId = "D4A6A7D4-A1C7-46AD-82E1-17E0F86778FD";
paths = (
{
closed = 1;
nodes = (
"145 0 LINE",
"354 646 LINE",
"388 780 LINE",
"284 780 LINE",
"30 0 LINE"
);
},
{
closed = 1;
nodes = (
"438 780 LINE",
"334 780 LINE",
"368 646 LINE",
"577 0 LINE",
"692 0 LINE"
);
},
{
closed = 1;
nodes = (
"543 204 LINE",
"543 296 LINE",
"179 296 LINE",
"179 204 LINE"
);
}
);
width = 722;
},
{
anchors = (
{
name = bottom;
position = "{361, 0}";
},
{
name = ogonek;
position = "{658, 10}";
},
{
name = top;
position = "{361, 780}";
}
);
associatedMasterId = "D4A6A7D4-A1C7-46AD-82E1-17E0F86778FD";
background = {
paths = (
{
closed = 1;
nodes = (
"132 0 OFFCURVE",
"157 21 OFFCURVE",
"157 47 CURVE SMOOTH",
"157 73 OFFCURVE",
"132 94 OFFCURVE",
"102 94 CURVE SMOOTH",
"72 94 OFFCURVE",
"47 73 OFFCURVE",
"47 47 CURVE SMOOTH",
"47 21 OFFCURVE",
"72 0 OFFCURVE",
"102 0 CURVE SMOOTH"
);
},
{
closed = 1;
nodes = (
"327 599 OFFCURVE",
"352 620 OFFCURVE",
"352 646 CURVE SMOOTH",
"352 672 OFFCURVE",
"327 693 OFFCURVE",
"297 693 CURVE SMOOTH",
"267 693 OFFCURVE",
"242 672 OFFCURVE",
"242 646 CURVE SMOOTH",
"242 620 OFFCURVE",
"267 599 OFFCURVE",
"297 599 CURVE SMOOTH"
);
},
{
closed = 1;
nodes = (
"454 599 OFFCURVE",
"479 620 OFFCURVE",
"479 646 CURVE SMOOTH",
"479 672 OFFCURVE",
"454 693 OFFCURVE",
"424 693 CURVE SMOOTH",
"394 693 OFFCURVE",
"369 672 OFFCURVE",
"369 646 CURVE SMOOTH",
"369 620 OFFCURVE",
"394 599 OFFCURVE",
"424 599 CURVE SMOOTH"
);
},
{
closed = 1;
nodes = (
"650 0 OFFCURVE",
"675 21 OFFCURVE",
"675 47 CURVE SMOOTH",
"675 73 OFFCURVE",
"650 94 OFFCURVE",
"620 94 CURVE SMOOTH",
"590 94 OFFCURVE",
"565 73 OFFCURVE",
"565 47 CURVE SMOOTH",
"565 21 OFFCURVE",
"590 0 OFFCURVE",
"620 0 CURVE SMOOTH"
);
}
);
};
backgroundImage = {
crop = "{{0, 0}, {758, 1000}}";
imagePath = "VOT-Workshop-Letters-Export/uppercase/A_uc.jpg";
locked = "1";
transform = "{1, 0, 0, 1, -14, -200}";
};
layerId = "F503FE96-784C-4FAC-96A2-5F67E247FD49";
name = "Dec 2 21, 16:43";
paths = (
{
closed = 1;
nodes = (
"145 0 LINE",
"397 780 LINE",
"284 780 LINE",
"30 0 LINE"
);
},
{
closed = 1;
nodes = (
"438 780 LINE",
"324 780 LINE",
"577 0 LINE",
"692 0 LINE"
);
},
{
closed = 1;
nodes = (
"543 204 LINE",
"543 296 LINE",
"179 296 LINE",
"179 204 LINE"
);
}
);
width = 722;
}
);
leftKerningGroup = A;
leftMetricsKey = V;
rightKerningGroup = A;
rightMetricsKey = "=V";
unicode = 0041;
},
{
color = 1;
glyphname = B;
lastChange = "2021-12-02 20:40:46 +0000";
layers = (
{
background = {
paths = (
{
closed = 1;
nodes = (
"187 705 LINE",
"292 707 OFFCURVE",
"450 718 OFFCURVE",
"450 568 CURVE SMOOTH",
"450 425 OFFCURVE",
"232 447 OFFCURVE",
"189 447 CURVE"
);
},
{
closed = 1;
nodes = (
"91 6 LINE",
"159 16 OFFCURVE",
"579 -70 OFFCURVE",
"579 222 CURVE SMOOTH",
"579 329 OFFCURVE",
"499 405 OFFCURVE",
"438 405 CURVE SMOOTH",
"399 405 OFFCURVE",
"562 407 OFFCURVE",
"562 577 CURVE SMOOTH",
"562 835 OFFCURVE",
"268 780 OFFCURVE",
"88 788 CURVE"
);
},
{
closed = 1;
nodes = (
"189 357 LINE",
"296 358 OFFCURVE",
"469 364 OFFCURVE",
"469 221 CURVE SMOOTH",
"469 78 OFFCURVE",
"288 87 OFFCURVE",
"188 91 CURVE"
);
}
);
};
backgroundImage = {
crop = "{{0, 0}, {610, 1000}}";
imagePath = "VOT-Workshop-Letters-Export/uppercase/B_uc.jpg";
locked = "1";
transform = "{1, 0, 0, 1, 22, -200}";
};
layerId = "D4A6A7D4-A1C7-46AD-82E1-17E0F86778FD";
paths = (
{
closed = 1;
nodes = (
"289 0 LINE SMOOTH",
"489 0 OFFCURVE",
"589 63 OFFCURVE",
"589 204 CURVE SMOOTH",
"589 343 OFFCURVE",
"489 407 OFFCURVE",
"289 407 CURVE SMOOTH",
"131 407 LINE",
"131 355 LINE",
"303 355 LINE SMOOTH",
"418 355 OFFCURVE",
"474 311 OFFCURVE",
"474 222 CURVE SMOOTH",
"474 135 OFFCURVE",
"417 91 OFFCURVE",
"303 92 CURVE SMOOTH",
"131 93 LINE",
"131 0 LINE"
);
},
{
closed = 1;
nodes = (
"200 0 LINE",
"200 780 LINE",
"92 780 LINE",
"90 0 LINE"
);
},
{
closed = 1;
nodes = (
"259 390 LINE SMOOTH",
"459 390 OFFCURVE",
"559 451 OFFCURVE",
"559 585 CURVE SMOOTH",
"559 720 OFFCURVE",
"459 780 OFFCURVE",
"259 780 CURVE SMOOTH",
"131 780 LINE",
"131 687 LINE",
"273 688 LINE SMOOTH",
"387 689 OFFCURVE",
"444 648 OFFCURVE",
"444 566 CURVE SMOOTH",
"444 483 OFFCURVE",
"388 442 OFFCURVE",
"273 442 CURVE SMOOTH",
"131 442 LINE",
"131 390 LINE"
);
}
);
width = 649;
},
{
associatedMasterId = "D4A6A7D4-A1C7-46AD-82E1-17E0F86778FD";
backgroundImage = {
crop = "{{0, 0}, {610, 1000}}";
imagePath = "VOT-Workshop-Letters-Export/uppercase/B_uc.jpg";
locked = "1";
transform = "{1, 0, 0, 1, 0, -200}";
};
layerId = "E19BECF8-A0EC-412A-AB53-C3B2694A27A9";
name = "Dec 2 21, 21:36";
paths = (
{
closed = 1;
nodes = (
"165 705 LINE",
"270 707 OFFCURVE",
"428 718 OFFCURVE",
"428 568 CURVE SMOOTH",
"428 425 OFFCURVE",
"210 447 OFFCURVE",
"167 447 CURVE"
);
},
{
closed = 1;
nodes = (
"69 6 LINE",
"137 16 OFFCURVE",
"557 -70 OFFCURVE",
"557 222 CURVE SMOOTH",
"557 329 OFFCURVE",
"477 405 OFFCURVE",
"416 405 CURVE SMOOTH",
"377 405 OFFCURVE",
"540 407 OFFCURVE",
"540 577 CURVE SMOOTH",
"540 835 OFFCURVE",
"246 780 OFFCURVE",
"66 788 CURVE"
);
},
{
closed = 1;
nodes = (
"167 357 LINE",
"274 358 OFFCURVE",
"447 364 OFFCURVE",
"447 221 CURVE SMOOTH",
"447 78 OFFCURVE",
"266 87 OFFCURVE",
"166 91 CURVE"
);
}
);
width = 610;
}
);
leftMetricsKey = "=I";
rightMetricsKey = "=O";
unicode = 0042;
},
{
color = 1;
glyphname = C;
lastChange = "2021-12-02 20:13:56 +0000";
layers = (
{
background = {
components = (
{
name = O;
}
);
};
backgroundImage = {
crop = "{{0, 0}, {791, 1000}}";
imagePath = "VOT-Workshop-Letters-Export/uppercase/C_uc.jpg";
locked = "1";
transform = "{1, 0, 0, 1, 16, -200}";
};
layerId = "D4A6A7D4-A1C7-46AD-82E1-17E0F86778FD";
paths = (
{
closed = 1;
nodes = (
"756 703 OFFCURVE",
"644 800 OFFCURVE",
"450 800 CURVE SMOOTH",
"215 800 OFFCURVE",
"60 630 OFFCURVE",
"60 390 CURVE SMOOTH",
"60 150 OFFCURVE",
"215 -20 OFFCURVE",
"450 -20 CURVE SMOOTH",
"612 -20 OFFCURVE",
"757 76 OFFCURVE",
"767 241 CURVE",
"655 241 LINE",
"642 135 OFFCURVE",
"554 72 OFFCURVE",
"448 72 CURVE SMOOTH",
"277 72 OFFCURVE",
"175 195 OFFCURVE",
"175 390 CURVE SMOOTH",
"175 585 OFFCURVE",
"277 708 OFFCURVE",
"448 708 CURVE SMOOTH",
"555 708 OFFCURVE",
"637 657 OFFCURVE",
"650 535 CURVE",
"762 535 LINE"
);
}
);
width = 827;
},
{
associatedMasterId = "D4A6A7D4-A1C7-46AD-82E1-17E0F86778FD";
backgroundImage = {
crop = "{{0, 0}, {791, 1000}}";
imagePath = "VOT-Workshop-Letters-Export/uppercase/C_uc.jpg";
locked = "1";
transform = "{1, 0, 0, 1, 0, -200}";
};
layerId = "A975F471-9BCB-48CD-AA21-D84179386A1D";
name = "Dec 2 21, 21:06";
paths = (
{
closed = 1;
nodes = (
"744 692 OFFCURVE",
"631 804 OFFCURVE",
"414 804 CURVE SMOOTH",
"215 804 OFFCURVE",
"44 663 OFFCURVE",
"44 399 CURVE SMOOTH",
"44 119 OFFCURVE",
"215 -24 OFFCURVE",
"414 -24 CURVE SMOOTH",
"596 -24 OFFCURVE",
"744 62 OFFCURVE",
"744 237 CURVE",
"634 237 LINE",
"634 178 OFFCURVE",
"586 79 OFFCURVE",
"414 79 CURVE SMOOTH",
"253 79 OFFCURVE",
"156 208 OFFCURVE",
"156 406 CURVE SMOOTH",
"156 556 OFFCURVE",
"235 701 OFFCURVE",
"414 701 CURVE SMOOTH",
"586 701 OFFCURVE",
"634 622 OFFCURVE",
"634 565 CURVE",
"744 565 LINE"
);
}
);
width = 791;
}
);
leftMetricsKey = "=O";
rightMetricsKey = "=O";
unicode = 0043;
},
{
color = 1;
glyphname = D;
lastChange = "2021-12-02 20:06:35 +0000";
layers = (
{
background = {
components = (
{
name = O;
transform = "{1, 0, 0, 1, -146, 0}";
}
);
};
backgroundImage = {
crop = "{{0, 0}, {791, 1000}}";
imagePath = "VOT-Workshop-Letters-Export/uppercase/D_uc.jpg";
locked = "1";
transform = "{1, 0, 0, 1, 10, -200}";
};
layerId = "D4A6A7D4-A1C7-46AD-82E1-17E0F86778FD";
paths = (
{
closed = 1;
nodes = (
"90 0 LINE",
"295 0 LINE SMOOTH",
"569 0 OFFCURVE",
"714 139 OFFCURVE",
"714 398 CURVE SMOOTH",
"714 641 OFFCURVE",
"556 780 OFFCURVE",
"295 780 CURVE SMOOTH",
"90 780 LINE"
);
},
{
closed = 1;
nodes = (
"200 686 LINE",
"309 686 LINE SMOOTH",
"495 686 OFFCURVE",
"599 582 OFFCURVE",
"599 398 CURVE SMOOTH",
"599 211 OFFCURVE",
"494 93 OFFCURVE",
"309 93 CURVE SMOOTH",
"200 93 LINE"
);
}
);
width = 774;
}
);
leftMetricsKey = "=H";
rightMetricsKey = "=O";
unicode = 0044;
},
{
color = 1;
glyphname = E;
lastChange = "2021-12-02 09:40:57 +0000";
layers = (
{
backgroundImage = {
crop = "{{0, 0}, {626, 1000}}";
imagePath = "VOT-Workshop-Letters-Export/uppercase/E_uc.jpg";
transform = "{1, 0, 0, 1, 11, -200}";
};
layerId = "D4A6A7D4-A1C7-46AD-82E1-17E0F86778FD";
paths = (
{
closed = 1;
nodes = (
"200 0 LINE",
"200 780 LINE",
"90 780 LINE",
"90 0 LINE"
);
},
{
closed = 1;
nodes = (
"564 0 LINE",
"564 94 LINE",
"132 94 LINE",
"132 0 LINE"
);
},
{
closed = 1;
nodes = (
"564 686 LINE",
"564 780 LINE",
"132 780 LINE",
"132 686 LINE"
);
},
{
closed = 1;
nodes = (
"536 338 LINE",
"536 432 LINE",
"132 432 LINE",
"132 338 LINE"
);
}
);
width = 634;
}
);
leftMetricsKey = "=I";
unicode = 0045;
},
{
color = 1;
glyphname = F;
lastChange = "2021-12-02 09:41:40 +0000";
layers = (
{
background = {
components = (
{
name = E;
}
);
};
backgroundImage = {
crop = "{{0, 0}, {560, 1000}}";
imagePath = "VOT-Workshop-Letters-Export/uppercase/F_uc.jpg";
transform = "{1, 0, 0, 1, 12, -200}";
};
layerId = "D4A6A7D4-A1C7-46AD-82E1-17E0F86778FD";
paths = (
{
closed = 1;
nodes = (
"90 0 LINE",
"200 0 LINE",
"200 315 LINE",
"513 315 LINE",
"513 409 LINE",
"201 409 LINE",
"201 682 LINE",
"541 682 LINE",
"541 780 LINE",
"91 780 LINE"
);
}
);
width = 571;
}
);
leftMetricsKey = "=I";
unicode = 0046;
},
{
color = 1;
glyphname = G;
lastChange = "2021-12-02 20:19:32 +0000";
layers = (
{
background = {
components = (
{
name = O;
},
{
name = C;
transform = "{1, 0, 0, 1, 25, 137}";
}
);
};
backgroundImage = {
crop = "{{0, 0}, {808, 1000}}";
imagePath = "VOT-Workshop-Letters-Export/uppercase/G_uc.jpg";
transform = "{1, 0, 0, 1, 27, -200}";
};
layerId = "D4A6A7D4-A1C7-46AD-82E1-17E0F86778FD";
paths = (
{
closed = 1;
nodes = (
"790 376 LINE",
"692 376 LINE",
"699 172 OFFCURVE",
"608 73 OFFCURVE",
"456 73 CURVE SMOOTH",
"282 73 OFFCURVE",
"175 201 OFFCURVE",
"175 390 CURVE SMOOTH",
"175 583 OFFCURVE",
"287 707 OFFCURVE",
"445 707 CURVE SMOOTH",
"551 707 OFFCURVE",
"638 652 OFFCURVE",
"650 565 CURVE",
"762 565 LINE",
"753 703 OFFCURVE",
"620 800 OFFCURVE",
"451 800 CURVE SMOOTH",
"227 800 OFFCURVE",
"60 632 OFFCURVE",
"60 390 CURVE SMOOTH",
"60 156 OFFCURVE",
"216 -20 OFFCURVE",
"441 -20 CURVE SMOOTH",
"647 -20 OFFCURVE",
"790 129 OFFCURVE",
"790 356 CURVE SMOOTH"
);
},
{
closed = 1;
nodes = (
"447 284 LINE",
"754 284 LINE",
"754 376 LINE",
"447 376 LINE"
);
}
);
width = 850;
},
{
associatedMasterId = "D4A6A7D4-A1C7-46AD-82E1-17E0F86778FD";
background = {
components = (
{
name = O;
},
{
name = O;
transform = "{0.92578, 0, 0, 1, 4, 0}";
}
);
};
backgroundImage = {
crop = "{{0, 0}, {808, 1000}}";
imagePath = "VOT-Workshop-Letters-Export/uppercase/G_uc.jpg";
transform = "{1, 0, 0, 1, 27, -200}";
};
layerId = "DFDD5F59-F723-424A-8C77-84F75AFB376C";
name = "Dec 2 21, 21:14";
paths = (
{
closed = 1;
nodes = (
"688 386 LINE",
"688 381 LINE SMOOTH",
"688 177 OFFCURVE",
"601 65 OFFCURVE",
"444 65 CURVE SMOOTH",
"279 65 OFFCURVE",
"176 190 OFFCURVE",
"176 390 CURVE SMOOTH",
"176 582 OFFCURVE",
"286 714 OFFCURVE",
"444 714 CURVE SMOOTH",
"550 714 OFFCURVE",
"635 652 OFFCURVE",
"647 565 CURVE",
"767 565 LINE",
"753 703 OFFCURVE",
"621 800 OFFCURVE",
"448 800 CURVE SMOOTH",
"223 800 OFFCURVE",
"60 628 OFFCURVE",
"60 390 CURVE SMOOTH",
"60 152 OFFCURVE",
"217 -20 OFFCURVE",
"434 -20 CURVE SMOOTH",
"650 -20 OFFCURVE",
"790 138 OFFCURVE",
"790 381 CURVE SMOOTH",
"790 386 LINE"
);
},
{
closed = 1;
nodes = (
"447 292 LINE",
"754 292 LINE",
"754 386 LINE",
"447 386 LINE"
);
}
);
width = 860;
}
);
leftMetricsKey = "=O";
rightMetricsKey = "=O";
unicode = 0047;
},
{
color = 1;
glyphname = H;
lastChange = "2021-12-02 10:17:19 +0000";
layers = (
{
backgroundImage = {
crop = "{{0, 0}, {725, 1000}}";
imagePath = "VOT-Workshop-Letters-Export/uppercase/H_uc.jpg";
locked = "1";
transform = "{1, 0, 0, 1, 30, -200}";
};
layerId = "D4A6A7D4-A1C7-46AD-82E1-17E0F86778FD";
paths = (
{
closed = 1;
nodes = (
"90 0 LINE",
"200 0 LINE",
"200 780 LINE",
"90 780 LINE"
);
},
{
closed = 1;
nodes = (
"592 0 LINE",
"702 0 LINE",
"702 780 LINE",
"592 780 LINE"
);
},
{
closed = 1;
nodes = (
"150 351 LINE",
"642 351 LINE",
"642 445 LINE",
"150 445 LINE"
);
}
);
width = 792;
}
);
leftMetricsKey = I;
rightMetricsKey = "=I";
unicode = 0048;
},
{
color = 1;
glyphname = I;
lastChange = "2021-12-02 09:38:55 +0000";
layers = (
{
backgroundImage = {
crop = "{{0, 0}, {280, 1000}}";
imagePath = "VOT-Workshop-Letters-Export/uppercase/I_uc.jpg";
locked = "1";
transform = "{1, 0, 0, 1, -7, -200}";
};
layerId = "D4A6A7D4-A1C7-46AD-82E1-17E0F86778FD";
paths = (
{
closed = 1;
nodes = (
"190 0 LINE",
"190 780 LINE",
"90 780 LINE",
"90 0 LINE"
);
}
);
width = 280;
}
);
rightMetricsKey = "=|";
unicode = 0049;
},
{
color = 1;
glyphname = J;
lastChange = "2021-12-02 09:42:45 +0000";
layers = (
{
backgroundImage = {
crop = "{{0, 0}, {428, 1000}}";
imagePath = "VOT-Workshop-Letters-Export/uppercase/J_uc.jpg";
transform = "{1, 0, 0, 1, -44, -200}";
};
layerId = "D4A6A7D4-A1C7-46AD-82E1-17E0F86778FD";
paths = (
{
closed = 1;
nodes = (
"147 780 LINE",
"257 780 LINE",
"257 167 LINE SMOOTH",
"257 35 OFFCURVE",
"209 -20 OFFCURVE",
"94 -20 CURVE SMOOTH",
"40 -20 LINE",
"40 77 LINE",
"85 77 LINE SMOOTH",
"141 77 OFFCURVE",
"147 89 OFFCURVE",
"147 192 CURVE SMOOTH"
);
}
);
width = 347;
}
);
rightMetricsKey = "=I";
unicode = 004A;
},
{
color = 1;
glyphname = K;
lastChange = "2021-12-02 09:52:34 +0000";
layers = (
{
background = {
paths = (
{
closed = 1;
nodes = (
"341 423 OFFCURVE",
"362 448 OFFCURVE",
"357 473 CURVE SMOOTH",
"352 499 OFFCURVE",
"325 515 OFFCURVE",
"295 510 CURVE SMOOTH",
"265 504 OFFCURVE",
"244 480 OFFCURVE",
"249 455 CURVE SMOOTH",
"254 429 OFFCURVE",
"281 413 OFFCURVE",
"311 417 CURVE SMOOTH"
);
},
{
closed = 1;
nodes = (
"341 301 OFFCURVE",
"362 326 OFFCURVE",
"357 351 CURVE SMOOTH",
"352 377 OFFCURVE",
"325 393 OFFCURVE",
"295 388 CURVE SMOOTH",
"265 382 OFFCURVE",
"244 358 OFFCURVE",
"249 333 CURVE SMOOTH",
"254 307 OFFCURVE",
"281 291 OFFCURVE",
"311 295 CURVE SMOOTH"
);
},
{
closed = 1;
nodes = (
"570 6 OFFCURVE",
"591 31 OFFCURVE",
"586 56 CURVE SMOOTH",
"581 82 OFFCURVE",
"554 98 OFFCURVE",
"524 93 CURVE SMOOTH",
"494 87 OFFCURVE",
"473 63 OFFCURVE",
"478 38 CURVE SMOOTH",
"483 12 OFFCURVE",
"510 -4 OFFCURVE",
"540 1 CURVE SMOOTH"
);
},
{
closed = 1;
nodes = (
"554 692 OFFCURVE",
"575 717 OFFCURVE",
"570 742 CURVE SMOOTH",
"565 768 OFFCURVE",
"538 784 OFFCURVE",
"508 779 CURVE SMOOTH",
"478 773 OFFCURVE",
"457 749 OFFCURVE",
"462 724 CURVE SMOOTH",
"467 698 OFFCURVE",
"494 682 OFFCURVE",
"524 687 CURVE SMOOTH"
);
}
);
};
backgroundImage = {
crop = "{{0, 0}, {692, 1000}}";
imagePath = "VOT-Workshop-Letters-Export/uppercase/K_uc.jpg";
locked = "1";
transform = "{1, 0, 0, 1, -5, -200}";
};
layerId = "D4A6A7D4-A1C7-46AD-82E1-17E0F86778FD";
paths = (
{
closed = 1;
nodes = (
"293 442 LINE",
"292 371 LINE",
"618 780 LINE",
"485 780 LINE",
"192 404 LINE",
"192 397 LINE",
"497 0 LINE",
"637 0 LINE"
);
},
{
closed = 1;
nodes = (
"200 0 LINE",
"200 780 LINE",
"90 780 LINE",
"90 0 LINE"
);
}
);
width = 687;
}
);
leftMetricsKey = "=I";
unicode = 004B;
},
{
color = 1;
glyphname = L;
lastChange = "2021-12-02 09:42:53 +0000";
layers = (
{
backgroundImage = {
crop = "{{0, 0}, {626, 1000}}";
imagePath = "VOT-Workshop-Letters-Export/uppercase/L_uc.jpg";
locked = "1";
transform = "{1, 0, 0, 1, -12, -200}";
};
layerId = "D4A6A7D4-A1C7-46AD-82E1-17E0F86778FD";
paths = (
{
closed = 1;
nodes = (
"200 781 LINE",
"200 98 LINE",
"537 98 LINE",
"537 0 LINE",
"90 0 LINE",
"90 781 LINE"
);
}
);
width = 607;
}
);
leftMetricsKey = "=I";
unicode = 004C;
},
{
color = 1;
glyphname = M;
lastChange = "2021-12-02 10:13:36 +0000";
layers = (
{
background = {
paths = (
{
closed = 1;
nodes = (
"451 157 OFFCURVE",
"476 178 OFFCURVE",
"476 204 CURVE SMOOTH",
"476 230 OFFCURVE",
"451 251 OFFCURVE",
"421 251 CURVE SMOOTH",
"391 251 OFFCURVE",
"366 230 OFFCURVE",
"366 204 CURVE SMOOTH",
"366 178 OFFCURVE",
"391 157 OFFCURVE",
"421 157 CURVE SMOOTH"
);
},
{
closed = 1;
nodes = (
"295 507 OFFCURVE",
"320 528 OFFCURVE",
"320 554 CURVE SMOOTH",
"320 580 OFFCURVE",
"295 601 OFFCURVE",
"265 601 CURVE SMOOTH",
"235 601 OFFCURVE",
"210 580 OFFCURVE",
"210 554 CURVE SMOOTH",
"210 528 OFFCURVE",
"235 507 OFFCURVE",
"265 507 CURVE SMOOTH"
);
}
);
};
backgroundImage = {
crop = "{{0, 0}, {956, 1000}}";
imagePath = "VOT-Workshop-Letters-Export/uppercase/M_uc.jpg";
transform = "{1, 0, 0, 1, 10, -200}";
};
layerId = "D4A6A7D4-A1C7-46AD-82E1-17E0F86778FD";
paths = (
{
closed = 1;
nodes = (
"200 606 LINE",
"183 606 LINE",
"452 0 LINE",
"516 0 LINE",
"785 606 LINE",
"768 606 LINE",
"768 0 LINE",
"878 0 LINE",
"878 780 LINE",
"744 780 LINE",
"477 171 LINE",
"491 171 LINE",
"224 780 LINE",
"90 780 LINE",
"90 0 LINE",
"200 0 LINE"
);
}
);
width = 968;
},
{
associatedMasterId = "D4A6A7D4-A1C7-46AD-82E1-17E0F86778FD";
backgroundImage = {
crop = "{{0, 0}, {956, 1000}}";
imagePath = "VOT-Workshop-Letters-Export/uppercase/M_uc.jpg";
transform = "{1, 0, 0, 1, 0, -200}";
};
layerId = "02DFC08A-E201-49E9-925E-98201F5D2B0F";
name = "Dec 2 21, 10:30";
paths = (
{
closed = 1;
nodes = (
"194 561 LINE",
"428 0 LINE",
"522 0 LINE",
"755 560 LINE",
"755 0 LINE",
"875 0 LINE",
"875 780 LINE",
"722 780 LINE",
"475 219 LINE",
"242 780 LINE",
"80 780 LINE",
"80 0 LINE",
"194 0 LINE"
);
},
{
closed = 0;
nodes = (
"475 219 LINE",
"242 780 LINE",
"80 780 LINE",
"80 0 LINE",
"194 0 LINE",
"194 561 LINE",
"428 0 LINE"
);
}
);
width = 955;
}
);
leftMetricsKey = "=I";
rightMetricsKey = "=I";
unicode = 004D;
},
{
color = 1;
glyphname = N;
lastChange = "2021-12-02 09:46:09 +0000";
layers = (
{
background = {
components = (
{
name = M;
}
);
paths = (
{
closed = 1;
nodes = (
"285 585 OFFCURVE",
"310 606 OFFCURVE",
"310 632 CURVE SMOOTH",
"310 658 OFFCURVE",
"285 679 OFFCURVE",
"255 679 CURVE SMOOTH",
"225 679 OFFCURVE",
"200 658 OFFCURVE",
"200 632 CURVE SMOOTH",
"200 606 OFFCURVE",
"225 585 OFFCURVE",
"255 585 CURVE SMOOTH"
);
},
{
closed = 1;
nodes = (
"646 101 OFFCURVE",
"671 122 OFFCURVE",
"671 148 CURVE SMOOTH",
"671 174 OFFCURVE",
"646 195 OFFCURVE",
"616 195 CURVE SMOOTH",
"586 195 OFFCURVE",
"561 174 OFFCURVE",
"561 148 CURVE SMOOTH",
"561 122 OFFCURVE",
"586 101 OFFCURVE",
"616 101 CURVE SMOOTH"
);
}
);
};
backgroundImage = {
crop = "{{0, 0}, {857, 1000}}";
imagePath = "VOT-Workshop-Letters-Export/uppercase/N_uc.jpg";
transform = "{1, 0, 0, 1, 5, -200}";
};
layerId = "D4A6A7D4-A1C7-46AD-82E1-17E0F86778FD";
paths = (
{
closed = 1;
nodes = (
"90 0 LINE",
"200 0 LINE",
"200 655 LINE",
"177 649 LINE",
"661 0 LINE",
"781 0 LINE",
"781 780 LINE",
"671 780 LINE",
"671 125 LINE",
"694 131 LINE",
"210 780 LINE",
"90 780 LINE"
);
}
);
width = 871;
}
);
leftMetricsKey = "=I";
rightMetricsKey = "=I";
unicode = 004E;
},
{
color = 1;
glyphname = O;
lastChange = "2021-12-02 20:19:53 +0000";
layers = (
{
background = {
paths = (
{
closed = 1;
nodes = (
"692 -20 OFFCURVE",
"860 150 OFFCURVE",
"860 390 CURVE SMOOTH",
"860 630 OFFCURVE",
"692 800 OFFCURVE",
"460 800 CURVE SMOOTH",
"228 800 OFFCURVE",
"60 630 OFFCURVE",
"60 390 CURVE SMOOTH",
"60 150 OFFCURVE",
"228 -20 OFFCURVE",
"460 -20 CURVE SMOOTH"
);
},
{
closed = 1;
nodes = (
"289 74 OFFCURVE",
"175 198 OFFCURVE",
"175 390 CURVE SMOOTH",
"175 582 OFFCURVE",
"289 706 OFFCURVE",
"460 706 CURVE SMOOTH",
"631 706 OFFCURVE",
"745 582 OFFCURVE",
"745 390 CURVE SMOOTH",
"745 198 OFFCURVE",
"631 74 OFFCURVE",
"460 74 CURVE SMOOTH"
);
}
);
};
backgroundImage = {
crop = "{{0, 0}, {989, 1000}}";
imagePath = "VOT-Workshop-Letters-Export/uppercase/O_uc.jpg";
locked = "1";
transform = "{1, 0, 0, 1, -33, -208}";
};
layerId = "D4A6A7D4-A1C7-46AD-82E1-17E0F86778FD";
paths = (
{
closed = 1;
nodes = (
"692 -20 OFFCURVE",
"860 150 OFFCURVE",
"860 390 CURVE SMOOTH",
"860 630 OFFCURVE",
"692 800 OFFCURVE",
"460 800 CURVE SMOOTH",
"228 800 OFFCURVE",
"60 630 OFFCURVE",
"60 390 CURVE SMOOTH",
"60 150 OFFCURVE",
"228 -20 OFFCURVE",
"460 -20 CURVE SMOOTH"
);
},
{
closed = 1;
nodes = (
"289 72 OFFCURVE",
"175 197 OFFCURVE",
"175 390 CURVE SMOOTH",
"175 583 OFFCURVE",
"289 708 OFFCURVE",
"460 708 CURVE SMOOTH",
"631 708 OFFCURVE",
"745 583 OFFCURVE",
"745 390 CURVE SMOOTH",
"745 197 OFFCURVE",
"631 72 OFFCURVE",
"460 72 CURVE SMOOTH"
);
}
);
width = 920;
},
{
associatedMasterId = "D4A6A7D4-A1C7-46AD-82E1-17E0F86778FD";
backgroundImage = {
crop = "{{0, 0}, {989, 1000}}";
imagePath = "VOT-Workshop-Letters-Export/uppercase/O_uc.jpg";
locked = "1";
transform = "{1, 0, 0, 1, -33, -208}";
};
layerId = "956CF718-9B7A-429E-B5D5-E32498945760";
name = "Dec 2 21, 11:22";
paths = (
{
closed = 1;
nodes = (
"692 -20 OFFCURVE",
"860 150 OFFCURVE",
"860 390 CURVE SMOOTH",
"860 630 OFFCURVE",
"692 800 OFFCURVE",
"460 800 CURVE SMOOTH",
"228 800 OFFCURVE",
"60 630 OFFCURVE",
"60 390 CURVE SMOOTH",
"60 150 OFFCURVE",
"228 -20 OFFCURVE",
"460 -20 CURVE SMOOTH"
);
},
{
closed = 1;
nodes = (
"289 64 OFFCURVE",
"175 192 OFFCURVE",
"175 390 CURVE SMOOTH",
"175 588 OFFCURVE",
"289 716 OFFCURVE",
"460 716 CURVE SMOOTH",
"631 716 OFFCURVE",
"745 588 OFFCURVE",
"745 390 CURVE SMOOTH",
"745 192 OFFCURVE",
"631 64 OFFCURVE",
"460 64 CURVE SMOOTH"
);
}
);
width = 920;
},
{
associatedMasterId = "D4A6A7D4-A1C7-46AD-82E1-17E0F86778FD";
backgroundImage = {
crop = "{{0, 0}, {989, 1000}}";
imagePath = "VOT-Workshop-Letters-Export/uppercase/O_uc.jpg";
locked = "1";
transform = "{1, 0, 0, 1, -33, -208}";
};
layerId = "98D296B7-131F-4422-A3CC-41E4DE0A852A";
name = "Dec 2 21, 16:44";
paths = (
{
closed = 1;
nodes = (
"692 0 OFFCURVE",
"860 162 OFFCURVE",
"860 390 CURVE SMOOTH",
"860 618 OFFCURVE",
"692 780 OFFCURVE",
"460 780 CURVE SMOOTH",
"228 780 OFFCURVE",
"60 618 OFFCURVE",
"60 390 CURVE SMOOTH",
"60 162 OFFCURVE",
"228 0 OFFCURVE",
"460 0 CURVE SMOOTH"
);
},
{
closed = 1;
nodes = (
"289 89 OFFCURVE",
"175 207 OFFCURVE",
"175 390 CURVE SMOOTH",
"175 573 OFFCURVE",
"289 691 OFFCURVE",
"460 691 CURVE SMOOTH",
"631 691 OFFCURVE",
"745 573 OFFCURVE",
"745 390 CURVE SMOOTH",
"745 207 OFFCURVE",
"631 89 OFFCURVE",
"460 89 CURVE SMOOTH"
);
}
);
width = 920;
},
{
associatedMasterId = "D4A6A7D4-A1C7-46AD-82E1-17E0F86778FD";
backgroundImage = {
crop = "{{0, 0}, {989, 1000}}";
imagePath = "VOT-Workshop-Letters-Export/uppercase/O_uc.jpg";
locked = "1";
transform = "{1, 0, 0, 1, -33, -208}";
};
layerId = "E12A6C6A-18A5-4594-97D7-66BEA3C7A1D1";
name = "Dec 2 21, 16:56";
paths = (
{
closed = 1;
nodes = (
"357 734 OFFCURVE",
"122 589 OFFCURVE",
"122 425 CURVE SMOOTH",
"122 280 OFFCURVE",
"283 194 OFFCURVE",
"456 194 CURVE SMOOTH",
"670 194 OFFCURVE",
"853 354 OFFCURVE",
"853 558 CURVE SMOOTH",
"853 682 OFFCURVE",
"712 734 OFFCURVE",
"560 734 CURVE SMOOTH"
);
}
);
width = 920;
}
);
rightMetricsKey = "=|";
unicode = 004F;
},
{
color = 1;
glyphname = P;
lastChange = "2021-12-02 20:35:36 +0000";
layers = (
{
backgroundImage = {
crop = "{{0, 0}, {709, 1000}}";
imagePath = "VOT-Workshop-Letters-Export/uppercase/P_uc.jpg";
transform = "{1, 0, 0, 1, -31, -200}";
};
layerId = "D4A6A7D4-A1C7-46AD-82E1-17E0F86778FD";
paths = (
{
closed = 1;
nodes = (
"90 0 LINE",
"200 0 LINE",
"200 301 LINE",
"289 301 LINE SMOOTH",
"489 301 OFFCURVE",
"589 376 OFFCURVE",
"589 541 CURVE SMOOTH",
"589 706 OFFCURVE",
"489 780 OFFCURVE",
"289 780 CURVE SMOOTH",
"92 780 LINE"
);
},
{
closed = 1;
nodes = (
"200 687 LINE",
"303 688 LINE SMOOTH",
"417 689 OFFCURVE",
"474 640 OFFCURVE",
"474 541 CURVE SMOOTH",
"474 442 OFFCURVE",
"418 393 OFFCURVE",
"303 393 CURVE SMOOTH",
"200 393 LINE"
);
}
);
width = 627;
},
{
associatedMasterId = "D4A6A7D4-A1C7-46AD-82E1-17E0F86778FD";
backgroundImage = {
crop = "{{0, 0}, {709, 1000}}";
imagePath = "VOT-Workshop-Letters-Export/uppercase/P_uc.jpg";
transform = "{1, 0, 0, 1, 0, -200}";
};
layerId = "617D62DE-491B-4E82-9DF8-01D8D2EBCF1E";
name = "Dec 2 21, 21:30";
paths = (
{
closed = 1;
nodes = (
"115 -6 LINE",
"235 -5 LINE",
"231 301 LINE",
"251 301 LINE",
"389 301 OFFCURVE",
"622 291 OFFCURVE",
"621 539 CURVE SMOOTH",
"620 771 OFFCURVE",
"437 794 OFFCURVE",
"319 792 CURVE SMOOTH",
"117 788 LINE"
);
},
{
closed = 1;
nodes = (
"235 691 LINE",
"329 692 LINE",
"430 691 OFFCURVE",
"504 651 OFFCURVE",
"504 540 CURVE SMOOTH",
"504 440 OFFCURVE",
"440 401 OFFCURVE",
"338 401 CURVE",
"235 401 LINE"
);
}
);
width = 709;
}
);
leftMetricsKey = "=I";
unicode = 0050;
},
{
color = 1;
glyphname = Q;
lastChange = "2021-12-02 20:22:31 +0000";
layers = (
{
background = {
components = (
{
name = O;
}
);
};
backgroundImage = {
crop = "{{0, 0}, {939, 1000}}";
imagePath = "VOT-Workshop-Letters-Export/uppercase/Q_uc.jpg";
locked = "1";
transform = "{1, 0, 0, 1, 20, -200}";
};
layerId = "D4A6A7D4-A1C7-46AD-82E1-17E0F86778FD";
paths = (
{
closed = 1;
nodes = (
"864 42 LINE",
"727 137 OFFCURVE",
"674 214 OFFCURVE",
"528 303 CURVE",
"480 227 LINE",
"615 148 OFFCURVE",
"674 69 OFFCURVE",
"812 -27 CURVE"
);
},
{
closed = 1;
nodes = (
"692 -20 OFFCURVE",
"860 150 OFFCURVE",
"860 390 CURVE SMOOTH",
"860 630 OFFCURVE",
"692 800 OFFCURVE",
"460 800 CURVE SMOOTH",
"228 800 OFFCURVE",
"60 630 OFFCURVE",
"60 390 CURVE SMOOTH",
"60 150 OFFCURVE",
"228 -20 OFFCURVE",
"460 -20 CURVE SMOOTH"
);
},
{
closed = 1;
nodes = (
"289 72 OFFCURVE",
"175 197 OFFCURVE",
"175 390 CURVE SMOOTH",
"175 583 OFFCURVE",
"289 708 OFFCURVE",
"460 708 CURVE SMOOTH",
"631 708 OFFCURVE",
"745 583 OFFCURVE",
"745 390 CURVE SMOOTH",
"745 197 OFFCURVE",
"631 72 OFFCURVE",
"460 72 CURVE SMOOTH"
);
}
);
width = 924;
},
{
associatedMasterId = "D4A6A7D4-A1C7-46AD-82E1-17E0F86778FD";
backgroundImage = {
crop = "{{0, 0}, {939, 1000}}";
imagePath = "VOT-Workshop-Letters-Export/uppercase/Q_uc.jpg";
locked = "1";
transform = "{1, 0, 0, 1, 20, -200}";
};
layerId = "FA4CFCA2-9CDD-4CCE-8C12-D1E80C55C202";
name = "Dec 2 21, 21:21";
paths = (
{
closed = 1;
nodes = (
"60 151 OFFCURVE",
"223 -28 OFFCURVE",
"468 -28 CURVE SMOOTH",
"712 -28 OFFCURVE",
"876 151 OFFCURVE",
"876 395 CURVE SMOOTH",
"876 640 OFFCURVE",
"687 804 OFFCURVE",
"468 803 CURVE SMOOTH",
"249 802 OFFCURVE",
"60 640 OFFCURVE",
"60 395 CURVE SMOOTH"
);
},
{
closed = 1;
nodes = (
"179 572 OFFCURVE",
"286 708 OFFCURVE",
"470 708 CURVE SMOOTH",
"655 708 OFFCURVE",
"756 572 OFFCURVE",
"756 388 CURVE SMOOTH",
"756 203 OFFCURVE",
"655 66 OFFCURVE",
"470 66 CURVE SMOOTH",
"286 66 OFFCURVE",
"179 203 OFFCURVE",
"179 388 CURVE SMOOTH"
);
},
{
closed = 1;
nodes = (
"864 42 LINE",
"727 137 OFFCURVE",
"674 214 OFFCURVE",
"528 303 CURVE",
"480 227 LINE",
"615 148 OFFCURVE",
"674 69 OFFCURVE",
"812 -27 CURVE"
);
}
);
width = 936;
}
);
leftMetricsKey = "=O";
rightMetricsKey = "=O";
unicode = 0051;
},
{
color = 1;
glyphname = R;
lastChange = "2021-12-02 20:37:18 +0000";
layers = (
{
background = {
paths = (
{
closed = 1;
nodes = (
"465 -2 LINE",
"591 -2 LINE",
"391 327 LINE",
"485 343 OFFCURVE",
"592 432 OFFCURVE",
"583 560 CURVE SMOOTH",
"567 798 OFFCURVE",
"319 768 OFFCURVE",
"92 770 CURVE SMOOTH",
"88 770 LINE",
"88 2 LINE",
"195 1 LINE",
"196 323 LINE",
"273 322 LINE"
);
},
{
closed = 1;
nodes = (
"196 689 LINE",
"323 689 OFFCURVE",
"465 695 OFFCURVE",
"465 557 CURVE SMOOTH",
"465 419 OFFCURVE",
"373 405 OFFCURVE",
"196 410 CURVE"
);
}
);
};
backgroundImage = {
crop = "{{0, 0}, {676, 1000}}";
imagePath = "VOT-Workshop-Letters-Export/uppercase/R_uc.jpg";
transform = "{1, 0, 0, 1, 0, -200}";
};
layerId = "D4A6A7D4-A1C7-46AD-82E1-17E0F86778FD";
paths = (
{
closed = 1;
nodes = (
"90 0 LINE",
"200 0 LINE",
"200 320 LINE",
"289 320 LINE SMOOTH",
"489 320 OFFCURVE",
"589 392 OFFCURVE",
"589 550 CURVE SMOOTH",
"589 709 OFFCURVE",
"489 780 OFFCURVE",
"289 780 CURVE SMOOTH",
"92 780 LINE"
);
},
{
closed = 1;
nodes = (
"200 687 LINE",
"303 688 LINE SMOOTH",
"417 689 OFFCURVE",
"474 643 OFFCURVE",
"474 551 CURVE SMOOTH",
"474 458 OFFCURVE",
"418 412 OFFCURVE",
"303 412 CURVE SMOOTH",
"200 412 LINE"
);
},
{
closed = 1;
nodes = (
"465 0 LINE",
"590 0 LINE",
"377 346 LINE",
"257 346 LINE"
);
}
);
width = 650;
},
{
associatedMasterId = "D4A6A7D4-A1C7-46AD-82E1-17E0F86778FD";
backgroundImage = {
crop = "{{0, 0}, {676, 1000}}";
imagePath = "VOT-Workshop-Letters-Export/uppercase/R_uc.jpg";
transform = "{1, 0, 0, 1, 0, -200}";
};
layerId = "E08F0695-D689-448C-8387-B156CF0DEE05";
name = "Dec 2 21, 21:34";
paths = (
{
closed = 1;
nodes = (
"465 -2 LINE",
"591 -2 LINE",
"391 327 LINE",
"485 343 OFFCURVE",
"592 432 OFFCURVE",
"583 560 CURVE SMOOTH",
"567 798 OFFCURVE",
"319 768 OFFCURVE",
"92 770 CURVE SMOOTH",
"88 770 LINE",
"88 2 LINE",
"195 1 LINE",
"196 323 LINE",
"273 322 LINE"
);
},
{
closed = 1;
nodes = (
"196 689 LINE",
"323 689 OFFCURVE",
"465 695 OFFCURVE",
"465 557 CURVE SMOOTH",
"465 419 OFFCURVE",
"373 405 OFFCURVE",
"196 410 CURVE"
);
}
);
width = 676;
}
);
leftMetricsKey = "=I";
rightMetricsKey = "=O";
unicode = 0052;
},
{
color = 1;
glyphname = S;
lastChange = "2021-12-02 20:51:14 +0000";
layers = (
{
background = {
paths = (
{
closed = 1;
nodes = (
"461 705 OFFCURVE",
"509 619 OFFCURVE",
"509 561 CURVE",
"619 561 LINE",
"619 685 OFFCURVE",
"550 800 OFFCURVE",
"345 800 CURVE SMOOTH",
"124 800 OFFCURVE",
"63 668 OFFCURVE",
"63 565 CURVE SMOOTH",
"63 464 OFFCURVE",
"121 407 OFFCURVE",
"174 382 CURVE SMOOTH",
"231 357 OFFCURVE",
"333 338 OFFCURVE",
"385 331 CURVE SMOOTH",
"484 317 OFFCURVE",
"530 279 OFFCURVE",
"530 204 CURVE SMOOTH",
"530 108 OFFCURVE",
"461 70 OFFCURVE",
"361 70 CURVE SMOOTH",
"244 70 OFFCURVE",
"174 138 OFFCURVE",
"174 237 CURVE",
"63 237 LINE",
"63 122 OFFCURVE",
"100 -20 OFFCURVE",
"353 -20 CURVE SMOOTH",
"597 -20 OFFCURVE",
"642 121 OFFCURVE",
"642 205 CURVE SMOOTH",
"642 320 OFFCURVE",
"608 361 OFFCURVE",
"536 404 CURVE SMOOTH",
"476 437 OFFCURVE",
"353 445 OFFCURVE",
"290 464 CURVE SMOOTH",
"222 484 OFFCURVE",
"177 510 OFFCURVE",
"177 585 CURVE SMOOTH",
"177 642 OFFCURVE",
"225 705 OFFCURVE",
"345 705 CURVE SMOOTH"
);
}
);
};
backgroundImage = {
crop = "{{0, 0}, {676, 1000}}";
imagePath = "VOT-Workshop-Letters-Export/uppercase/S_uc.jpg";
transform = "{1, 0, 0, 1, 23, -200}";
};
layerId = "D4A6A7D4-A1C7-46AD-82E1-17E0F86778FD";
paths = (
{
closed = 1;
nodes = (
"463 708 OFFCURVE",
"504 632 OFFCURVE",
"506 561 CURVE",
"616 561 LINE",
"616 685 OFFCURVE",
"548 800 OFFCURVE",
"343 800 CURVE SMOOTH",
"132 800 OFFCURVE",
"60 678 OFFCURVE",
"60 575 CURVE SMOOTH",
"60 448 OFFCURVE",
"159 367 OFFCURVE",
"306 346 CURVE SMOOTH",
"425 329 OFFCURVE",
"536 326 OFFCURVE",
"536 204 CURVE SMOOTH",
"536 110 OFFCURVE",
"456 72 OFFCURVE",
"356 72 CURVE SMOOTH",
"239 72 OFFCURVE",
"176 121 OFFCURVE",
"173 237 CURVE",
"60 237 LINE",
"64 116 OFFCURVE",
"118 -20 OFFCURVE",
"351 -20 CURVE SMOOTH",
"595 -20 OFFCURVE",
"651 101 OFFCURVE",
"651 207 CURVE SMOOTH",
"651 383 OFFCURVE",
"545 429 OFFCURVE",
"368 453 CURVE SMOOTH",
"244 470 OFFCURVE",
"174 495 OFFCURVE",
"174 591 CURVE SMOOTH",
"174 659 OFFCURVE",
"227 708 OFFCURVE",
"338 708 CURVE SMOOTH"
);
}
);
width = 711;
},
{
associatedMasterId = "D4A6A7D4-A1C7-46AD-82E1-17E0F86778FD";
backgroundImage = {
crop = "{{0, 0}, {676, 1000}}";
imagePath = "VOT-Workshop-Letters-Export/uppercase/S_uc.jpg";
transform = "{1, 0, 0, 1, 0, -200}";
};
layerId = "17D3A78F-5C45-4815-8A0D-C6E05EAB9406";
name = "Dec 2 21, 21:42";
paths = (
{
closed = 1;
nodes = (
"438 709 OFFCURVE",
"486 620 OFFCURVE",
"486 562 CURVE",
"596 562 LINE",
"596 688 OFFCURVE",
"527 805 OFFCURVE",
"322 805 CURVE SMOOTH",
"101 805 OFFCURVE",
"40 671 OFFCURVE",
"40 566 CURVE SMOOTH",
"40 462 OFFCURVE",
"98 404 OFFCURVE",
"151 379 CURVE SMOOTH",
"208 353 OFFCURVE",
"310 333 OFFCURVE",
"362 326 CURVE SMOOTH",
"461 312 OFFCURVE",
"507 273 OFFCURVE",
"507 196 CURVE SMOOTH",
"507 99 OFFCURVE",
"438 60 OFFCURVE",
"338 60 CURVE SMOOTH",
"221 60 OFFCURVE",
"151 129 OFFCURVE",
"151 231 CURVE",
"40 231 LINE",
"40 113 OFFCURVE",
"77 -32 OFFCURVE",
"330 -32 CURVE SMOOTH",
"574 -32 OFFCURVE",
"619 112 OFFCURVE",
"619 197 CURVE SMOOTH",
"619 315 OFFCURVE",
"585 358 OFFCURVE",
"513 401 CURVE SMOOTH",
"453 435 OFFCURVE",
"330 443 OFFCURVE",
"267 462 CURVE SMOOTH",
"199 482 OFFCURVE",
"154 510 OFFCURVE",
"154 586 CURVE SMOOTH",
"154 644 OFFCURVE",
"202 709 OFFCURVE",
"322 709 CURVE SMOOTH"
);
}
);
width = 670;
}
);
leftMetricsKey = "=O";
rightMetricsKey = "=O";
unicode = 0053;
},
{
color = 1;
glyphname = T;
lastChange = "2021-12-02 09:47:02 +0000";
layers = (
{
backgroundImage = {
crop = "{{0, 0}, {626, 1000}}";
imagePath = "VOT-Workshop-Letters-Export/uppercase/T_uc.jpg";
transform = "{1, 0, 0, 1, -7, -200}";
};
layerId = "D4A6A7D4-A1C7-46AD-82E1-17E0F86778FD";
paths = (
{
closed = 1;
nodes = (
"570 780 LINE",
"570 684 LINE",
"360 684 LINE",
"360 0 LINE",
"250 0 LINE",
"250 684 LINE",
"40 684 LINE",
"40 780 LINE"
);
}
);
width = 610;
}
);
rightMetricsKey = "=|";
unicode = 0054;
},
{
color = 1;
glyphname = U;
lastChange = "2021-12-02 20:30:13 +0000";
layers = (
{
background = {
components = (
{
name = O;
transform = "{0.75046, 0, 0, 0.68127, 30, -6}";
},
{
name = O;
transform = "{0.66566, 0, 0, 0.60428, 69, 28}";
}
);
};
backgroundImage = {
crop = "{{0, 0}, {659, 1000}}";
imagePath = "VOT-Workshop-Letters-Export/uppercase/U_uc.jpg";
transform = "{1, 0, 0, 1, 43, -200}";
};
layerId = "D4A6A7D4-A1C7-46AD-82E1-17E0F86778FD";
paths = (
{
closed = 1;
nodes = (
"75 100 OFFCURVE",
"194 -20 OFFCURVE",
"375 -20 CURVE SMOOTH",
"556 -20 OFFCURVE",
"675 100 OFFCURVE",
"675 287 CURVE SMOOTH",
"675 780 LINE",
"565 780 LINE",
"565 279 LINE SMOOTH",
"565 147 OFFCURVE",
"493 72 OFFCURVE",
"375 72 CURVE SMOOTH",
"257 72 OFFCURVE",
"185 147 OFFCURVE",
"185 279 CURVE SMOOTH",
"185 780 LINE",
"75 780 LINE",
"75 287 LINE SMOOTH"
);
}
);
width = 750;
},
{
associatedMasterId = "D4A6A7D4-A1C7-46AD-82E1-17E0F86778FD";
backgroundImage = {
crop = "{{0, 0}, {659, 1000}}";
imagePath = "VOT-Workshop-Letters-Export/uppercase/U_uc.jpg";
transform = "{1, 0, 0, 1, 0, -200}";
};
layerId = "E6D9D026-A7C3-48EC-B521-FE986BC48511";
name = "Dec 2 21, 21:22";
paths = (
{
closed = 1;
nodes = (
"40 48 OFFCURVE",
"178 -48 OFFCURVE",
"328 -48 CURVE SMOOTH",
"478 -48 OFFCURVE",
"618 48 OFFCURVE",
"619 198 CURVE SMOOTH",
"623 780 LINE",
"515 780 LINE",
"512 206 LINE SMOOTH",
"512 119 OFFCURVE",
"407 48 OFFCURVE",
"328 48 CURVE SMOOTH",
"239 48 OFFCURVE",
"143 115 OFFCURVE",
"143 206 CURVE SMOOTH",
"140 780 LINE",
"32 780 LINE",
"38 198 LINE SMOOTH"
);
}
);
width = 659;
}
);
rightMetricsKey = "=|";
unicode = 0055;
},
{
color = 1;
glyphname = V;
lastChange = "2021-12-02 10:08:32 +0000";
layers = (
{
background = {
components = (
{
name = A;
transform = "{1, 0, 0, -1, 0, 780}";
}
);
};
backgroundImage = {
crop = "{{0, 0}, {692, 1000}}";
imagePath = "VOT-Workshop-Letters-Export/uppercase/V_uc.jpg";
transform = "{1, 0, 0, 1, 11, -200}";
};
layerId = "D4A6A7D4-A1C7-46AD-82E1-17E0F86778FD";
paths = (
{
closed = 1;
nodes = (
"145 780 LINE",
"368 101 LINE",
"340 101 LINE",
"563 780 LINE",
"678 780 LINE",
"417 0 LINE",
"291 0 LINE",
"30 780 LINE"
);
}
);
width = 708;
}
);
leftKerningGroup = V;
rightKerningGroup = V;
rightMetricsKey = "=|";
unicode = 0056;
},
{
color = 1;
glyphname = W;
lastChange = "2021-12-02 10:08:36 +0000";
layers = (
{
background = {
paths = (
{
closed = 1;
nodes = (
"30 780 OFFCURVE",
"224 0 OFFCURVE",
"224 0 CURVE",
"374 0 LINE",
"374 0 OFFCURVE",
"542 614 OFFCURVE",
"542 614 CURVE",
"542 614 OFFCURVE",
"702 0 OFFCURVE",
"702 0 CURVE",
"852 0 LINE",
"852 0 OFFCURVE",
"1043 780 OFFCURVE",
"1043 780 CURVE",
"923 780 LINE",
"778 132 LINE",
"617 760 LINE",
"467 760 LINE",
"301 132 LINE",
"150 780 LINE",
"30 780 LINE"
);
}
);
};
backgroundImage = {
crop = "{{0, 0}, {1038, 1000}}";
imagePath = "VOT-Workshop-Letters-Export/uppercase/W_uc.jpg";
transform = "{1, 0, 0, 1, 10, -200}";
};
layerId = "D4A6A7D4-A1C7-46AD-82E1-17E0F86778FD";
paths = (
{
closed = 1;
nodes = (
"148 780 LINE",
"314 90 LINE",
"288 90 LINE",
"468 760 LINE",
"580 760 LINE",
"374 0 LINE",
"224 0 LINE",
"30 780 LINE"
);
},
{
closed = 1;
nodes = (
"858 0 LINE",
"708 0 LINE",
"502 760 LINE",
"614 760 LINE",
"794 90 LINE",
"768 90 LINE",
"934 780 LINE",
"1052 780 LINE"
);
}
);
width = 1082;
},
{
associatedMasterId = "D4A6A7D4-A1C7-46AD-82E1-17E0F86778FD";
background = {
paths = (
{
closed = 1;
nodes = (
"30 780 OFFCURVE",
"224 0 OFFCURVE",
"224 0 CURVE",
"374 0 LINE",
"374 0 OFFCURVE",
"542 614 OFFCURVE",
"542 614 CURVE",
"542 614 OFFCURVE",
"702 0 OFFCURVE",
"702 0 CURVE",
"852 0 LINE",
"852 0 OFFCURVE",
"1043 780 OFFCURVE",
"1043 780 CURVE",
"923 780 LINE",
"778 132 LINE",
"617 760 LINE",
"467 760 LINE",
"301 132 LINE",
"150 780 LINE",
"30 780 LINE"
);
}
);
};
backgroundImage = {
crop = "{{0, 0}, {1038, 1000}}";
imagePath = "VOT-Workshop-Letters-Export/uppercase/W_uc.jpg";
transform = "{1, 0, 0, 1, 10, -200}";
};
layerId = "CF31D6A3-C36F-431F-A9E1-60F0D734FE24";
name = "Dec 2 21, 11:03";
paths = (
{
closed = 1;
nodes = (
"30 780 OFFCURVE",
"224 0 OFFCURVE",
"224 0 CURVE",
"374 0 LINE",
"374 0 OFFCURVE",
"542 614 OFFCURVE",
"542 614 CURVE",
"542 614 OFFCURVE",
"702 0 OFFCURVE",
"702 0 CURVE",
"852 0 LINE",
"852 0 OFFCURVE",
"1043 780 OFFCURVE",
"1043 780 CURVE",
"923 780 LINE",
"778 132 LINE",
"617 760 LINE",
"467 760 LINE",
"301 132 LINE",
"150 780 LINE",
"30 780 LINE"
);
}
);
width = 1073;
}
);
leftKerningGroup = V;
leftMetricsKey = V;
rightKerningGroup = V;
rightMetricsKey = "=V";
unicode = 0057;
},
{
color = 1;
glyphname = X;
lastChange = "2021-12-02 16:01:39 +0000";
layers = (
{
background = {
paths = (
{
closed = 1;
nodes = (
"187 692 OFFCURVE",
"208 717 OFFCURVE",
"203 742 CURVE SMOOTH",
"198 768 OFFCURVE",
"171 784 OFFCURVE",
"141 779 CURVE SMOOTH",
"111 773 OFFCURVE",
"90 749 OFFCURVE",
"95 724 CURVE SMOOTH",
"100 698 OFFCURVE",
"127 682 OFFCURVE",
"157 686 CURVE SMOOTH"
);
},
{
closed = 1;
nodes = (
"592 6 OFFCURVE",
"613 31 OFFCURVE",
"608 56 CURVE SMOOTH",
"603 82 OFFCURVE",
"576 98 OFFCURVE",
"546 93 CURVE SMOOTH",
"516 87 OFFCURVE",
"495 63 OFFCURVE",
"500 38 CURVE SMOOTH",
"505 12 OFFCURVE",
"532 -4 OFFCURVE",
"562 1 CURVE SMOOTH"
);
},
{
closed = 1;
nodes = (
"186 6 OFFCURVE",
"207 31 OFFCURVE",
"202 56 CURVE SMOOTH",
"197 82 OFFCURVE",
"170 98 OFFCURVE",
"140 93 CURVE SMOOTH",
"110 87 OFFCURVE",
"89 63 OFFCURVE",
"94 38 CURVE SMOOTH",
"99 12 OFFCURVE",
"126 -4 OFFCURVE",
"156 1 CURVE SMOOTH"
);
},
{
closed = 1;
nodes = (
"594 692 OFFCURVE",
"615 717 OFFCURVE",
"610 742 CURVE SMOOTH",
"605 768 OFFCURVE",
"578 784 OFFCURVE",
"548 779 CURVE SMOOTH",
"518 773 OFFCURVE",
"497 749 OFFCURVE",
"502 724 CURVE SMOOTH",
"507 698 OFFCURVE",
"534 682 OFFCURVE",
"564 687 CURVE SMOOTH"
);
}
);
};
backgroundImage = {
crop = "{{0, 0}, {643, 1000}}";
imagePath = "VOT-Workshop-Letters-Export/uppercase/X_uc.jpg";
transform = "{1, 0, 0, 1, 24, -200}";
};
layerId = "D4A6A7D4-A1C7-46AD-82E1-17E0F86778FD";
paths = (
{
closed = 1;
nodes = (
"50 0 LINE",
"171 0 LINE",
"375 334 LINE",
"312 433 LINE"
);
},
{
closed = 1;
nodes = (
"59 780 LINE",
"519 0 LINE",
"644 0 LINE",
"184 780 LINE"
);
},
{
closed = 1;
nodes = (
"655 780 LINE",
"533 780 LINE",
"325 438 LINE",
"388 339 LINE"
);
}
);
width = 705;
},
{
associatedMasterId = "D4A6A7D4-A1C7-46AD-82E1-17E0F86778FD";
background = {
paths = (
{
closed = 1;
nodes = (
"187 692 OFFCURVE",
"208 717 OFFCURVE",
"203 742 CURVE SMOOTH",
"198 768 OFFCURVE",
"171 784 OFFCURVE",
"141 779 CURVE SMOOTH",
"111 773 OFFCURVE",
"90 749 OFFCURVE",
"95 724 CURVE SMOOTH",
"100 698 OFFCURVE",
"127 682 OFFCURVE",
"157 686 CURVE SMOOTH"
);
},
{
closed = 1;
nodes = (
"592 6 OFFCURVE",
"613 31 OFFCURVE",
"608 56 CURVE SMOOTH",
"603 82 OFFCURVE",
"576 98 OFFCURVE",
"546 93 CURVE SMOOTH",
"516 87 OFFCURVE",
"495 63 OFFCURVE",
"500 38 CURVE SMOOTH",
"505 12 OFFCURVE",
"532 -4 OFFCURVE",
"562 1 CURVE SMOOTH"
);
},
{
closed = 1;
nodes = (
"186 6 OFFCURVE",
"207 31 OFFCURVE",
"202 56 CURVE SMOOTH",
"197 82 OFFCURVE",
"170 98 OFFCURVE",
"140 93 CURVE SMOOTH",
"110 87 OFFCURVE",
"89 63 OFFCURVE",
"94 38 CURVE SMOOTH",
"99 12 OFFCURVE",
"126 -4 OFFCURVE",
"156 1 CURVE SMOOTH"
);
},
{
closed = 1;
nodes = (
"594 692 OFFCURVE",
"615 717 OFFCURVE",
"610 742 CURVE SMOOTH",
"605 768 OFFCURVE",
"578 784 OFFCURVE",
"548 779 CURVE SMOOTH",
"518 773 OFFCURVE",
"497 749 OFFCURVE",
"502 724 CURVE SMOOTH",
"507 698 OFFCURVE",
"534 682 OFFCURVE",
"564 687 CURVE SMOOTH"
);
}
);
};
backgroundImage = {
crop = "{{0, 0}, {643, 1000}}";
imagePath = "VOT-Workshop-Letters-Export/uppercase/X_uc.jpg";
transform = "{1, 0, 0, 1, 24, -200}";
};
layerId = "202C1601-ABEA-45C9-B063-2941C25E315C";
name = "Dec 2 21, 16:42";
paths = (
{
closed = 1;
nodes = (
"59 780 LINE",
"519 0 LINE",
"644 0 LINE",
"184 780 LINE"
);
},
{
closed = 1;
nodes = (
"59 0 LINE",
"184 0 LINE",
"644 780 LINE",
"519 780 LINE"
);
}
);
width = 705;
}
);
rightMetricsKey = "=|";
unicode = 0058;
},
{
color = 1;
glyphname = Y;
lastChange = "2021-12-02 10:13:48 +0000";
layers = (
{
background = {
components = (
{
name = X;
transform = "{1, 0, 0, 1, -36, 0}";
}
);
};
backgroundImage = {
crop = "{{0, 0}, {643, 1000}}";
imagePath = "VOT-Workshop-Letters-Export/uppercase/Y_uc.jpg";
transform = "{1, 0, 0, 1, -7, -200}";
};
layerId = "D4A6A7D4-A1C7-46AD-82E1-17E0F86778FD";
paths = (
{
closed = 1;
nodes = (
"264 0 LINE",
"374 0 LINE",
"374 362 LINE",
"264 362 LINE"
);
},
{
closed = 1;
nodes = (
"277 292 LINE",
"372 283 LINE",
"610 780 LINE",
"503 780 LINE"
);
},
{
closed = 1;
nodes = (
"30 780 LINE",
"269 277 LINE",
"369 292 LINE",
"146 780 LINE"
);
}
);
width = 640;
}
);
leftMetricsKey = V;
rightMetricsKey = "=V";
unicode = 0059;
},
{
color = 1;
glyphname = Z;
lastChange = "2021-12-02 20:42:41 +0000";
layers = (
{
background = {
paths = (
{
closed = 1;
nodes = (
"515 590 OFFCURVE",
"540 611 OFFCURVE",
"540 637 CURVE SMOOTH",
"540 663 OFFCURVE",
"515 684 OFFCURVE",
"485 684 CURVE SMOOTH",
"455 684 OFFCURVE",
"430 663 OFFCURVE",
"430 637 CURVE SMOOTH",
"430 611 OFFCURVE",
"455 590 OFFCURVE",
"485 590 CURVE SMOOTH"
);
},
{
closed = 1;
nodes = (
"146 97 OFFCURVE",
"171 118 OFFCURVE",
"171 144 CURVE SMOOTH",
"171 170 OFFCURVE",
"146 191 OFFCURVE",
"116 191 CURVE SMOOTH",
"86 191 OFFCURVE",
"61 170 OFFCURVE",
"61 144 CURVE SMOOTH",
"61 118 OFFCURVE",
"86 97 OFFCURVE",
"116 97 CURVE SMOOTH"
);
}
);
};
backgroundImage = {
crop = "{{0, 0}, {610, 1000}}";
imagePath = "VOT-Workshop-Letters-Export/uppercase/Z_uc.jpg";
transform = "{1, 0, 0, 1, 0, -200}";
};
layerId = "D4A6A7D4-A1C7-46AD-82E1-17E0F86778FD";
paths = (
{
closed = 1;
nodes = (
"55 783 LINE",
"55 686 LINE",
"457 686 LINE",
"30 115 LINE",
"30 0 LINE",
"571 0 LINE",
"571 97 LINE",
"147 97 LINE",
"570 663 LINE",
"570 780 LINE",
"55 780 LINE"
);
}
);
width = 601;
}
);
rightMetricsKey = "=|";
unicode = 005A;
},
{
color = 5;
glyphname = a;
lastChange = "2021-12-02 09:29:58 +0000";
layers = (
{
background = {
components = (
{
name = n;
transform = "{1, 0, 0, 1, -39, 0}";
}
);
};
backgroundImage = {
crop = "{{0, 0}, {610, 1000}}";
imagePath = "VOT-Workshop-Letters-Export/lowercase/a_lc.jpg";
locked = "1";
transform = "{1, 0, 0, 1, -19, -200}";
};
layerId = "D4A6A7D4-A1C7-46AD-82E1-17E0F86778FD";
paths = (
{
closed = 1;
nodes = (
"184 372 LINE",
"185 415 OFFCURVE",
"212 445 OFFCURVE",
"283 445 CURVE SMOOTH",
"364 445 OFFCURVE",
"391 406 OFFCURVE",
"391 321 CURVE SMOOTH",
"391 0 LINE",
"489 0 LINE",
"489 329 LINE SMOOTH",
"489 474 OFFCURVE",
"415 520 OFFCURVE",
"284 520 CURVE SMOOTH",
"118 520 OFFCURVE",
"76 455 OFFCURVE",
"75 372 CURVE"
);
},
{
closed = 1;
nodes = (
"368 295 OFFCURVE",
"317 317 OFFCURVE",
"241 317 CURVE SMOOTH",
"127 316 OFFCURVE",
"56 263 OFFCURVE",
"56 156 CURVE SMOOTH",
"56 47 OFFCURVE",
"132 -20 OFFCURVE",
"234 -20 CURVE SMOOTH",
"317 -20 OFFCURVE",
"381 24 OFFCURVE",
"402 80 CURVE",
"396 144 LINE",
"376 91 OFFCURVE",
"328 60 OFFCURVE",
"264 60 CURVE SMOOTH",
"197 60 OFFCURVE",
"160 94 OFFCURVE",
"160 154 CURVE SMOOTH",
"160 214 OFFCURVE",
"197 245 OFFCURVE",
"268 245 CURVE SMOOTH",
"329 245 OFFCURVE",
"377 222 OFFCURVE",
"402 182 CURVE",
"410 252 LINE"
);
}
);
width = 565;
},
{
associatedMasterId = "D4A6A7D4-A1C7-46AD-82E1-17E0F86778FD";
backgroundImage = {
crop = "{{0, 0}, {610, 1000}}";
imagePath = "VOT-Workshop-Letters-Export/lowercase/a_lc.jpg";
locked = "1";
transform = "{1, 0, 0, 1, 0, -200}";
};
layerId = "6A16D8ED-D2C4-450C-BAD0-E1BF4984E94B";
name = "Nov 4 21, 09:52";
paths = (
{
closed = 1;
nodes = (
"211 372 LINE",
"211 411 OFFCURVE",
"248 436 OFFCURVE",
"308 435 CURVE SMOOTH",
"425 434 OFFCURVE",
"401 343 OFFCURVE",
"401 274 CURVE",
"401 274 OFFCURVE",
"359 323 OFFCURVE",
"275 323 CURVE SMOOTH",
"115 323 OFFCURVE",
"79 228 OFFCURVE",
"80 164 CURVE SMOOTH",
"81 84 OFFCURVE",
"104 -10 OFFCURVE",
"257 -10 CURVE SMOOTH",
"341 -10 OFFCURVE",
"378 20 OFFCURVE",
"398 48 CURVE",
"398 0 LINE",
"500 0 LINE",
"524 475 OFFCURVE",
"500 523 OFFCURVE",
"290 523 CURVE SMOOTH",
"141 523 OFFCURVE",
"100 438 OFFCURVE",
"92 372 CURVE"
);
},
{
closed = 1;
nodes = (
"206 69 OFFCURVE",
"179 102 OFFCURVE",
"179 157 CURVE SMOOTH",
"179 226 OFFCURVE",
"228 244 OFFCURVE",
"295 244 CURVE SMOOTH",
"362 244 OFFCURVE",
"403 212 OFFCURVE",
"403 157 CURVE SMOOTH",
"403 102 OFFCURVE",
"362 69 OFFCURVE",
"295 69 CURVE SMOOTH"
);
}
);
width = 610;
},
{
associatedMasterId = "D4A6A7D4-A1C7-46AD-82E1-17E0F86778FD";
background = {
paths = (
{
closed = 1;
nodes = (
"170 372 LINE",
"170 411 OFFCURVE",
"207 436 OFFCURVE",
"267 435 CURVE SMOOTH",
"384 434 OFFCURVE",
"360 343 OFFCURVE",
"360 274 CURVE",
"360 274 OFFCURVE",
"318 323 OFFCURVE",
"234 323 CURVE SMOOTH",
"74 323 OFFCURVE",
"38 228 OFFCURVE",
"39 164 CURVE SMOOTH",
"40 84 OFFCURVE",
"63 -10 OFFCURVE",
"216 -10 CURVE SMOOTH",
"300 -10 OFFCURVE",
"337 20 OFFCURVE",
"357 48 CURVE",
"357 0 LINE",
"459 0 LINE",
"483 475 OFFCURVE",
"459 523 OFFCURVE",
"249 523 CURVE SMOOTH",
"100 523 OFFCURVE",
"59 438 OFFCURVE",
"51 372 CURVE"
);
},
{
closed = 1;
nodes = (
"165 69 OFFCURVE",
"138 102 OFFCURVE",
"138 157 CURVE SMOOTH",
"138 226 OFFCURVE",
"187 244 OFFCURVE",
"254 244 CURVE SMOOTH",
"321 244 OFFCURVE",
"362 212 OFFCURVE",
"362 157 CURVE SMOOTH",
"362 102 OFFCURVE",
"321 69 OFFCURVE",
"254 69 CURVE SMOOTH"
);
}
);
};
backgroundImage = {
crop = "{{0, 0}, {610, 1000}}";
imagePath = "VOT-Workshop-Letters-Export/lowercase/a_lc.jpg";
locked = "1";
transform = "{1, 0, 0, 1, -41, -200}";
};
layerId = "086CAFD2-B1BD-47C2-A54A-097BC188EC8F";
name = "Nov 30 21, 15:19";
paths = (
{
closed = 1;
nodes = (
"169 372 LINE",
"171 418 OFFCURVE",
"200 451 OFFCURVE",
"269 450 CURVE SMOOTH",
"338 449 OFFCURVE",
"361 416 OFFCURVE",
"361 274 CURVE SMOOTH",
"361 0 LINE",
"467 0 LINE",
"467 309 LINE SMOOTH",
"467 480 OFFCURVE",
"399 520 OFFCURVE",
"263 520 CURVE SMOOTH",
"111 520 OFFCURVE",
"63 468 OFFCURVE",
"53 372 CURVE"
);
},
{
closed = 1;
nodes = (
"345 298 OFFCURVE",
"295 322 OFFCURVE",
"221 322 CURVE SMOOTH",
"109 321 OFFCURVE",
"40 266 OFFCURVE",
"40 158 CURVE SMOOTH",
"40 48 OFFCURVE",
"113 -20 OFFCURVE",
"213 -20 CURVE SMOOTH",
"295 -20 OFFCURVE",
"358 25 OFFCURVE",
"378 81 CURVE",
"372 134 LINE",
"366 95 OFFCURVE",
"317 69 OFFCURVE",
"248 69 CURVE SMOOTH",
"175 69 OFFCURVE",
"138 97 OFFCURVE",
"138 154 CURVE SMOOTH",
"138 213 OFFCURVE",
"178 245 OFFCURVE",
"249 245 CURVE SMOOTH",
"307 245 OFFCURVE",
"355 223 OFFCURVE",
"380 185 CURVE",
"386 253 LINE"
);
}
);
width = 543;
}
);
rightMetricsKey = "=n";
unicode = 0061;
},
{
glyphname = b;
lastChange = "2021-11-30 14:17:49 +0000";
layers = (
{
background = {
components = (
{
name = o;
transform = "{1, 0, 0, 1, 5, 0}";
}
);
};
layerId = "D4A6A7D4-A1C7-46AD-82E1-17E0F86778FD";
paths = (
{
closed = 1;
nodes = (
"182 800 LINE",
"82 800 LINE",
"82 0 LINE",
"182 0 LINE"
);
},
{
closed = 1;
nodes = (
"162 311 LINE",
"190 393 OFFCURVE",
"255 442 OFFCURVE",
"330 442 CURVE SMOOTH",
"425 442 OFFCURVE",
"489 366 OFFCURVE",
"489 251 CURVE SMOOTH",
"489 148 OFFCURVE",
"443 59 OFFCURVE",
"337 59 CURVE SMOOTH",
"252 59 OFFCURVE",
"182 118 OFFCURVE",
"172 206 CURVE",
"163 78 LINE",
"188 28 OFFCURVE",
"267 -20 OFFCURVE",
"351 -20 CURVE SMOOTH",
"479 -20 OFFCURVE",
"595 88 OFFCURVE",
"595 256 CURVE SMOOTH",
"595 408 OFFCURVE",
"494 518 OFFCURVE",
"356 520 CURVE SMOOTH",
"271 521 OFFCURVE",
"201 482 OFFCURVE",
"149 412 CURVE"
);
}
);
width = 635;
},
{
associatedMasterId = "D4A6A7D4-A1C7-46AD-82E1-17E0F86778FD";
backgroundImage = {
crop = "{{0, 0}, {610, 1000}}";
imagePath = "VOT-Workshop-Letters-Export/lowercase/b_lc.jpg";
locked = "1";
transform = "{1, 0, 0, 1, -19, -200}";
};
layerId = "96EA98D9-6F58-4310-8F41-2838837F2806";
name = "Nov 4 21, 09:28";
paths = (
{
closed = 1;
nodes = (
"164 800 LINE",
"64 800 LINE",
"64 -5 LINE",
"164 -5 LINE"
);
},
{
closed = 1;
nodes = (
"159 34 OFFCURVE",
"210 -18 OFFCURVE",
"308 -18 CURVE SMOOTH",
"455 -18 OFFCURVE",
"537 116 OFFCURVE",
"540 245 CURVE SMOOTH",
"542 328 OFFCURVE",
"493 515 OFFCURVE",
"306 512 CURVE SMOOTH",
"219 511 OFFCURVE",
"194 477 OFFCURVE",
"158 443 CURVE",
"158 325 LINE",
"159 357 OFFCURVE",
"200 429 OFFCURVE",
"291 429 CURVE SMOOTH",
"382 429 OFFCURVE",
"429 349 OFFCURVE",
"432 256 CURVE SMOOTH",
"435 162 OFFCURVE",
"384 65 OFFCURVE",
"292 64 CURVE SMOOTH",
"223 63 OFFCURVE",
"189 111 OFFCURVE",
"157 149 CURVE",
"157 52 LINE"
);
}
);
width = 581;
},
{
associatedMasterId = "D4A6A7D4-A1C7-46AD-82E1-17E0F86778FD";
backgroundImage = {
crop = "{{0, 0}, {610, 1000}}";
imagePath = "VOT-Workshop-Letters-Export/lowercase/b_lc.jpg";
locked = "1";
transform = "{1, 0, 0, 1, -1, -200}";
};
layerId = "9B7898A9-F4F4-4A10-BDB6-A7BB51051C08";
name = "Nov 22 21, 19:50";
paths = (
{
closed = 1;
nodes = (
"182 800 LINE",
"82 800 LINE",
"82 0 LINE",
"182 0 LINE"
);
},
{
closed = 1;
nodes = (
"164 317 LINE",
"196 400 OFFCURVE",
"255 450 OFFCURVE",
"326 450 CURVE SMOOTH",
"423 450 OFFCURVE",
"471 357 OFFCURVE",
"471 246 CURVE SMOOTH",
"471 139 OFFCURVE",
"427 62 OFFCURVE",
"328 62 CURVE SMOOTH",
"243 62 OFFCURVE",
"180 120 OFFCURVE",
"174 207 CURVE",
"165 79 LINE",
"188 25 OFFCURVE",
"262 -20 OFFCURVE",
"339 -20 CURVE SMOOTH",
"465 -20 OFFCURVE",
"578 100 OFFCURVE",
"578 260 CURVE SMOOTH",
"578 409 OFFCURVE",
"483 517 OFFCURVE",
"354 519 CURVE SMOOTH",
"274 520 OFFCURVE",
"205 480 OFFCURVE",
"155 410 CURVE"
);
}
);
width = 628;
}
);
leftMetricsKey = "=l";
rightMetricsKey = "=o";
unicode = 0062;
},
{
glyphname = c;
lastChange = "2021-11-30 14:17:49 +0000";
layers = (
{
background = {
components = (
{
name = o;
transform = "{1, 0, 0, 1, 4, 0}";
}
);
};
backgroundImage = {
crop = "{{0, 0}, {560, 1000}}";
imagePath = "VOT-Workshop-Letters-Export/lowercase/c_lc.jpg";
locked = "1";
transform = "{1, 0, 0, 1, 4, -200}";
};
layerId = "D4A6A7D4-A1C7-46AD-82E1-17E0F86778FD";
paths = (
{
closed = 1;
nodes = (
"404 99 OFFCURVE",
"361 54 OFFCURVE",
"291 54 CURVE SMOOTH",
"199 54 OFFCURVE",
"148 131 OFFCURVE",
"148 255 CURVE SMOOTH",
"148 378 OFFCURVE",
"200 446 OFFCURVE",
"289 446 CURVE SMOOTH",
"362 446 OFFCURVE",
"404 401 OFFCURVE",
"404 323 CURVE",
"519 323 LINE",
"519 444 OFFCURVE",
"440 520 OFFCURVE",
"297 520 CURVE SMOOTH",
"138 520 OFFCURVE",
"40 419 OFFCURVE",
"40 257 CURVE SMOOTH",
"40 87 OFFCURVE",
"138 -20 OFFCURVE",
"293 -20 CURVE SMOOTH",
"432 -20 OFFCURVE",
"519 55 OFFCURVE",
"519 175 CURVE",
"404 175 LINE"
);
}
);
width = 559;
},
{
associatedMasterId = "D4A6A7D4-A1C7-46AD-82E1-17E0F86778FD";
backgroundImage = {
crop = "{{0, 0}, {560, 1000}}";
imagePath = "VOT-Workshop-Letters-Export/lowercase/c_lc.jpg";
transform = "{1, 0, 0, 1, 0, -200}";
};
layerId = "F7DE6A88-2C9B-4DB2-B213-E0E929F093EA";
name = "Nov 4 21, 10:04";
paths = (
{
closed = 1;
nodes = (
"401 100 OFFCURVE",
"345 58 OFFCURVE",
"286 58 CURVE SMOOTH",
"208 58 OFFCURVE",
"144 118 OFFCURVE",
"144 245 CURVE SMOOTH",
"144 377 OFFCURVE",
"208 434 OFFCURVE",
"286 434 CURVE SMOOTH",
"335 434 OFFCURVE",
"401 412 OFFCURVE",
"401 345 CURVE",
"507 345 LINE",
"507 449 OFFCURVE",
"414 524 OFFCURVE",
"283 524 CURVE SMOOTH",
"121 524 OFFCURVE",
"38 401 OFFCURVE",
"38 249 CURVE SMOOTH",
"38 96 OFFCURVE",
"143 -27 OFFCURVE",
"283 -27 CURVE SMOOTH",
"410 -27 OFFCURVE",
"515 49 OFFCURVE",
"515 177 CURVE",
"401 177 LINE"
);
}
);
width = 560;
}
);
leftMetricsKey = "=o";
rightMetricsKey = "=o";
unicode = 0063;
},
{
glyphname = d;
lastChange = "2021-11-30 14:17:49 +0000";
layers = (
{
components = (
{
name = b;
transform = "{-1, 0, 0, 1, 635, 0}";
}
);
layerId = "D4A6A7D4-A1C7-46AD-82E1-17E0F86778FD";
width = 635;
},
{
associatedMasterId = "D4A6A7D4-A1C7-46AD-82E1-17E0F86778FD";
backgroundImage = {
crop = "{{0, 0}, {560, 1000}}";
imagePath = "VOT-Workshop-Letters-Export/lowercase/d_lc.jpg";
locked = "1";
transform = "{1, 0, 0, 1, 0, -200}";
};
layerId = "046D5FDB-4E97-4756-AEFF-10817570B3EA";
name = "Nov 4 21, 09:29";
paths = (
{
closed = 1;
nodes = (
"507 745 LINE",
"507 0 LINE",
"406 0 LINE",
"406 61 LINE",
"371 28 OFFCURVE",
"332 -2 OFFCURVE",
"267 -2 CURVE SMOOTH",
"155 -2 OFFCURVE",
"40 79 OFFCURVE",
"40 245 CURVE SMOOTH",
"40 391 OFFCURVE",
"143 495 OFFCURVE",
"254 495 CURVE SMOOTH",
"317 495 OFFCURVE",
"375 471 OFFCURVE",
"406 434 CURVE",
"406 745 LINE"
);
},
{
closed = 1;
nodes = (
"187 418 OFFCURVE",
"143 323 OFFCURVE",
"143 247 CURVE SMOOTH",
"143 127 OFFCURVE",
"223 76 OFFCURVE",
"274 76 CURVE SMOOTH",
"332 76 OFFCURVE",
"398 127 OFFCURVE",
"398 172 CURVE SMOOTH",
"398 320 LINE SMOOTH",
"398 354 OFFCURVE",
"364 418 OFFCURVE",
"277 418 CURVE SMOOTH"
);
}
);
width = 560;
},
{
associatedMasterId = "D4A6A7D4-A1C7-46AD-82E1-17E0F86778FD";
backgroundImage = {
crop = "{{0, 0}, {560, 1000}}";
imagePath = "VOT-Workshop-Letters-Export/lowercase/d_lc.jpg";
locked = "1";
transform = "{1, 0, 0, 1, 0, -200}";
};
components = (
{
name = b;
transform = "{-1, 0, 0, 1, 635, 0}";
}
);
layerId = "F2A03342-3231-4364-9598-1AE107CA9F0D";
name = "Nov 22 21, 20:02";
width = 635;
}
);
unicode = 0064;
},
{
glyphname = e;
lastChange = "2021-11-30 14:17:49 +0000";
layers = (
{
background = {
components = (
{
name = a;
transform = "{-1, 0, 0, -1, 511, 500}";
}
);
};
backgroundImage = {
crop = "{{0, 0}, {560, 1000}}";
imagePath = "VOT-Workshop-Letters-Export/lowercase/e_lc.jpg";
locked = "1";
transform = "{1, 0, 0, 1, 0, -200}";
};
layerId = "D4A6A7D4-A1C7-46AD-82E1-17E0F86778FD";
paths = (
{
closed = 1;
nodes = (
"406 91 OFFCURVE",
"357 54 OFFCURVE",
"292 54 CURVE SMOOTH",
"196 54 OFFCURVE",
"149 135 OFFCURVE",
"149 255 CURVE SMOOTH",
"149 374 OFFCURVE",
"207 446 OFFCURVE",
"283 446 CURVE SMOOTH",
"369 446 OFFCURVE",
"406 368 OFFCURVE",
"406 239 CURVE",
"520 239 LINE",
"520 414 OFFCURVE",
"444 520 OFFCURVE",
"291 520 CURVE SMOOTH",
"151 520 OFFCURVE",
"41 445 OFFCURVE",
"41 255 CURVE SMOOTH",
"41 95 OFFCURVE",
"126 -20 OFFCURVE",
"293 -20 CURVE SMOOTH",
"420 -20 OFFCURVE",
"520 46 OFFCURVE",
"520 151 CURVE",
"406 151 LINE"
);
},
{
closed = 1;
nodes = (
"97 239 LINE",
"452 239 LINE",
"452 308 LINE",
"97 308 LINE"
);
}
);
width = 560;
},
{
associatedMasterId = "D4A6A7D4-A1C7-46AD-82E1-17E0F86778FD";
backgroundImage = {
crop = "{{0, 0}, {560, 1000}}";
imagePath = "VOT-Workshop-Letters-Export/lowercase/e_lc.jpg";
transform = "{1, 0, 0, 1, 0, -200}";
};
layerId = "D8FAB05F-56D0-4F97-A866-E7B76C11870E";
name = "Nov 4 21, 10:08";
paths = (
{
closed = 1;
nodes = (
"38 413 OFFCURVE",
"153 520 OFFCURVE",
"288 520 CURVE SMOOTH",
"423 520 OFFCURVE",
"518 398 OFFCURVE",
"518 229 CURVE",
"147 229 LINE",
"150 163 OFFCURVE",
"195 62 OFFCURVE",
"283 62 CURVE SMOOTH",
"361 62 OFFCURVE",
"402 109 OFFCURVE",
"402 151 CURVE",
"509 151 LINE",
"509 102 OFFCURVE",
"459 -16 OFFCURVE",
"283 -16 CURVE SMOOTH",
"108 -16 OFFCURVE",
"38 137 OFFCURVE",
"38 253 CURVE"
);
},
{
closed = 1;
nodes = (
"416 300 LINE",
"416 376 OFFCURVE",
"361 435 OFFCURVE",
"281 435 CURVE SMOOTH",
"203 435 OFFCURVE",
"151 363 OFFCURVE",
"151 299 CURVE"
);
}
);
width = 560;
},
{
associatedMasterId = "D4A6A7D4-A1C7-46AD-82E1-17E0F86778FD";
background = {
paths = (
{
closed = 1;
nodes = (
"41 151 LINE",
"41 46 OFFCURVE",
"141 -20 OFFCURVE",
"268 -20 CURVE SMOOTH",
"435 -20 OFFCURVE",
"520 95 OFFCURVE",
"520 255 CURVE SMOOTH",
"520 427 OFFCURVE",
"414 520 OFFCURVE",
"270 520 CURVE SMOOTH",
"117 520 OFFCURVE",
"41 414 OFFCURVE",
"41 239 CURVE",
"155 239 LINE",
"155 368 OFFCURVE",
"192 446 OFFCURVE",
"278 446 CURVE SMOOTH",
"354 446 OFFCURVE",
"412 384 OFFCURVE",
"412 255 CURVE SMOOTH",
"412 135 OFFCURVE",
"365 54 OFFCURVE",
"269 54 CURVE SMOOTH",
"204 54 OFFCURVE",
"155 91 OFFCURVE",
"155 151 CURVE"
);
},
{
closed = 1;
nodes = (
"109 308 LINE",
"109 239 LINE",
"464 239 LINE",
"464 308 LINE"
);
},
{
closed = 1;
nodes = (
"338 128 LINE",
"336 82 OFFCURVE",
"307 49 OFFCURVE",
"238 50 CURVE SMOOTH",
"169 51 OFFCURVE",
"146 84 OFFCURVE",
"146 226 CURVE SMOOTH",
"146 500 LINE",
"40 500 LINE",
"40 191 LINE SMOOTH",
"40 20 OFFCURVE",
"108 -20 OFFCURVE",
"244 -20 CURVE SMOOTH",
"396 -20 OFFCURVE",
"444 32 OFFCURVE",
"454 128 CURVE"
);
},
{
closed = 1;
nodes = (
"162 202 OFFCURVE",
"212 178 OFFCURVE",
"286 178 CURVE SMOOTH",
"398 179 OFFCURVE",
"467 234 OFFCURVE",
"467 342 CURVE SMOOTH",
"467 452 OFFCURVE",
"394 520 OFFCURVE",
"294 520 CURVE SMOOTH",
"212 520 OFFCURVE",
"149 475 OFFCURVE",
"129 419 CURVE",
"135 366 LINE",
"141 405 OFFCURVE",
"190 431 OFFCURVE",
"259 431 CURVE SMOOTH",
"332 431 OFFCURVE",
"369 403 OFFCURVE",
"369 346 CURVE SMOOTH",
"369 287 OFFCURVE",
"329 255 OFFCURVE",
"258 255 CURVE SMOOTH",
"200 255 OFFCURVE",
"152 277 OFFCURVE",
"127 315 CURVE",
"121 247 LINE"
);
}
);
};
backgroundImage = {
crop = "{{0, 0}, {560, 1000}}";
imagePath = "VOT-Workshop-Letters-Export/lowercase/e_lc.jpg";
locked = "1";
transform = "{1, 0, 0, 1, 0, -200}";
};
layerId = "0D1A113D-4F7C-41CC-9743-801F938E145F";
name = "Nov 25 21, 17:32";
paths = (
{
closed = 1;
nodes = (
"406 91 OFFCURVE",
"357 54 OFFCURVE",
"292 54 CURVE SMOOTH",
"196 54 OFFCURVE",
"149 135 OFFCURVE",
"149 255 CURVE SMOOTH",
"149 374 OFFCURVE",
"207 446 OFFCURVE",
"283 446 CURVE SMOOTH",
"369 446 OFFCURVE",
"406 368 OFFCURVE",
"406 239 CURVE",
"520 239 LINE",
"520 414 OFFCURVE",
"444 520 OFFCURVE",
"291 520 CURVE SMOOTH",
"151 520 OFFCURVE",
"41 445 OFFCURVE",
"41 255 CURVE SMOOTH",
"41 95 OFFCURVE",
"126 -20 OFFCURVE",
"293 -20 CURVE SMOOTH",
"420 -20 OFFCURVE",
"520 46 OFFCURVE",
"520 151 CURVE",
"406 151 LINE"
);
},
{
closed = 1;
nodes = (
"97 239 LINE",
"452 239 LINE",
"452 308 LINE",
"97 308 LINE"
);
}
);
width = 560;
}
);
unicode = 0065;
},
{
glyphname = f;
lastChange = "2021-11-30 14:17:49 +0000";
layers = (
{
backgroundImage = {
crop = "{{0, 0}, {363, 1000}}";
imagePath = "VOT-Workshop-Letters-Export/lowercase/f_lc.jpg";
locked = "1";
transform = "{1, 0, 0, 1, -14, -200}";
};
layerId = "D4A6A7D4-A1C7-46AD-82E1-17E0F86778FD";
paths = (
{
closed = 1;
nodes = (
"300 500 LINE",
"300 420 LINE",
"45 420 LINE",
"45 500 LINE"
);
},
{
closed = 1;
nodes = (
"115 671 LINE SMOOTH",
"116 748 OFFCURVE",
"185 789 OFFCURVE",
"304 780 CURVE",
"303 695 LINE",
"247 699 OFFCURVE",
"211 686 OFFCURVE",
"211 645 CURVE SMOOTH",
"211 1 LINE",
"111 0 LINE"
);
}
);
width = 344;
},
{
associatedMasterId = "D4A6A7D4-A1C7-46AD-82E1-17E0F86778FD";
backgroundImage = {
crop = "{{0, 0}, {363, 1000}}";
imagePath = "VOT-Workshop-Letters-Export/lowercase/f_lc.jpg";
locked = "1";
transform = "{1, 0, 0, 1, 0, -200}";
};
layerId = "9BB46B31-38E6-4814-A09E-91F195D12A9E";
name = "Nov 4 21, 09:59";
paths = (
{
closed = 1;
nodes = (
"314 498 LINE",
"314 421 LINE",
"59 421 LINE",
"59 500 LINE"
);
},
{
closed = 1;
nodes = (
"131 684 LINE SMOOTH",
"131 775 OFFCURVE",
"223 797 OFFCURVE",
"317 790 CURVE",
"316 708 LINE",
"289 708 OFFCURVE",
"224 703 OFFCURVE",
"224 650 CURVE SMOOTH",
"224 -2 LINE",
"127 -3 LINE"
);
}
);
width = 363;
}
);
unicode = 0066;
},
{
glyphname = g;
lastChange = "2021-11-30 14:17:49 +0000";
layers = (
{
background = {
paths = (
{
closed = 1;
nodes = (
"438 -115 OFFCURVE",
"387 -182 OFFCURVE",
"308 -182 CURVE SMOOTH",
"210 -182 OFFCURVE",
"177 -101 OFFCURVE",
"177 -76 CURVE",
"75 -76 LINE",
"93 -191 OFFCURVE",
"177 -252 OFFCURVE",
"297 -252 CURVE SMOOTH",
"433 -252 OFFCURVE",
"538 -182 OFFCURVE",
"538 -34 CURVE SMOOTH",
"539 500 LINE",
"443 500 LINE",
"439 -28 LINE SMOOTH"
);
},
{
closed = 1;
nodes = (
"413 480 OFFCURVE",
"344 520 OFFCURVE",
"264 519 CURVE SMOOTH",
"135 517 OFFCURVE",
"40 409 OFFCURVE",
"40 260 CURVE SMOOTH",
"40 100 OFFCURVE",
"153 -20 OFFCURVE",
"279 -20 CURVE SMOOTH",
"356 -20 OFFCURVE",
"430 25 OFFCURVE",
"453 79 CURVE",
"444 207 LINE",
"438 120 OFFCURVE",
"375 62 OFFCURVE",
"290 62 CURVE SMOOTH",
"192 62 OFFCURVE",
"147 139 OFFCURVE",
"147 246 CURVE SMOOTH",
"147 357 OFFCURVE",
"195 450 OFFCURVE",
"292 450 CURVE SMOOTH",
"363 450 OFFCURVE",
"422 400 OFFCURVE",
"454 317 CURVE",
"463 410 LINE"
);
}
);
};
backgroundImage = {
crop = "{{0, 0}, {610, 1000}}";
imagePath = "VOT-Workshop-Letters-Export/lowercase/g_lc.jpg";
locked = "1";
transform = "{1, 0, 0, 1, -1, -200}";
};
layerId = "D4A6A7D4-A1C7-46AD-82E1-17E0F86778FD";
paths = (
{
closed = 1;
nodes = (
"438 -121 OFFCURVE",
"389 -182 OFFCURVE",
"307 -182 CURVE SMOOTH",
"212 -182 OFFCURVE",
"177 -101 OFFCURVE",
"177 -76 CURVE",
"75 -76 LINE",
"84 -196 OFFCURVE",
"179 -252 OFFCURVE",
"300 -252 CURVE SMOOTH",
"445 -252 OFFCURVE",
"538 -171 OFFCURVE",
"538 -47 CURVE SMOOTH",
"539 500 LINE",
"443 500 LINE",
"439 -24 LINE SMOOTH"
);
},
{
closed = 1;
nodes = (
"413 480 OFFCURVE",
"344 520 OFFCURVE",
"264 519 CURVE SMOOTH",
"135 517 OFFCURVE",
"40 409 OFFCURVE",
"40 260 CURVE SMOOTH",
"40 100 OFFCURVE",
"153 -20 OFFCURVE",
"279 -20 CURVE SMOOTH",
"356 -20 OFFCURVE",
"430 25 OFFCURVE",
"453 79 CURVE",
"444 207 LINE",
"438 120 OFFCURVE",
"375 62 OFFCURVE",
"290 62 CURVE SMOOTH",
"192 62 OFFCURVE",
"147 139 OFFCURVE",
"147 246 CURVE SMOOTH",
"147 357 OFFCURVE",
"195 450 OFFCURVE",
"292 450 CURVE SMOOTH",
"363 450 OFFCURVE",
"422 400 OFFCURVE",
"454 317 CURVE",
"463 410 LINE"
);
}
);
width = 621;
},
{
associatedMasterId = "D4A6A7D4-A1C7-46AD-82E1-17E0F86778FD";
backgroundImage = {
crop = "{{0, 0}, {610, 1000}}";
imagePath = "VOT-Workshop-Letters-Export/lowercase/g_lc.jpg";
locked = "1";
transform = "{1, 0, 0, 1, 0, -200}";
};
layerId = "308B304E-27D2-49CC-8B6E-EF1A6C7D1A59";
name = "Nov 4 21, 09:30";
paths = (
{
closed = 1;
nodes = (
"536 -34 LINE",
"537 501 LINE",
"444 501 LINE",
"440 -34 LINE"
);
},
{
closed = 1;
nodes = (
"41 84 OFFCURVE",
"163 -21 OFFCURVE",
"296 -21 CURVE SMOOTH",
"432 -21 OFFCURVE",
"489 113 OFFCURVE",
"489 265 CURVE SMOOTH",
"489 417 OFFCURVE",
"431 516 OFFCURVE",
"296 520 CURVE SMOOTH",
"138 524 OFFCURVE",
"44 402 OFFCURVE",
"43 265 CURVE SMOOTH"
);
},
{
closed = 1;
nodes = (
"146 353 OFFCURVE",
"201 437 OFFCURVE",
"293 437 CURVE SMOOTH",
"377 437 OFFCURVE",
"439 385 OFFCURVE",
"443 257 CURVE SMOOTH",
"447 126 OFFCURVE",
"382 66 OFFCURVE",
"289 66 CURVE SMOOTH",
"232 66 OFFCURVE",
"145 130 OFFCURVE",
"146 257 CURVE SMOOTH"
);
},
{
closed = 1;
nodes = (
"178 -76 LINE",
"178 -101 OFFCURVE",
"211 -182 OFFCURVE",
"309 -182 CURVE",
"388 -182 OFFCURVE",
"440 -111 OFFCURVE",
"440 -34 CURVE",
"536 -34 LINE",
"536 -182 OFFCURVE",
"432 -252 OFFCURVE",
"297 -252 CURVE SMOOTH",
"177 -252 OFFCURVE",
"94 -191 OFFCURVE",
"76 -76 CURVE"
);
},
{
closed = 1;
nodes = (
"461 134 LINE",
"461 347 LINE",
"435 347 LINE",
"435 134 LINE"
);
}
);
width = 600;
}
);
leftMetricsKey = "=o";
rightMetricsKey = "=l";
unicode = 0067;
},
{
glyphname = h;
lastChange = "2021-11-30 14:17:49 +0000";
layers = (
{
background = {
components = (
{
name = n;
transform = "{1, 0, 0, 1, 2, 0}";
}
);
};
layerId = "D4A6A7D4-A1C7-46AD-82E1-17E0F86778FD";
paths = (
{
closed = 1;
nodes = (
"82 0 LINE",
"182 0 LINE",
"182 800 LINE",
"82 800 LINE"
);
},
{
closed = 1;
nodes = (
"285 520 OFFCURVE",
"221 482 OFFCURVE",
"164 407 CURVE",
"164 297 LINE",
"207 393 OFFCURVE",
"260 439 OFFCURVE",
"335 439 CURVE SMOOTH",
"394 439 OFFCURVE",
"428 411 OFFCURVE",
"428 304 CURVE SMOOTH",
"428 0 LINE",
"530 0 LINE",
"530 340 LINE SMOOTH",
"530 457 OFFCURVE",
"461 520 OFFCURVE",
"362 520 CURVE SMOOTH"
);
}
);
width = 606;
},
{
associatedMasterId = "D4A6A7D4-A1C7-46AD-82E1-17E0F86778FD";
backgroundImage = {
crop = "{{0, 0}, {610, 1000}}";
imagePath = "VOT-Workshop-Letters-Export/lowercase/h_lc.jpg";
transform = "{1, 0, 0, 1, 0, -200}";
};
layerId = "A33CEB8E-4E18-4339-A463-2EDA22554D10";
name = "Nov 4 21, 10:03";
paths = (
{
closed = 1;
nodes = (
"174 256 LINE SMOOTH",
"172 230 OFFCURVE",
"171 200 OFFCURVE",
"171 168 CURVE SMOOTH",
"171 120 OFFCURVE",
"173 66 OFFCURVE",
"174 5 CURVE",
"75 6 LINE",
"78 789 LINE",
"182 789 LINE",
"182 442 LINE",
"237 510 OFFCURVE",
"304 513 OFFCURVE",
"348 513 CURVE SMOOTH",
"511 513 OFFCURVE",
"526 350 OFFCURVE",
"526 276 CURVE SMOOTH",
"526 183 OFFCURVE",
"528 87 OFFCURVE",
"528 36 CURVE SMOOTH",
"528 10 OFFCURVE",
"528 -4 OFFCURVE",
"526 0 CURVE",
"423 0 LINE",
"423 92 OFFCURVE",
"424 165 OFFCURVE",
"423 254 CURVE SMOOTH",
"424 394 OFFCURVE",
"372 428 OFFCURVE",
"319 428 CURVE SMOOTH",
"244 429 OFFCURVE",
"174 371 OFFCURVE",
"174 254 CURVE SMOOTH"
);
}
);
width = 610;
},
{
associatedMasterId = "D4A6A7D4-A1C7-46AD-82E1-17E0F86778FD";
background = {
paths = (
{
closed = 1;
nodes = (
"190 256 LINE SMOOTH",
"188 230 OFFCURVE",
"187 200 OFFCURVE",
"187 168 CURVE SMOOTH",
"187 120 OFFCURVE",
"189 66 OFFCURVE",
"190 5 CURVE",
"91 6 LINE",
"94 789 LINE",
"198 789 LINE",
"198 442 LINE",
"253 510 OFFCURVE",
"320 513 OFFCURVE",
"364 513 CURVE SMOOTH",
"527 513 OFFCURVE",
"542 350 OFFCURVE",
"542 276 CURVE SMOOTH",
"542 183 OFFCURVE",
"544 87 OFFCURVE",
"544 36 CURVE SMOOTH",
"544 10 OFFCURVE",
"544 -4 OFFCURVE",
"542 0 CURVE",
"439 0 LINE",
"439 92 OFFCURVE",
"440 165 OFFCURVE",
"439 254 CURVE SMOOTH",
"440 394 OFFCURVE",
"388 428 OFFCURVE",
"335 428 CURVE SMOOTH",
"260 429 OFFCURVE",
"190 371 OFFCURVE",
"190 254 CURVE SMOOTH"
);
}
);
};
layerId = "58ABD03E-DC5C-48AB-B8E9-C7B4163C4DFA";
name = "Nov 22 21, 19:32";
paths = (
{
closed = 1;
nodes = (
"180 800 LINE",
"180 0 LINE",
"80 0 LINE",
"80 800 LINE"
);
},
{
closed = 1;
nodes = (
"459 520 OFFCURVE",
"528 447 OFFCURVE",
"528 340 CURVE SMOOTH",
"528 0 LINE",
"426 0 LINE",
"426 306 LINE SMOOTH",
"426 400 OFFCURVE",
"388 439 OFFCURVE",
"325 439 CURVE SMOOTH",
"259 439 OFFCURVE",
"206 395 OFFCURVE",
"162 297 CURVE",
"162 408 LINE",
"222 487 OFFCURVE",
"288 520 OFFCURVE",
"356 520 CURVE SMOOTH"
);
}
);
width = 604;
}
);
leftMetricsKey = "=l";
rightMetricsKey = "=n";
unicode = 0068;
},
{
glyphname = i;
lastChange = "2021-11-30 14:17:49 +0000";
layers = (
{
layerId = "D4A6A7D4-A1C7-46AD-82E1-17E0F86778FD";
paths = (
{
closed = 1;
nodes = (
"180 0 LINE",
"180 500 LINE",
"80 500 LINE",
"80 0 LINE"
);
},
{
closed = 1;
nodes = (
"74 643 LINE",
"188 643 LINE",
"188 753 LINE",
"74 753 LINE"
);
}
);
width = 262;
}
);
rightMetricsKey = "=|";
unicode = 0069;
},
{
color = 5;
glyphname = idotless;
lastChange = "2021-11-30 14:18:02 +0000";
layers = (
{
layerId = "D4A6A7D4-A1C7-46AD-82E1-17E0F86778FD";
paths = (
{
closed = 1;
nodes = (
"180 0 LINE",
"180 500 LINE",
"80 500 LINE",
"80 0 LINE"
);
}
);
width = 260;
}
);
leftMetricsKey = "=n";
rightMetricsKey = "=|n";
unicode = 0131;
},
{
glyphname = j;
lastChange = "2021-11-30 14:17:49 +0000";
layers = (
{
backgroundImage = {
crop = "{{0, 0}, {280, 1000}}";
imagePath = "VOT-Workshop-Letters-Export/lowercase/j_lc.jpg";
locked = "1";
transform = "{1, 0, 0, 1, 0, -200}";
};
layerId = "D4A6A7D4-A1C7-46AD-82E1-17E0F86778FD";
paths = (
{
closed = 1;
nodes = (
"64 -38 LINE SMOOTH",
"64 -104 OFFCURVE",
"43 -129 OFFCURVE",
"-10 -129 CURVE",
"-10 -220 LINE",
"119 -221 OFFCURVE",
"164 -162 OFFCURVE",
"164 -40 CURVE SMOOTH",
"164 500 LINE",
"64 500 LINE"
);
},
{
closed = 1;
nodes = (
"57 643 LINE",
"171 643 LINE",
"171 753 LINE",
"57 753 LINE"
);
}
);
width = 253;
},
{
associatedMasterId = "D4A6A7D4-A1C7-46AD-82E1-17E0F86778FD";
backgroundImage = {
crop = "{{0, 0}, {280, 1000}}";
imagePath = "VOT-Workshop-Letters-Export/lowercase/j_lc.jpg";
locked = "1";
transform = "{1, 0, 0, 1, 0, -200}";
};
layerId = "CD5E2B42-C9B6-496C-8C10-75677A117AC5";
name = "Nov 4 21, 09:35";
paths = (
{
closed = 1;
nodes = (
"97 648 LINE",
"192 648 LINE",
"192 743 LINE",
"98 743 LINE"
);
},
{
closed = 1;
nodes = (
"97 -43 LINE SMOOTH",
"97 -82 OFFCURVE",
"98 -134 OFFCURVE",
"23 -134 CURVE",
"23 -220 LINE",
"160 -220 OFFCURVE",
"192 -163 OFFCURVE",
"192 -43 CURVE SMOOTH",
"192 500 LINE",
"97 500 LINE"
);
}
);
width = 280;
}
);
rightMetricsKey = "=l";
unicode = 006A;
},
{
glyphname = k;
lastChange = "2021-11-30 14:17:49 +0000";
layers = (
{
backgroundImage = {
crop = "{{0, 0}, {560, 1000}}";
imagePath = "VOT-Workshop-Letters-Export/lowercase/k_lc.jpg";
locked = "1";
transform = "{1, 0, 0, 1, -2, -200}";
};
layerId = "D4A6A7D4-A1C7-46AD-82E1-17E0F86778FD";
paths = (
{
closed = 1;
nodes = (
"183 0 LINE",
"183 800 LINE",
"82 800 LINE",
"82 0 LINE"
);
},
{
closed = 1;
nodes = (
"170 255 LINE",
"170 251 LINE",
"378 0 LINE",
"504 0 LINE",
"265 287 LINE",
"265 226 LINE",
"527 500 LINE",
"402 500 LINE"
);
}
);
width = 541;
},
{
associatedMasterId = "D4A6A7D4-A1C7-46AD-82E1-17E0F86778FD";
backgroundImage = {
crop = "{{0, 0}, {560, 1000}}";
imagePath = "VOT-Workshop-Letters-Export/lowercase/k_lc.jpg";
locked = "1";
transform = "{1, 0, 0, 1, -20, -200}";
};
layerId = "719933CD-171B-433A-906F-6F00F03DC5A0";
name = "Nov 4 21, 10:19";
paths = (
{
closed = 1;
nodes = (
"165 0 LINE",
"165 800 LINE",
"64 800 LINE",
"64 0 LINE"
);
},
{
closed = 1;
nodes = (
"152 251 LINE",
"354 0 LINE",
"490 0 LINE",
"249 285 LINE",
"247 219 LINE",
"519 500 LINE",
"394 500 LINE"
);
}
);
width = 540;
}
);
leftMetricsKey = "=l";
unicode = 006B;
},
{
glyphname = l;
lastChange = "2021-11-30 14:17:49 +0000";
layers = (
{
layerId = "D4A6A7D4-A1C7-46AD-82E1-17E0F86778FD";
paths = (
{
closed = 1;
nodes = (
"82 0 LINE",
"182 0 LINE",
"182 800 LINE",
"82 800 LINE"
);
}
);
width = 264;
}
);
rightMetricsKey = "=|";
unicode = 006C;
},
{
color = 5;
glyphname = m;
lastChange = "2021-11-30 14:18:20 +0000";
layers = (
{
background = {
components = (
{
name = n;
transform = "{0.90241, 0, 0, 1, 17, 0}";
}
);
paths = (
{
closed = 1;
nodes = (
"757 520 OFFCURVE",
"821 447 OFFCURVE",
"821 340 CURVE SMOOTH",
"821 0 LINE",
"721 0 LINE",
"721 307 LINE SMOOTH",
"721 401 OFFCURVE",
"687 440 OFFCURVE",
"630 440 CURVE SMOOTH",
"570 440 OFFCURVE",
"521 396 OFFCURVE",
"481 298 CURVE",
"481 408 LINE",
"537 487 OFFCURVE",
"598 520 OFFCURVE",
"661 520 CURVE SMOOTH"
);
}
);
};
layerId = "D4A6A7D4-A1C7-46AD-82E1-17E0F86778FD";
paths = (
{
closed = 1;
nodes = (
"180 500 LINE",
"180 0 LINE",
"80 0 LINE",
"80 500 LINE"
);
},
{
closed = 1;
nodes = (
"439 520 OFFCURVE",
"502 447 OFFCURVE",
"502 340 CURVE SMOOTH",
"502 0 LINE",
"402 0 LINE",
"402 305 LINE SMOOTH",
"402 398 OFFCURVE",
"376 439 OFFCURVE",
"316 439 CURVE SMOOTH",
"252 439 OFFCURVE",
"202 392 OFFCURVE",
"162 295 CURVE",
"162 406 LINE",
"209 480 OFFCURVE",
"272 520 OFFCURVE",
"343 520 CURVE SMOOTH"
);
},
{
closed = 1;
nodes = (
"759 520 OFFCURVE",
"822 447 OFFCURVE",
"822 340 CURVE SMOOTH",
"822 0 LINE",
"722 0 LINE",
"722 305 LINE SMOOTH",
"722 398 OFFCURVE",
"696 439 OFFCURVE",
"636 439 CURVE SMOOTH",
"572 439 OFFCURVE",
"522 392 OFFCURVE",
"482 295 CURVE",
"482 406 LINE",
"529 480 OFFCURVE",
"592 520 OFFCURVE",
"663 520 CURVE SMOOTH"
);
}
);
width = 898;
},
{
associatedMasterId = "D4A6A7D4-A1C7-46AD-82E1-17E0F86778FD";
background = {
paths = (
{
closed = 1;
nodes = (
"81 0 LINE",
"181 0 LINE",
"181 500 LINE",
"81 500 LINE"
);
},
{
closed = 1;
nodes = (
"402 0 LINE",
"502 0 LINE",
"502 300 LINE",
"402 300 LINE"
);
},
{
closed = 1;
nodes = (
"721 0 LINE",
"821 0 LINE",
"821 290 LINE",
"721 290 LINE"
);
},
{
closed = 1;
nodes = (
"163 284 OFFCURVE",
"213 423 OFFCURVE",
"309 423 CURVE SMOOTH",
"384 423 OFFCURVE",
"402 363 OFFCURVE",
"402 300 CURVE",
"502 300 LINE",
"502 360 OFFCURVE",
"461 512 OFFCURVE",
"325 512 CURVE SMOOTH",
"213 512 OFFCURVE",
"143 391 OFFCURVE",
"143 391 CURVE",
"157 235 LINE"
);
},
{
closed = 1;
nodes = (
"488 277 OFFCURVE",
"532 416 OFFCURVE",
"628 416 CURVE SMOOTH",
"703 416 OFFCURVE",
"721 356 OFFCURVE",
"721 283 CURVE",
"821 283 LINE",
"821 388 OFFCURVE",
"784 505 OFFCURVE",
"644 505 CURVE SMOOTH",
"532 505 OFFCURVE",
"462 384 OFFCURVE",
"462 384 CURVE",
"482 228 LINE"
);
}
);
};
backgroundImage = {
crop = "{{0, 0}, {840, 1000}}";
imagePath = "VOT-Workshop-Letters-Export/lowercase/m_lc.jpg";
locked = "1";
transform = "{1, 0, 0, 1, 16, -200}";
};
layerId = "784F8B06-42AF-4B80-B766-E136F9585839";
name = "Nov 22 21, 19:38";
paths = (
{
closed = 1;
nodes = (
"180 500 LINE",
"180 0 LINE",
"80 0 LINE",
"80 500 LINE"
);
},
{
closed = 1;
nodes = (
"438 520 OFFCURVE",
"502 447 OFFCURVE",
"502 340 CURVE SMOOTH",
"502 0 LINE",
"402 0 LINE",
"402 307 LINE SMOOTH",
"402 401 OFFCURVE",
"368 440 OFFCURVE",
"311 440 CURVE SMOOTH",
"251 440 OFFCURVE",
"202 396 OFFCURVE",
"162 298 CURVE",
"162 408 LINE",
"218 487 OFFCURVE",
"279 520 OFFCURVE",
"342 520 CURVE SMOOTH"
);
},
{
closed = 1;
nodes = (
"757 520 OFFCURVE",
"821 447 OFFCURVE",
"821 340 CURVE SMOOTH",
"821 0 LINE",
"721 0 LINE",
"721 307 LINE SMOOTH",
"721 401 OFFCURVE",
"687 440 OFFCURVE",
"630 440 CURVE SMOOTH",
"570 440 OFFCURVE",
"521 396 OFFCURVE",
"481 298 CURVE",
"481 408 LINE",
"537 487 OFFCURVE",
"598 520 OFFCURVE",
"661 520 CURVE SMOOTH"
);
}
);
width = 897;
}
);
leftMetricsKey = "=n";
rightMetricsKey = "=n";
unicode = 006D;
},
{
color = 5;
glyphname = n;
lastChange = "2021-11-30 14:17:58 +0000";
layers = (
{
layerId = "D4A6A7D4-A1C7-46AD-82E1-17E0F86778FD";
paths = (
{
closed = 1;
nodes = (
"80 0 LINE",
"180 0 LINE",
"180 500 LINE",
"80 500 LINE"
);
},
{
closed = 1;
nodes = (
"283 520 OFFCURVE",
"219 482 OFFCURVE",
"162 407 CURVE",
"162 297 LINE",
"205 393 OFFCURVE",
"258 439 OFFCURVE",
"333 439 CURVE SMOOTH",
"392 439 OFFCURVE",
"426 411 OFFCURVE",
"426 304 CURVE SMOOTH",
"426 0 LINE",
"528 0 LINE",
"528 340 LINE SMOOTH",
"528 457 OFFCURVE",
"459 520 OFFCURVE",
"360 520 CURVE SMOOTH"
);
}
);
width = 604;
},
{
associatedMasterId = "D4A6A7D4-A1C7-46AD-82E1-17E0F86778FD";
background = {
components = (
{
name = p;
transform = "{1, 0, 0, 1, 0, -14}";
}
);
paths = (
{
closed = 1;
nodes = (
"439 520 OFFCURVE",
"514 433 OFFCURVE",
"514 326 CURVE SMOOTH",
"514 2 LINE",
"410 2 LINE",
"410 305 LINE SMOOTH",
"410 400 OFFCURVE",
"375 450 OFFCURVE",
"309 450 CURVE SMOOTH",
"246 450 OFFCURVE",
"194 404 OFFCURVE",
"146 306 CURVE",
"146 406 LINE",
"208 485 OFFCURVE",
"269 520 OFFCURVE",
"346 520 CURVE SMOOTH"
);
}
);
};
layerId = "8355C106-7161-4B11-B812-5171129F8B84";
name = "Nov 22 21, 18:49";
paths = (
{
closed = 1;
nodes = (
"164 500 LINE",
"164 0 LINE",
"64 0 LINE",
"64 500 LINE"
);
},
{
closed = 1;
nodes = (
"443 520 OFFCURVE",
"512 447 OFFCURVE",
"512 340 CURVE SMOOTH",
"512 0 LINE",
"410 0 LINE",
"410 306 LINE SMOOTH",
"410 394 OFFCURVE",
"376 439 OFFCURVE",
"309 439 CURVE SMOOTH",
"242 439 OFFCURVE",
"189 393 OFFCURVE",
"146 297 CURVE",
"146 408 LINE",
"203 482 OFFCURVE",
"268 520 OFFCURVE",
"340 520 CURVE SMOOTH"
);
}
);
width = 566;
}
);
unicode = 006E;
},
{
color = 5;
glyphname = o;
lastChange = "2021-12-02 20:05:40 +0000";
layers = (
{
background = {
paths = (
{
closed = 1;
nodes = (
"461 -20 OFFCURVE",
"572 92 OFFCURVE",
"572 251 CURVE SMOOTH",
"572 408 OFFCURVE",
"461 520 OFFCURVE",
"308 520 CURVE SMOOTH",
"156 520 OFFCURVE",
"45 408 OFFCURVE",
"45 251 CURVE SMOOTH",
"45 92 OFFCURVE",
"156 -20 OFFCURVE",
"308 -20 CURVE SMOOTH"
);
},
{
closed = 1;
nodes = (
"211 70 OFFCURVE",
"145 141 OFFCURVE",
"145 251 CURVE SMOOTH",
"145 359 OFFCURVE",
"211 431 OFFCURVE",
"308 431 CURVE SMOOTH",
"406 431 OFFCURVE",
"472 359 OFFCURVE",
"472 251 CURVE SMOOTH",
"472 141 OFFCURVE",
"406 70 OFFCURVE",
"308 70 CURVE SMOOTH"
);
}
);
};
layerId = "D4A6A7D4-A1C7-46AD-82E1-17E0F86778FD";
paths = (
{
closed = 1;
nodes = (
"40 93 OFFCURVE",
"147 -20 OFFCURVE",
"308 -20 CURVE SMOOTH",
"469 -20 OFFCURVE",
"576 93 OFFCURVE",
"576 255 CURVE SMOOTH",
"576 415 OFFCURVE",
"470 520 OFFCURVE",
"308 520 CURVE SMOOTH",
"146 520 OFFCURVE",
"40 415 OFFCURVE",
"40 255 CURVE SMOOTH"
);
},
{
closed = 1;
nodes = (
"144 375 OFFCURVE",
"207 442 OFFCURVE",
"308 442 CURVE SMOOTH",
"410 442 OFFCURVE",
"472 375 OFFCURVE",
"472 253 CURVE SMOOTH",
"472 131 OFFCURVE",
"409 58 OFFCURVE",
"308 58 CURVE SMOOTH",
"207 58 OFFCURVE",
"144 130 OFFCURVE",
"144 253 CURVE SMOOTH"
);
}
);
width = 616;
},
{
associatedMasterId = "D4A6A7D4-A1C7-46AD-82E1-17E0F86778FD";
background = {
paths = (
{
closed = 1;
nodes = (
"39 86 OFFCURVE",
"148 -21 OFFCURVE",
"314 -21 CURVE SMOOTH",
"479 -21 OFFCURVE",
"589 86 OFFCURVE",
"589 258 CURVE SMOOTH",
"589 417 OFFCURVE",
"478 523 OFFCURVE",
"314 523 CURVE SMOOTH",
"147 523 OFFCURVE",
"39 417 OFFCURVE",
"39 258 CURVE SMOOTH"
);
},
{
closed = 1;
nodes = (
"144 367 OFFCURVE",
"209 455 OFFCURVE",
"313 455 CURVE SMOOTH",
"416 455 OFFCURVE",
"484 367 OFFCURVE",
"484 256 CURVE SMOOTH",
"484 133 OFFCURVE",
"418 48 OFFCURVE",
"315 48 CURVE SMOOTH",
"212 48 OFFCURVE",
"144 133 OFFCURVE",
"144 256 CURVE SMOOTH"
);
}
);
};
backgroundImage = {
crop = "{{0, 0}, {626, 1000}}";
imagePath = "VOT-Workshop-Letters-Export/lowercase/o_lc.jpg";
locked = "1";
transform = "{1, 0, 0, 1, -2, -200}";
};
layerId = "FB922339-9C1E-487F-804C-56B939E06B35";
name = "Nov 22 21, 19:42";
paths = (
{
closed = 1;
nodes = (
"41 92 OFFCURVE",
"151 -20 OFFCURVE",
"314 -20 CURVE SMOOTH",
"477 -20 OFFCURVE",
"587 92 OFFCURVE",
"587 255 CURVE SMOOTH",
"587 416 OFFCURVE",
"478 520 OFFCURVE",
"314 520 CURVE SMOOTH",
"150 520 OFFCURVE",
"41 416 OFFCURVE",
"41 255 CURVE SMOOTH"
);
},
{
closed = 1;
nodes = (
"146 377 OFFCURVE",
"211 452 OFFCURVE",
"314 452 CURVE SMOOTH",
"418 452 OFFCURVE",
"482 377 OFFCURVE",
"482 253 CURVE SMOOTH",
"482 129 OFFCURVE",
"417 48 OFFCURVE",
"314 48 CURVE SMOOTH",
"211 48 OFFCURVE",
"146 128 OFFCURVE",
"146 253 CURVE SMOOTH"
);
}
);
width = 628;
},
{
associatedMasterId = "D4A6A7D4-A1C7-46AD-82E1-17E0F86778FD";
background = {
paths = (
{
closed = 1;
nodes = (
"33 86 OFFCURVE",
"142 -21 OFFCURVE",
"308 -21 CURVE SMOOTH",
"473 -21 OFFCURVE",
"583 86 OFFCURVE",
"583 258 CURVE SMOOTH",
"583 417 OFFCURVE",
"472 523 OFFCURVE",
"308 523 CURVE SMOOTH",
"141 523 OFFCURVE",
"33 417 OFFCURVE",
"33 258 CURVE SMOOTH"
);
},
{
closed = 1;
nodes = (
"138 367 OFFCURVE",
"203 455 OFFCURVE",
"307 455 CURVE SMOOTH",
"410 455 OFFCURVE",
"478 367 OFFCURVE",
"478 256 CURVE SMOOTH",
"478 133 OFFCURVE",
"412 48 OFFCURVE",
"309 48 CURVE SMOOTH",
"206 48 OFFCURVE",
"138 133 OFFCURVE",
"138 256 CURVE SMOOTH"
);
}
);
};
layerId = "E9EEC723-3AE6-4E48-88CF-FB198164083C";
name = "Dec 2 21, 21:03";
paths = (
{
closed = 1;
nodes = (
"40 93 OFFCURVE",
"147 -20 OFFCURVE",
"308 -20 CURVE SMOOTH",
"469 -20 OFFCURVE",
"576 93 OFFCURVE",
"576 255 CURVE SMOOTH",
"576 415 OFFCURVE",
"470 520 OFFCURVE",
"308 520 CURVE SMOOTH",
"146 520 OFFCURVE",
"40 415 OFFCURVE",
"40 255 CURVE SMOOTH"
);
},
{
closed = 1;
nodes = (
"144 375 OFFCURVE",
"207 445 OFFCURVE",
"308 445 CURVE SMOOTH",
"410 445 OFFCURVE",
"472 375 OFFCURVE",
"472 253 CURVE SMOOTH",
"472 131 OFFCURVE",
"409 55 OFFCURVE",
"308 55 CURVE SMOOTH",
"207 55 OFFCURVE",
"144 130 OFFCURVE",
"144 253 CURVE SMOOTH"
);
}
);
width = 616;
}
);
rightMetricsKey = "=|";
unicode = 006F;
},
{
glyphname = p;
lastChange = "2021-11-30 14:17:49 +0000";
layers = (
{
background = {
components = (
{
name = o;
transform = "{1, 0, 0, 1, -10, 0}";
}
);
};
layerId = "D4A6A7D4-A1C7-46AD-82E1-17E0F86778FD";
paths = (
{
closed = 1;
nodes = (
"80 500 LINE",
"80 -200 LINE",
"180 -200 LINE",
"180 500 LINE"
);
},
{
closed = 1;
nodes = (
"162 311 LINE",
"190 393 OFFCURVE",
"255 442 OFFCURVE",
"330 442 CURVE SMOOTH",
"425 442 OFFCURVE",
"489 366 OFFCURVE",
"489 251 CURVE SMOOTH",
"489 148 OFFCURVE",
"443 59 OFFCURVE",
"337 59 CURVE SMOOTH",
"252 59 OFFCURVE",
"182 118 OFFCURVE",
"172 206 CURVE",
"163 78 LINE",
"188 28 OFFCURVE",
"267 -20 OFFCURVE",
"351 -20 CURVE SMOOTH",
"479 -20 OFFCURVE",
"595 88 OFFCURVE",
"595 256 CURVE SMOOTH",
"595 408 OFFCURVE",
"494 518 OFFCURVE",
"356 520 CURVE SMOOTH",
"271 521 OFFCURVE",
"201 482 OFFCURVE",
"149 412 CURVE"
);
}
);
width = 635;
},
{
associatedMasterId = "D4A6A7D4-A1C7-46AD-82E1-17E0F86778FD";
backgroundImage = {
crop = "{{0, 0}, {610, 1000}}";
imagePath = "VOT-Workshop-Letters-Export/lowercase/p_lc.jpg";
locked = "1";
transform = "{1, 0, 0, 1, 0, -200}";
};
layerId = "38079AD7-F8FD-4630-A48A-9EEEC4469D9B";
name = "Nov 4 21, 09:20";
paths = (
{
closed = 1;
nodes = (
"63 500 LINE",
"63 -200 LINE",
"163 -200 LINE",
"163 500 LINE"
);
},
{
closed = 1;
nodes = (
"145 318 LINE",
"193 440 OFFCURVE",
"270 447 OFFCURVE",
"303 447 CURVE SMOOTH",
"353 447 OFFCURVE",
"453 405 OFFCURVE",
"453 245 CURVE SMOOTH",
"453 139 OFFCURVE",
"392 67 OFFCURVE",
"303 67 CURVE SMOOTH",
"238 67 OFFCURVE",
"162 106 OFFCURVE",
"155 210 CURVE",
"146 85 LINE",
"169 32 OFFCURVE",
"246 -12 OFFCURVE",
"314 -12 CURVE SMOOTH",
"462 -12 OFFCURVE",
"558 119 OFFCURVE",
"558 251 CURVE SMOOTH",
"558 407 OFFCURVE",
"462 514 OFFCURVE",
"314 516 CURVE SMOOTH",
"239 517 OFFCURVE",
"176 467 OFFCURVE",
"136 416 CURVE"
);
}
);
width = 610;
},
{
associatedMasterId = "D4A6A7D4-A1C7-46AD-82E1-17E0F86778FD";
background = {
components = (
{
name = o;
transform = "{1, 0, 0, 1, -10, 0}";
}
);
};
backgroundImage = {
crop = "{{0, 0}, {610, 1000}}";
imagePath = "VOT-Workshop-Letters-Export/lowercase/p_lc.jpg";
locked = "1";
transform = "{1, 0, 0, 1, 17, -200}";
};
layerId = "05958F63-9631-4E97-A26F-F239900C2B5B";
name = "Nov 22 21, 20:05";
paths = (
{
closed = 1;
nodes = (
"80 500 LINE",
"80 -200 LINE",
"180 -200 LINE",
"180 500 LINE"
);
},
{
closed = 1;
nodes = (
"162 317 LINE",
"194 400 OFFCURVE",
"253 450 OFFCURVE",
"324 450 CURVE SMOOTH",
"421 450 OFFCURVE",
"469 357 OFFCURVE",
"469 246 CURVE SMOOTH",
"469 139 OFFCURVE",
"425 62 OFFCURVE",
"326 62 CURVE SMOOTH",
"241 62 OFFCURVE",
"178 120 OFFCURVE",
"172 207 CURVE",
"163 79 LINE",
"186 25 OFFCURVE",
"260 -20 OFFCURVE",
"337 -20 CURVE SMOOTH",
"463 -20 OFFCURVE",
"576 100 OFFCURVE",
"576 260 CURVE SMOOTH",
"576 409 OFFCURVE",
"481 517 OFFCURVE",
"352 519 CURVE SMOOTH",
"272 520 OFFCURVE",
"203 480 OFFCURVE",
"153 410 CURVE"
);
}
);
width = 626;
}
);
leftMetricsKey = "=n";
rightMetricsKey = "=o";
unicode = 0070;
},
{
glyphname = q;
lastChange = "2021-11-30 14:17:49 +0000";
layers = (
{
components = (
{
name = p;
transform = "{-1, 0, 0, 1, 635, 0}";
}
);
layerId = "D4A6A7D4-A1C7-46AD-82E1-17E0F86778FD";
width = 635;
},
{
associatedMasterId = "D4A6A7D4-A1C7-46AD-82E1-17E0F86778FD";
backgroundImage = {
crop = "{{0, 0}, {610, 1000}}";
imagePath = "VOT-Workshop-Letters-Export/lowercase/q_lc.jpg";
locked = "1";
transform = "{1, 0, 0, 1, 0, -200}";
};
layerId = "14C8E7B1-1CD3-45D0-A26F-53C84E735D66";
name = "Nov 4 21, 09:26";
paths = (
{
closed = 1;
nodes = (
"215 79 OFFCURVE",
"142 156 OFFCURVE",
"142 252 CURVE SMOOTH",
"142 358 OFFCURVE",
"201 445 OFFCURVE",
"280 445 CURVE SMOOTH",
"397 445 OFFCURVE",
"435 358 OFFCURVE",
"435 252 CURVE SMOOTH",
"435 156 OFFCURVE",
"370 79 OFFCURVE",
"293 79 CURVE SMOOTH"
);
},
{
closed = 1;
nodes = (
"385 -9 OFFCURVE",
"474 99 OFFCURVE",
"474 245 CURVE SMOOTH",
"474 407 OFFCURVE",
"386 518 OFFCURVE",
"260 518 CURVE SMOOTH",
"169 518 OFFCURVE",
"50 428 OFFCURVE",
"50 245 CURVE SMOOTH",
"50 99 OFFCURVE",
"133 -9 OFFCURVE",
"277 -9 CURVE SMOOTH"
);
},
{
closed = 1;
nodes = (
"405 -200 LINE",
"507 -200 LINE",
"507 505 LINE",
"405 505 LINE"
);
}
);
width = 610;
},
{
associatedMasterId = "D4A6A7D4-A1C7-46AD-82E1-17E0F86778FD";
backgroundImage = {
crop = "{{0, 0}, {610, 1000}}";
imagePath = "VOT-Workshop-Letters-Export/lowercase/q_lc.jpg";
locked = "1";
transform = "{1, 0, 0, 1, 41, -200}";
};
layerId = "75E5BEE4-6476-411B-90DE-05005D496914";
name = "Nov 22 21, 20:06";
paths = (
{
closed = 1;
nodes = (
"446 -200 LINE",
"546 -200 LINE",
"546 500 LINE",
"446 500 LINE"
);
},
{
closed = 1;
nodes = (
"423 480 OFFCURVE",
"354 520 OFFCURVE",
"274 519 CURVE SMOOTH",
"145 517 OFFCURVE",
"50 409 OFFCURVE",
"50 260 CURVE SMOOTH",
"50 100 OFFCURVE",
"163 -20 OFFCURVE",
"289 -20 CURVE SMOOTH",
"366 -20 OFFCURVE",
"440 25 OFFCURVE",
"463 79 CURVE",
"454 207 LINE",
"448 120 OFFCURVE",
"385 62 OFFCURVE",
"300 62 CURVE SMOOTH",
"202 62 OFFCURVE",
"157 139 OFFCURVE",
"157 246 CURVE SMOOTH",
"157 357 OFFCURVE",
"205 450 OFFCURVE",
"302 450 CURVE SMOOTH",
"373 450 OFFCURVE",
"432 400 OFFCURVE",
"464 317 CURVE",
"473 410 LINE"
);
}
);
width = 628;
}
);
leftMetricsKey = "=o";
rightMetricsKey = "=l";
unicode = 0071;
},
{
glyphname = r;
lastChange = "2021-11-30 14:17:49 +0000";
layers = (
{
background = {
components = (
{
name = n;
transform = "{1, 0, 0, 1, 18, 0}";
}
);
};
backgroundImage = {
crop = "{{0, 0}, {404, 1000}}";
imagePath = "VOT-Workshop-Letters-Export/lowercase/r_lc.jpg";
locked = "1";
transform = "{1, 0, 0, 1, 18, -200}";
};
layerId = "D4A6A7D4-A1C7-46AD-82E1-17E0F86778FD";
paths = (
{
closed = 1;
nodes = (
"182 500 LINE",
"82 500 LINE",
"82 -1 LINE",
"182 -1 LINE"
);
},
{
closed = 1;
nodes = (
"294 529 OFFCURVE",
"225 497 OFFCURVE",
"161 402 CURVE",
"171 295 LINE",
"197 386 OFFCURVE",
"271 427 OFFCURVE",
"386 417 CURVE",
"386 519 LINE"
);
}
);
width = 420;
},
{
associatedMasterId = "D4A6A7D4-A1C7-46AD-82E1-17E0F86778FD";
backgroundImage = {
crop = "{{0, 0}, {404, 1000}}";
imagePath = "VOT-Workshop-Letters-Export/lowercase/r_lc.jpg";
transform = "{1, 0, 0, 1, 0, -200}";
};
layerId = "C84E18D6-638C-4419-A1D1-314E936043E0";
name = "Nov 4 21, 09:48";
paths = (
{
closed = 1;
nodes = (
"157 506 LINE",
"50 506 LINE",
"50 -8 LINE",
"157 -8 LINE"
);
},
{
closed = 1;
nodes = (
"227 525 OFFCURVE",
"150 495 OFFCURVE",
"152 381 CURVE SMOOTH",
"154 254 LINE",
"151 361 OFFCURVE",
"207 433 OFFCURVE",
"368 423 CURVE",
"368 519 LINE"
);
}
);
width = 404;
}
);
leftMetricsKey = "=l";
unicode = 0072;
},
{
glyphname = s;
lastChange = "2021-11-30 14:17:49 +0000";
layers = (
{
background = {
components = (
{
name = o;
transform = "{1, 0, 0, 1, -67, 0}";
}
);
paths = (
{
closed = 1;
nodes = (
"326 406 OFFCURVE",
"309 436 OFFCURVE",
"249 436 CURVE SMOOTH",
"228 436 OFFCURVE",
"151 426 OFFCURVE",
"151 373 CURVE SMOOTH",
"151 307 OFFCURVE",
"273 295 OFFCURVE",
"321 282 CURVE SMOOTH",
"369 269 OFFCURVE",
"450 243 OFFCURVE",
"450 143 CURVE SMOOTH",
"450 43 OFFCURVE",
"358 -25 OFFCURVE",
"246 -25 CURVE SMOOTH",
"134 -25 OFFCURVE",
"44 13 OFFCURVE",
"44 141 CURVE",
"148 142 LINE",
"148 142 OFFCURVE",
"134 58 OFFCURVE",
"233 58 CURVE SMOOTH",
"332 58 OFFCURVE",
"339 117 OFFCURVE",
"339 130 CURVE SMOOTH",
"339 143 OFFCURVE",
"328 187 OFFCURVE",
"233 209 CURVE SMOOTH",
"138 231 OFFCURVE",
"46 253 OFFCURVE",
"46 358 CURVE SMOOTH",
"46 463 OFFCURVE",
"124 518 OFFCURVE",
"242 518 CURVE SMOOTH",
"321 518 OFFCURVE",
"438 491 OFFCURVE",
"438 370 CURVE",
"326 370 LINE"
);
}
);
};
backgroundImage = {
crop = "{{0, 0}, {470, 1000}}";
imagePath = "VOT-Workshop-Letters-Export/lowercase/s_lc.jpg";
locked = "1";
transform = "{1, 0, 0, 1, 8, -200}";
};
layerId = "D4A6A7D4-A1C7-46AD-82E1-17E0F86778FD";
paths = (
{
closed = 1;
nodes = (
"328 424 OFFCURVE",
"295 448 OFFCURVE",
"245 448 CURVE SMOOTH",
"190 448 OFFCURVE",
"149 420 OFFCURVE",
"149 376 CURVE SMOOTH",
"149 342 OFFCURVE",
"168 313 OFFCURVE",
"286 293 CURVE SMOOTH",
"408 272 OFFCURVE",
"454 220 OFFCURVE",
"454 150 CURVE SMOOTH",
"454 52 OFFCURVE",
"373 -20 OFFCURVE",
"238 -20 CURVE SMOOTH",
"117 -20 OFFCURVE",
"40 35 OFFCURVE",
"40 144 CURVE",
"146 145 LINE",
"146 91 OFFCURVE",
"189 53 OFFCURVE",
"246 53 CURVE SMOOTH",
"301 53 OFFCURVE",
"341 77 OFFCURVE",
"341 119 CURVE SMOOTH",
"341 175 OFFCURVE",
"305 188 OFFCURVE",
"223 204 CURVE SMOOTH",
"103 227 OFFCURVE",
"42 280 OFFCURVE",
"42 362 CURVE SMOOTH",
"42 461 OFFCURVE",
"116 520 OFFCURVE",
"242 520 CURVE SMOOTH",
"364 520 OFFCURVE",
"442 463 OFFCURVE",
"442 373 CURVE",
"328 373 LINE"
);
}
);
width = 494;
},
{
associatedMasterId = "D4A6A7D4-A1C7-46AD-82E1-17E0F86778FD";
backgroundImage = {
crop = "{{0, 0}, {470, 1000}}";
imagePath = "VOT-Workshop-Letters-Export/lowercase/s_lc.jpg";
transform = "{1, 0, 0, 1, 0, -200}";
};
layerId = "036C6B70-8FF2-42E7-8E9F-DDE74C50DFCA";
name = "Nov 4 21, 10:34";
paths = (
{
closed = 1;
nodes = (
"318 406 OFFCURVE",
"301 436 OFFCURVE",
"241 436 CURVE SMOOTH",
"220 436 OFFCURVE",
"143 426 OFFCURVE",
"143 373 CURVE SMOOTH",
"143 307 OFFCURVE",
"265 295 OFFCURVE",
"313 282 CURVE SMOOTH",
"361 269 OFFCURVE",
"442 243 OFFCURVE",
"442 143 CURVE SMOOTH",
"442 43 OFFCURVE",
"350 -25 OFFCURVE",
"238 -25 CURVE SMOOTH",
"126 -25 OFFCURVE",
"36 13 OFFCURVE",
"36 141 CURVE",
"140 142 LINE",
"140 142 OFFCURVE",
"126 58 OFFCURVE",
"225 58 CURVE SMOOTH",
"324 58 OFFCURVE",
"331 117 OFFCURVE",
"331 130 CURVE SMOOTH",
"331 143 OFFCURVE",
"320 187 OFFCURVE",
"225 209 CURVE SMOOTH",
"130 231 OFFCURVE",
"38 253 OFFCURVE",
"38 358 CURVE SMOOTH",
"38 463 OFFCURVE",
"116 518 OFFCURVE",
"234 518 CURVE SMOOTH",
"313 518 OFFCURVE",
"430 491 OFFCURVE",
"430 370 CURVE",
"318 370 LINE"
);
}
);
width = 470;
}
);
leftMetricsKey = "=o";
rightMetricsKey = "=o";
unicode = 0073;
},
{
glyphname = t;
lastChange = "2021-12-02 15:52:03 +0000";
layers = (
{
background = {
paths = (
{
closed = 1;
nodes = (
"214 500 LINE",
"355 500 LINE",
"355 429 LINE",
"214 429 LINE",
"214 134 LINE SMOOTH",
"214 85 OFFCURVE",
"246 67 OFFCURVE",
"281 67 CURVE SMOOTH",
"311 67 OFFCURVE",
"330 77 OFFCURVE",
"355 89 CURVE",
"355 4 LINE",
"330 -13 OFFCURVE",
"311 -18 OFFCURVE",
"281 -18 CURVE SMOOTH",
"193 -18 OFFCURVE",
"115 26 OFFCURVE",
"115 135 CURVE SMOOTH",
"115 428 LINE",
"36 428 LINE",
"36 500 LINE",
"115 500 LINE",
"115 662 LINE",
"214 682 LINE"
);
}
);
};
backgroundImage = {
crop = "{{0, 0}, {412, 1000}}";
imagePath = "VOT-Workshop-Letters-Export/lowercase/t_lc.jpg";
locked = "1";
transform = "{1, 0, 0, 1, 0, -200}";
};
layerId = "D4A6A7D4-A1C7-46AD-82E1-17E0F86778FD";
paths = (
{
closed = 1;
nodes = (
"215 138 LINE SMOOTH",
"215 91 OFFCURVE",
"235 67 OFFCURVE",
"280 67 CURVE SMOOTH",
"301 67 OFFCURVE",
"324 72 OFFCURVE",
"355 87 CURVE",
"355 6 LINE",
"332 -10 OFFCURVE",
"310 -20 OFFCURVE",
"269 -20 CURVE SMOOTH",
"179 -20 OFFCURVE",
"115 30 OFFCURVE",
"115 141 CURVE SMOOTH",
"115 662 LINE",
"215 682 LINE"
);
},
{
closed = 1;
nodes = (
"355 500 LINE",
"355 420 LINE",
"35 420 LINE",
"35 500 LINE"
);
}
);
width = 410;
},
{
associatedMasterId = "D4A6A7D4-A1C7-46AD-82E1-17E0F86778FD";
backgroundImage = {
crop = "{{0, 0}, {412, 1000}}";
imagePath = "VOT-Workshop-Letters-Export/lowercase/t_lc.jpg";
transform = "{1, 0, 0, 1, 0, -200}";
};
layerId = "9FA45458-1972-4B26-A5E7-31A0F44A3E1C";
name = "Nov 4 21, 10:01";
paths = (
{
closed = 1;
nodes = (
"214 500 LINE",
"355 500 LINE",
"355 429 LINE",
"214 429 LINE",
"214 134 LINE SMOOTH",
"214 85 OFFCURVE",
"246 67 OFFCURVE",
"281 67 CURVE SMOOTH",
"311 67 OFFCURVE",
"330 77 OFFCURVE",
"355 89 CURVE",
"355 4 LINE",
"330 -13 OFFCURVE",
"311 -18 OFFCURVE",
"281 -18 CURVE SMOOTH",
"193 -18 OFFCURVE",
"115 26 OFFCURVE",
"115 135 CURVE SMOOTH",
"115 428 LINE",
"36 428 LINE",
"36 500 LINE",
"115 500 LINE",
"115 662 LINE",
"214 682 LINE"
);
}
);
width = 410;
},
{
associatedMasterId = "D4A6A7D4-A1C7-46AD-82E1-17E0F86778FD";
background = {
paths = (
{
closed = 1;
nodes = (
"318 67 OFFCURVE",
"347 96 OFFCURVE",
"347 133 CURVE SMOOTH",
"347 170 OFFCURVE",
"318 199 OFFCURVE",
"281 199 CURVE SMOOTH",
"244 199 OFFCURVE",
"215 170 OFFCURVE",
"215 133 CURVE SMOOTH",
"215 96 OFFCURVE",
"244 67 OFFCURVE",
"281 67 CURVE SMOOTH"
);
},
{
closed = 1;
nodes = (
"351 -20 OFFCURVE",
"419 48 OFFCURVE",
"419 133 CURVE SMOOTH",
"419 216 OFFCURVE",
"351 284 OFFCURVE",
"268 284 CURVE SMOOTH",
"183 284 OFFCURVE",
"115 216 OFFCURVE",
"115 133 CURVE SMOOTH",
"115 48 OFFCURVE",
"183 -20 OFFCURVE",
"268 -20 CURVE SMOOTH"
);
}
);
};
backgroundImage = {
crop = "{{0, 0}, {412, 1000}}";
imagePath = "VOT-Workshop-Letters-Export/lowercase/t_lc.jpg";
locked = "1";
transform = "{1, 0, 0, 1, 0, -200}";
};
layerId = "1F2A4273-1711-4150-A79E-62B01F22B3B4";
name = "Dec 2 21, 16:44";
paths = (
{
closed = 1;
nodes = (
"215 134 LINE SMOOTH",
"215 99 OFFCURVE",
"241 67 OFFCURVE",
"280 67 CURVE SMOOTH",
"301 67 OFFCURVE",
"324 72 OFFCURVE",
"355 87 CURVE",
"355 6 LINE",
"332 -10 OFFCURVE",
"310 -20 OFFCURVE",
"269 -20 CURVE SMOOTH",
"179 -20 OFFCURVE",
"115 52 OFFCURVE",
"115 133 CURVE SMOOTH",
"115 662 LINE",
"215 682 LINE"
);
},
{
closed = 1;
nodes = (
"355 500 LINE",
"355 420 LINE",
"35 420 LINE",
"35 500 LINE"
);
}
);
width = 410;
}
);
unicode = 0074;
},
{
glyphname = u;
lastChange = "2021-11-30 14:17:40 +0000";
layers = (
{
background = {
components = (
{
name = n;
transform = "{-1, 0, 0, -1, 596, 500}";
}
);
};
layerId = "D4A6A7D4-A1C7-46AD-82E1-17E0F86778FD";
paths = (
{
closed = 1;
nodes = (
"416 0 LINE",
"416 500 LINE",
"516 500 LINE",
"516 0 LINE"
);
},
{
closed = 1;
nodes = (
"142 -20 OFFCURVE",
"76 53 OFFCURVE",
"76 165 CURVE SMOOTH",
"76 500 LINE",
"178 500 LINE",
"178 186 LINE SMOOTH",
"178 89 OFFCURVE",
"214 59 OFFCURVE",
"270 59 CURVE SMOOTH",
"340 59 OFFCURVE",
"391 107 OFFCURVE",
"434 201 CURVE",
"434 93 LINE",
"375 15 OFFCURVE",
"311 -20 OFFCURVE",
"241 -20 CURVE SMOOTH"
);
}
);
width = 596;
},
{
associatedMasterId = "D4A6A7D4-A1C7-46AD-82E1-17E0F86778FD";
backgroundImage = {
crop = "{{0, 0}, {511, 1000}}";
imagePath = "VOT-Workshop-Letters-Export/lowercase/u_lc.jpg";
transform = "{1, 0, 0, 1, 0, -200}";
};
layerId = "6F5DC80E-AD6A-4853-8A36-42A614E60968";
name = "Nov 4 21, 09:43";
paths = (
{
closed = 1;
nodes = (
"304 80 OFFCURVE",
"365 188 OFFCURVE",
"365 218 CURVE",
"365 500 LINE",
"462 500 LINE",
"462 -1 LINE",
"367 -1 LINE",
"367 78 LINE",
"345 33 OFFCURVE",
"285 -10 OFFCURVE",
"208 -10 CURVE SMOOTH",
"123 -10 OFFCURVE",
"40 48 OFFCURVE",
"40 188 CURVE SMOOTH",
"40 500 LINE",
"137 500 LINE",
"137 217 LINE SMOOTH",
"137 129 OFFCURVE",
"165 80 OFFCURVE",
"233 80 CURVE SMOOTH"
);
}
);
width = 510;
},
{
associatedMasterId = "D4A6A7D4-A1C7-46AD-82E1-17E0F86778FD";
background = {
paths = (
{
closed = 1;
nodes = (
"331 80 OFFCURVE",
"392 188 OFFCURVE",
"392 218 CURVE",
"392 500 LINE",
"489 500 LINE",
"489 -1 LINE",
"394 -1 LINE",
"394 78 LINE",
"372 33 OFFCURVE",
"312 -10 OFFCURVE",
"235 -10 CURVE SMOOTH",
"150 -10 OFFCURVE",
"67 48 OFFCURVE",
"67 188 CURVE SMOOTH",
"67 500 LINE",
"164 500 LINE",
"164 217 LINE SMOOTH",
"164 129 OFFCURVE",
"192 80 OFFCURVE",
"260 80 CURVE SMOOTH"
);
}
);
};
layerId = "394FA167-66DF-4149-A6A6-832DAFAB7F72";
name = "Nov 22 21, 19:29";
paths = (
{
closed = 1;
nodes = (
"394 0 LINE",
"394 500 LINE",
"494 500 LINE",
"494 0 LINE"
);
},
{
closed = 1;
nodes = (
"119 -20 OFFCURVE",
"54 53 OFFCURVE",
"54 160 CURVE SMOOTH",
"54 500 LINE",
"156 500 LINE",
"156 194 LINE SMOOTH",
"156 100 OFFCURVE",
"192 61 OFFCURVE",
"253 61 CURVE SMOOTH",
"318 61 OFFCURVE",
"369 105 OFFCURVE",
"412 203 CURVE",
"412 92 LINE",
"353 13 OFFCURVE",
"288 -20 OFFCURVE",
"221 -20 CURVE SMOOTH"
);
}
);
width = 558;
}
);
leftMetricsKey = "=|n";
rightMetricsKey = "=|n";
unicode = 0075;
},
{
glyphname = v;
lastChange = "2021-11-30 14:17:40 +0000";
layers = (
{
background = {
paths = (
{
closed = 1;
nodes = (
"22 500 LINE",
"131 500 LINE",
"289 0 LINE",
"193 0 LINE"
);
},
{
closed = 1;
nodes = (
"218 0 LINE",
"375 500 LINE",
"484 500 LINE",
"314 0 LINE"
);
}
);
};
backgroundImage = {
crop = "{{0, 0}, {511, 1000}}";
imagePath = "VOT-Workshop-Letters-Export/lowercase/v_lc.jpg";
locked = "1";
transform = "{1, 0, 0, 1, -4, -200}";
};
layerId = "D4A6A7D4-A1C7-46AD-82E1-17E0F86778FD";
paths = (
{
closed = 1;
nodes = (
"20 500 LINE",
"126 500 LINE",
"281 0 LINE",
"193 0 LINE"
);
},
{
closed = 1;
nodes = (
"227 0 LINE",
"382 500 LINE",
"488 500 LINE",
"315 0 LINE"
);
}
);
width = 508;
},
{
associatedMasterId = "D4A6A7D4-A1C7-46AD-82E1-17E0F86778FD";
backgroundImage = {
crop = "{{0, 0}, {511, 1000}}";
imagePath = "VOT-Workshop-Letters-Export/lowercase/v_lc.jpg";
locked = "1";
transform = "{1, 0, 0, 1, 0, -200}";
};
layerId = "59C38C63-9A92-4642-950B-A18744F20703";
name = "Nov 4 21, 10:13";
paths = (
{
closed = 1;
nodes = (
"26 500 LINE",
"135 500 LINE",
"293 0 LINE",
"197 0 LINE"
);
},
{
closed = 1;
nodes = (
"222 0 LINE",
"379 500 LINE",
"488 500 LINE",
"318 0 LINE"
);
}
);
width = 511;
}
);
rightMetricsKey = "=|";
unicode = 0076;
},
{
glyphname = w;
lastChange = "2021-11-30 14:17:40 +0000";
layers = (
{
background = {
paths = (
{
closed = 1;
nodes = (
"247 0 LINE",
"113 499 LINE",
"21 499 LINE",
"155 0 LINE"
);
},
{
closed = 1;
nodes = (
"426 495 LINE",
"343 495 LINE",
"196 0 LINE",
"288 0 LINE"
);
},
{
closed = 1;
nodes = (
"779 499 LINE",
"687 499 LINE",
"553 0 LINE",
"646 0 LINE"
);
},
{
closed = 1;
nodes = (
"604 0 LINE",
"457 495 LINE",
"374 495 LINE",
"512 0 LINE"
);
}
);
};
backgroundImage = {
crop = "{{0, 0}, {832, 1000}}";
imagePath = "VOT-Workshop-Letters-Export/lowercase/w_lc.jpg";
locked = "1";
transform = "{1, 0, 0, 1, -10, -200}";
};
layerId = "D4A6A7D4-A1C7-46AD-82E1-17E0F86778FD";
paths = (
{
closed = 1;
nodes = (
"20 500 LINE",
"118 500 LINE",
"246 0 LINE",
"163 0 LINE"
);
},
{
closed = 1;
nodes = (
"196 0 LINE",
"340 490 LINE",
"432 490 LINE",
"277 0 LINE"
);
},
{
closed = 1;
nodes = (
"364 490 LINE",
"456 490 LINE",
"600 0 LINE",
"519 0 LINE"
);
},
{
closed = 1;
nodes = (
"550 0 LINE",
"678 500 LINE",
"776 500 LINE",
"633 0 LINE"
);
}
);
width = 796;
},
{
associatedMasterId = "D4A6A7D4-A1C7-46AD-82E1-17E0F86778FD";
backgroundImage = {
crop = "{{0, 0}, {832, 1000}}";
imagePath = "VOT-Workshop-Letters-Export/lowercase/w_lc.jpg";
locked = "1";
transform = "{1, 0, 0, 1, 0, -200}";
};
layerId = "40B6145F-3E35-4D35-A827-B6ED8320B7D2";
name = "Nov 4 21, 10:16";
paths = (
{
closed = 1;
nodes = (
"257 0 LINE",
"123 499 LINE",
"31 499 LINE",
"165 0 LINE"
);
},
{
closed = 1;
nodes = (
"436 495 LINE",
"353 495 LINE",
"206 0 LINE",
"298 0 LINE"
);
},
{
closed = 1;
nodes = (
"789 499 LINE",
"697 499 LINE",
"563 0 LINE",
"656 0 LINE"
);
},
{
closed = 1;
nodes = (
"614 0 LINE",
"467 495 LINE",
"384 495 LINE",
"522 0 LINE"
);
}
);
width = 820;
}
);
leftMetricsKey = "=V";
rightMetricsKey = "=v";
unicode = 0077;
},
{
glyphname = x;
lastChange = "2021-11-30 14:17:40 +0000";
layers = (
{
background = {
paths = (
{
closed = 1;
nodes = (
"178 253 LINE",
"21 500 LINE",
"142 500 LINE",
"235 346 LINE",
"329 500 LINE",
"439 500 LINE",
"295 254 LINE",
"456 0 LINE",
"335 0 LINE",
"237 183 LINE",
"129 0 LINE",
"15 0 LINE"
);
}
);
};
backgroundImage = {
crop = "{{0, 0}, {478, 1000}}";
imagePath = "VOT-Workshop-Letters-Export/lowercase/x_lc.jpg";
locked = "1";
transform = "{1, 0, 0, 1, -4, -200}";
};
layerId = "D4A6A7D4-A1C7-46AD-82E1-17E0F86778FD";
paths = (
{
closed = 1;
nodes = (
"341 0 LINE",
"451 0 LINE",
"137 500 LINE",
"27 500 LINE"
);
},
{
closed = 1;
nodes = (
"194 280 LINE",
"16 0 LINE",
"122 0 LINE",
"270 247 LINE"
);
},
{
closed = 1;
nodes = (
"275 220 LINE",
"453 500 LINE",
"347 500 LINE",
"199 253 LINE"
);
}
);
width = 469;
},
{
associatedMasterId = "D4A6A7D4-A1C7-46AD-82E1-17E0F86778FD";
backgroundImage = {
crop = "{{0, 0}, {478, 1000}}";
imagePath = "VOT-Workshop-Letters-Export/lowercase/x_lc.jpg";
locked = "1";
transform = "{1, 0, 0, 1, 0, -200}";
};
layerId = "4DF723B0-9418-4F6E-BC3B-BF711F135769";
name = "Nov 4 21, 10:21";
paths = (
{
closed = 1;
nodes = (
"182 253 LINE",
"25 500 LINE",
"146 500 LINE",
"239 346 LINE",
"333 500 LINE",
"443 500 LINE",
"299 254 LINE",
"460 0 LINE",
"339 0 LINE",
"241 183 LINE",
"133 0 LINE",
"19 0 LINE"
);
}
);
width = 478;
},
{
associatedMasterId = "D4A6A7D4-A1C7-46AD-82E1-17E0F86778FD";
background = {
paths = (
{
closed = 1;
nodes = (
"182 253 LINE",
"25 500 LINE",
"146 500 LINE",
"239 346 LINE",
"333 500 LINE",
"443 500 LINE",
"299 254 LINE",
"460 0 LINE",
"339 0 LINE",
"241 183 LINE",
"133 0 LINE",
"19 0 LINE"
);
}
);
};
backgroundImage = {
crop = "{{0, 0}, {478, 1000}}";
imagePath = "VOT-Workshop-Letters-Export/lowercase/x_lc.jpg";
locked = "1";
transform = "{1, 0, 0, 1, 0, -200}";
};
layerId = "B6907C13-CA51-4A3E-984A-7CE95E5E72E3";
name = "Nov 4 21, 10:24";
paths = (
{
closed = 1;
nodes = (
"339 0 LINE",
"461 0 LINE",
"147 500 LINE",
"25 500 LINE"
);
},
{
closed = 1;
nodes = (
"196 277 LINE",
"18 0 LINE",
"131 0 LINE",
"279 247 LINE"
);
},
{
closed = 1;
nodes = (
"281 223 LINE",
"459 500 LINE",
"346 500 LINE",
"198 253 LINE"
);
}
);
width = 478;
}
);
rightMetricsKey = "=|";
unicode = 0078;
},
{
glyphname = y;
lastChange = "2021-11-30 14:17:40 +0000";
layers = (
{
background = {
paths = (
{
closed = 1;
nodes = (
"173 -138 OFFCURVE",
"210 -40 OFFCURVE",
"227 0 CURVE",
"200 0 LINE",
"30 500 LINE",
"134 500 LINE",
"258 95 LINE",
"381 500 LINE",
"485 500 LINE",
"318 0 LINE",
"302 -40 OFFCURVE",
"288 -79 OFFCURVE",
"269 -119 CURVE SMOOTH",
"246 -168 OFFCURVE",
"208 -205 OFFCURVE",
"134 -205 CURVE SMOOTH",
"79 -205 OFFCURVE",
"65 -183 OFFCURVE",
"65 -183 CURVE",
"65 -117 LINE",
"65 -117 OFFCURVE",
"96 -138 OFFCURVE",
"129 -138 CURVE SMOOTH"
);
}
);
};
backgroundImage = {
crop = "{{0, 0}, {503, 1000}}";
imagePath = "VOT-Workshop-Letters-Export/lowercase/y_lc.jpg";
locked = "1";
transform = "{1, 0, 0, 1, -10, -200}";
};
guideLines = (
{
angle = 71;
position = "{318, 10}";
},
{
angle = 71;
position = "{240, 10}";
}
);
layerId = "D4A6A7D4-A1C7-46AD-82E1-17E0F86778FD";
paths = (
{
closed = 1;
nodes = (
"20 500 LINE",
"126 500 LINE",
"281 0 LINE",
"193 0 LINE"
);
},
{
closed = 1;
nodes = (
"227 0 LINE",
"382 500 LINE",
"488 500 LINE",
"315 0 LINE"
);
},
{
closed = 1;
nodes = (
"292 -65 LINE SMOOTH",
"253 -175 OFFCURVE",
"198 -212 OFFCURVE",
"142 -212 CURVE SMOOTH",
"104 -212 OFFCURVE",
"75 -199 OFFCURVE",
"62 -190 CURVE",
"62 -105 LINE",
"79 -119 OFFCURVE",
"104 -131 OFFCURVE",
"128 -131 CURVE SMOOTH",
"160 -131 OFFCURVE",
"185 -117 OFFCURVE",
"202 -71 CURVE SMOOTH",
"228 0 LINE",
"315 0 LINE"
);
}
);
width = 508;
},
{
associatedMasterId = "D4A6A7D4-A1C7-46AD-82E1-17E0F86778FD";
backgroundImage = {
crop = "{{0, 0}, {503, 1000}}";
imagePath = "VOT-Workshop-Letters-Export/lowercase/y_lc.jpg";
locked = "1";
transform = "{1, 0, 0, 1, 0, -200}";
};
layerId = "F067DCA3-8A5C-40D0-A8A1-DFE23253195D";
name = "Nov 4 21, 10:26";
paths = (
{
closed = 1;
nodes = (
"183 -138 OFFCURVE",
"220 -40 OFFCURVE",
"237 0 CURVE",
"210 0 LINE",
"40 500 LINE",
"144 500 LINE",
"268 95 LINE",
"391 500 LINE",
"495 500 LINE",
"328 0 LINE",
"312 -40 OFFCURVE",
"298 -79 OFFCURVE",
"279 -119 CURVE SMOOTH",
"256 -168 OFFCURVE",
"218 -205 OFFCURVE",
"144 -205 CURVE SMOOTH",
"89 -205 OFFCURVE",
"75 -183 OFFCURVE",
"75 -183 CURVE",
"75 -117 LINE",
"75 -117 OFFCURVE",
"106 -138 OFFCURVE",
"139 -138 CURVE SMOOTH"
);
}
);
width = 535;
}
);
leftMetricsKey = "=v";
rightMetricsKey = "=v";
unicode = 0079;
},
{
glyphname = z;
lastChange = "2021-11-30 14:17:40 +0000";
layers = (
{
backgroundImage = {
crop = "{{0, 0}, {461, 1000}}";
imagePath = "VOT-Workshop-Letters-Export/lowercase/z_lc.jpg";
locked = "1";
transform = "{1, 0, 0, 1, 0, -200}";
};
layerId = "D4A6A7D4-A1C7-46AD-82E1-17E0F86778FD";
paths = (
{
closed = 1;
nodes = (
"47 418 LINE",
"369 418 LINE",
"336 451 LINE",
"30 88 LINE",
"30 0 LINE",
"437 0 LINE",
"436 82 LINE",
"107 82 LINE",
"118 48 LINE",
"426 412 LINE",
"426 500 LINE",
"47 500 LINE"
);
}
);
width = 467;
},
{
associatedMasterId = "D4A6A7D4-A1C7-46AD-82E1-17E0F86778FD";
backgroundImage = {
crop = "{{0, 0}, {461, 1000}}";
imagePath = "VOT-Workshop-Letters-Export/lowercase/z_lc.jpg";
transform = "{1, 0, 0, 1, 0, -200}";
};
layerId = "6D7C433E-A6BB-4152-916C-7804BE579788";
name = "Nov 4 21, 10:32";
paths = (
{
closed = 1;
nodes = (
"50 418 LINE",
"325 418 LINE",
"30 90 LINE",
"30 0 LINE",
"438 0 LINE",
"437 82 LINE",
"152 82 LINE",
"427 410 LINE",
"427 500 LINE",
"50 500 LINE"
);
}
);
width = 461;
}
);
rightMetricsKey = "=|";
unicode = 007A;
},
{
glyphname = a.ss01;
lastChange = "2021-11-30 14:30:37 +0000";
layers = (
{
layerId = "D4A6A7D4-A1C7-46AD-82E1-17E0F86778FD";
paths = (
{
closed = 1;
nodes = (
"553 0 LINE",
"553 500 LINE",
"453 500 LINE",
"453 0 LINE"
);
},
{
closed = 1;
nodes = (
"434 482 OFFCURVE",
"364 521 OFFCURVE",
"279 520 CURVE SMOOTH",
"141 518 OFFCURVE",
"40 408 OFFCURVE",
"40 256 CURVE SMOOTH",
"40 88 OFFCURVE",
"156 -20 OFFCURVE",
"284 -20 CURVE SMOOTH",
"368 -20 OFFCURVE",
"447 28 OFFCURVE",
"472 78 CURVE",
"463 206 LINE",
"453 118 OFFCURVE",
"383 59 OFFCURVE",
"298 59 CURVE SMOOTH",
"192 59 OFFCURVE",
"146 148 OFFCURVE",
"146 251 CURVE SMOOTH",
"146 366 OFFCURVE",
"210 442 OFFCURVE",
"305 442 CURVE SMOOTH",
"380 442 OFFCURVE",
"445 393 OFFCURVE",
"473 311 CURVE",
"486 412 LINE"
);
}
);
width = 593;
},
{
associatedMasterId = "D4A6A7D4-A1C7-46AD-82E1-17E0F86778FD";
backgroundImage = {
crop = "{{0, 0}, {560, 1000}}";
imagePath = "VOT-Workshop-Letters-Export/lowercase/d_lc.jpg";
locked = "1";
transform = "{1, 0, 0, 1, 0, -200}";
};
layerId = "046D5FDB-4E97-4756-AEFF-10817570B3EA";
name = "Nov 4 21, 09:29";
paths = (
{
closed = 1;
nodes = (
"507 745 LINE",
"507 0 LINE",
"406 0 LINE",
"406 61 LINE",
"371 28 OFFCURVE",
"332 -2 OFFCURVE",
"267 -2 CURVE SMOOTH",
"155 -2 OFFCURVE",
"40 79 OFFCURVE",
"40 245 CURVE SMOOTH",
"40 391 OFFCURVE",
"143 495 OFFCURVE",
"254 495 CURVE SMOOTH",
"317 495 OFFCURVE",
"375 471 OFFCURVE",
"406 434 CURVE",
"406 745 LINE"
);
},
{
closed = 1;
nodes = (
"187 418 OFFCURVE",
"143 323 OFFCURVE",
"143 247 CURVE SMOOTH",
"143 127 OFFCURVE",
"223 76 OFFCURVE",
"274 76 CURVE SMOOTH",
"332 76 OFFCURVE",
"398 127 OFFCURVE",
"398 172 CURVE SMOOTH",
"398 320 LINE SMOOTH",
"398 354 OFFCURVE",
"364 418 OFFCURVE",
"277 418 CURVE SMOOTH"
);
}
);
width = 560;
},
{
associatedMasterId = "D4A6A7D4-A1C7-46AD-82E1-17E0F86778FD";
backgroundImage = {
crop = "{{0, 0}, {560, 1000}}";
imagePath = "VOT-Workshop-Letters-Export/lowercase/d_lc.jpg";
locked = "1";
transform = "{1, 0, 0, 1, 0, -200}";
};
components = (
{
name = b;
transform = "{-1, 0, 0, 1, 635, 0}";
}
);
layerId = "F2A03342-3231-4364-9598-1AE107CA9F0D";
name = "Nov 22 21, 20:02";
width = 635;
}
);
leftMetricsKey = "=o";
rightMetricsKey = "=|";
},
{
export = 0;
glyphname = x.ss02;
lastChange = "2021-11-04 09:26:14 +0000";
layers = (
{
backgroundImage = {
crop = "{{0, 0}, {478, 1000}}";
imagePath = "VOT-Workshop-Letters-Export/lowercase/x_lc.jpg";
locked = "1";
transform = "{1, 0, 0, 1, 0, -200}";
};
layerId = "D4A6A7D4-A1C7-46AD-82E1-17E0F86778FD";
paths = (
{
closed = 1;
nodes = (
"443 500 LINE",
"289 252 LINE",
"457 0 LINE",
"346 0 LINE",
"240 181 LINE",
"135 0 LINE",
"24 0 LINE",
"191 251 LINE",
"24 500 LINE",
"149 500 LINE",
"241 335 LINE",
"332 500 LINE"
);
}
);
width = 478;
}
);
},
{
export = 0;
glyphname = d_o_g;
lastChange = "2021-11-30 14:17:40 +0000";
layers = (
{
layerId = "D4A6A7D4-A1C7-46AD-82E1-17E0F86778FD";
paths = (
{
closed = 1;
nodes = (
"334 345 OFFCURVE",
"323 346 OFFCURVE",
"311 346 CURVE SMOOTH",
"297 346 OFFCURVE",
"284 345 OFFCURVE",
"271 341 CURVE SMOOTH",
"236 333 OFFCURVE",
"158 289 OFFCURVE",
"107 289 CURVE SMOOTH",
"94 289 OFFCURVE",
"83 292 OFFCURVE",
"75 298 CURVE SMOOTH",
"59 309 OFFCURVE",
"50 332 OFFCURVE",
"50 351 CURVE SMOOTH",
"50 465 OFFCURVE",
"213 436 OFFCURVE",
"273 483 CURVE SMOOTH",
"291 498 OFFCURVE",
"319 522 OFFCURVE",
"331 543 CURVE SMOOTH",
"347 568 OFFCURVE",
"352 591 OFFCURVE",
"381 605 CURVE SMOOTH",
"387 608 OFFCURVE",
"393 610 OFFCURVE",
"398 610 CURVE SMOOTH",
"426 610 OFFCURVE",
"429 562 OFFCURVE",
"449 544 CURVE SMOOTH",
"459 535 OFFCURVE",
"478 532 OFFCURVE",
"496 532 CURVE SMOOTH",
"508 532 OFFCURVE",
"519 533 OFFCURVE",
"527 534 CURVE SMOOTH",
"617 547 OFFCURVE",
"709 556 OFFCURVE",
"800 556 CURVE SMOOTH",
"881 556 OFFCURVE",
"961 549 OFFCURVE",
"1039 529 CURVE SMOOTH",
"1077 520 OFFCURVE",
"1112 495 OFFCURVE",
"1150 485 CURVE SMOOTH",
"1183 477 OFFCURVE",
"1215 480 OFFCURVE",
"1248 469 CURVE SMOOTH",
"1276 461 OFFCURVE",
"1303 440 OFFCURVE",
"1326 424 CURVE SMOOTH",
"1411 369 OFFCURVE",
"1514 308 OFFCURVE",
"1507 190 CURVE SMOOTH",
"1503 131 OFFCURVE",
"1443 75 OFFCURVE",
"1381 75 CURVE SMOOTH",
"1371 75 OFFCURVE",
"1361 76 OFFCURVE",
"1350 80 CURVE SMOOTH",
"1301 97 OFFCURVE",
"1257 208 OFFCURVE",
"1213 250 CURVE SMOOTH",
"1188 274 OFFCURVE",
"1167 284 OFFCURVE",
"1137 299 CURVE SMOOTH",
"1124 305 OFFCURVE",
"1083 329 OFFCURVE",
"1066 323 CURVE SMOOTH",
"1050 317 OFFCURVE",
"1041 267 OFFCURVE",
"1035 252 CURVE SMOOTH",
"1031 239 OFFCURVE",
"1029 222 OFFCURVE",
"1029 202 CURVE SMOOTH",
"1029 148 OFFCURVE",
"1043 74 OFFCURVE",
"1043 19 CURVE SMOOTH",
"1043 -13 OFFCURVE",
"1038 -39 OFFCURVE",
"1024 -52 CURVE SMOOTH",
"1013 -62 OFFCURVE",
"1004 -65 OFFCURVE",
"996 -65 CURVE SMOOTH",
"965 -65 OFFCURVE",
"951 -12 OFFCURVE",
"942 14 CURVE SMOOTH",
"919 83 OFFCURVE",
"910 220 OFFCURVE",
"817 239 CURVE SMOOTH",
"799 242 OFFCURVE",
"781 243 OFFCURVE",
"762 244 CURVE SMOOTH",
"745 244 OFFCURVE",
"729 205 OFFCURVE",
"722 187 CURVE SMOOTH",
"715 168 OFFCURVE",
"675 16 OFFCURVE",
"664 3 CURVE SMOOTH",
"648 -14 OFFCURVE",
"626 -26 OFFCURVE",
"604 -26 CURVE SMOOTH",
"599 -26 OFFCURVE",
"594 -25 OFFCURVE",
"588 -24 CURVE SMOOTH",
"481 4 OFFCURVE",
"484 169 OFFCURVE",
"455 260 CURVE SMOOTH",
"446 289 OFFCURVE",
"409 300 OFFCURVE",
"388 319 CURVE SMOOTH",
"378 329 OFFCURVE",
"368 353 OFFCURVE",
"355 359 CURVE SMOOTH",
"351 360 OFFCURVE",
"346 347 OFFCURVE",
"345 344 CURVE",
"345 344 LINE"
);
},
{
closed = 1;
nodes = (
"377 486 OFFCURVE",
"361 488 OFFCURVE",
"345 488 CURVE SMOOTH",
"321 488 OFFCURVE",
"298 483 OFFCURVE",
"298 456 CURVE SMOOTH",
"298 440 OFFCURVE",
"301 425 OFFCURVE",
"318 417 CURVE SMOOTH",
"327 413 OFFCURVE",
"338 413 OFFCURVE",
"348 413 CURVE SMOOTH",
"378 413 OFFCURVE",
"405 422 OFFCURVE",
"422 446 CURVE SMOOTH",
"424 448 OFFCURVE",
"428 452 OFFCURVE",
"428 454 CURVE SMOOTH",
"428 454 OFFCURVE",
"428 455 OFFCURVE",
"427 455 CURVE SMOOTH",
"412 466 OFFCURVE",
"404 474 OFFCURVE",
"389 486 CURVE",
"389 486 LINE SMOOTH"
);
}
);
width = 1589;
}
);
leftMetricsKey = d;
rightMetricsKey = g;
},
{
export = 0;
glyphname = f_i;
lastChange = "2021-11-30 14:17:40 +0000";
layers = (
{
layerId = "D4A6A7D4-A1C7-46AD-82E1-17E0F86778FD";
paths = (
{
closed = 1;
nodes = (
"45 420 LINE",
"470 420 LINE",
"470 500 LINE",
"45 500 LINE"
);
},
{
closed = 1;
nodes = (
"211 1 LINE",
"211 645 LINE SMOOTH",
"211 686 OFFCURVE",
"247 699 OFFCURVE",
"303 695 CURVE",
"304 780 LINE",
"185 789 OFFCURVE",
"115 748 OFFCURVE",
"115 671 CURVE SMOOTH",
"111 0 LINE"
);
},
{
closed = 1;
nodes = (
"524 0 LINE",
"524 500 LINE",
"424 500 LINE",
"424 0 LINE"
);
},
{
closed = 1;
nodes = (
"418 643 LINE",
"532 643 LINE",
"532 753 LINE",
"418 753 LINE"
);
}
);
width = 606;
}
);
leftMetricsKey = f;
rightMetricsKey = i;
},
{
glyphname = zero;
lastChange = "2021-11-30 14:17:40 +0000";
layers = (
{
backgroundImage = {
crop = "{{0, 0}, {593, 1000}}";
imagePath = "VOT-Workshop-Letters-Export/numbers/0.jpg";
transform = "{1, 0, 0, 1, 0, -200}";
};
layerId = "D4A6A7D4-A1C7-46AD-82E1-17E0F86778FD";
paths = (
{
closed = 1;
nodes = (
"58 123 OFFCURVE",
"155 -40 OFFCURVE",
"301 -40 CURVE SMOOTH",
"447 -40 OFFCURVE",
"544 123 OFFCURVE",
"544 369 CURVE SMOOTH",
"544 614 OFFCURVE",
"447 777 OFFCURVE",
"301 777 CURVE SMOOTH",
"155 777 OFFCURVE",
"58 614 OFFCURVE",
"58 369 CURVE SMOOTH"
);
},
{
closed = 1;
nodes = (
"150 550 OFFCURVE",
"190 678 OFFCURVE",
"302 678 CURVE SMOOTH",
"414 678 OFFCURVE",
"450 550 OFFCURVE",
"450 362 CURVE SMOOTH",
"450 173 OFFCURVE",
"414 49 OFFCURVE",
"302 49 CURVE SMOOTH",
"190 49 OFFCURVE",
"150 173 OFFCURVE",
"150 362 CURVE SMOOTH"
);
}
);
width = 593;
}
);
unicode = 0030;
},
{
glyphname = one;
lastChange = "2021-11-30 14:17:40 +0000";
layers = (
{
backgroundImage = {
crop = "{{0, 0}, {461, 1000}}";
imagePath = "VOT-Workshop-Letters-Export/numbers/1.jpg";
transform = "{1, 0, 0, 1, 0, -200}";
};
layerId = "D4A6A7D4-A1C7-46AD-82E1-17E0F86778FD";
paths = (
{
closed = 1;
nodes = (
"354 780 LINE",
"354 0 LINE",
"255 0 LINE",
"257 612 LINE",
"219 550 OFFCURVE",
"125 484 OFFCURVE",
"75 473 CURVE",
"75 504 LINE",
"75 539 LINE",
"75 569 LINE",
"148 597 OFFCURVE",
"225 688 OFFCURVE",
"270 780 CURVE"
);
}
);
width = 454;
}
);
unicode = 0031;
},
{
glyphname = two;
lastChange = "2021-11-30 14:17:40 +0000";
layers = (
{
backgroundImage = {
crop = "{{0, 0}, {610, 1000}}";
imagePath = "VOT-Workshop-Letters-Export/numbers/2.jpg";
transform = "{1, 0, 0, 1, 0, -200}";
};
layerId = "D4A6A7D4-A1C7-46AD-82E1-17E0F86778FD";
paths = (
{
closed = 1;
nodes = (
"81 -3 LINE",
"542 -3 LINE",
"542 97 LINE",
"81 97 LINE"
);
},
{
closed = 1;
nodes = (
"201 531 LINE",
"201 577 OFFCURVE",
"215 697 OFFCURVE",
"321 697 CURVE SMOOTH",
"398 697 OFFCURVE",
"438 646 OFFCURVE",
"438 562 CURVE SMOOTH",
"438 486 OFFCURVE",
"402 425 OFFCURVE",
"250 338 CURVE SMOOTH",
"128 268 OFFCURVE",
"81 182 OFFCURVE",
"81 75 CURVE",
"201 58 LINE",
"201 83 OFFCURVE",
"202 69 OFFCURVE",
"202 94 CURVE SMOOTH",
"202 116 OFFCURVE",
"205 171 OFFCURVE",
"258 216 CURVE SMOOTH",
"385 324 OFFCURVE",
"542 365 OFFCURVE",
"542 565 CURVE SMOOTH",
"542 722 OFFCURVE",
"434 790 OFFCURVE",
"327 790 CURVE SMOOTH",
"212 790 OFFCURVE",
"101 706 OFFCURVE",
"101 531 CURVE"
);
}
);
width = 600;
}
);
unicode = 0032;
},
{
glyphname = three;
lastChange = "2021-11-30 14:17:40 +0000";
layers = (
{
backgroundImage = {
crop = "{{0, 0}, {610, 1000}}";
imagePath = "VOT-Workshop-Letters-Export/numbers/3.jpg";
transform = "{1, 0, 0, 1, 0, -200}";
};
layerId = "D4A6A7D4-A1C7-46AD-82E1-17E0F86778FD";
paths = (
{
closed = 1;
nodes = (
"434 780 OFFCURVE",
"528 693 OFFCURVE",
"528 601 CURVE",
"528 512 OFFCURVE",
"482 428 OFFCURVE",
"402 403 CURVE",
"482 380 OFFCURVE",
"542 308 OFFCURVE",
"542 199 CURVE",
"542 90 OFFCURVE",
"439 0 OFFCURVE",
"303 0 CURVE",
"169 0 OFFCURVE",
"73 71 OFFCURVE",
"73 223 CURVE",
"179 223 LINE",
"179 115 OFFCURVE",
"233 73 OFFCURVE",
"307 74 CURVE",
"391 74 OFFCURVE",
"441 126 OFFCURVE",
"441 212 CURVE",
"441 290 OFFCURVE",
"385 355 OFFCURVE",
"315 355 CURVE",
"221 355 LINE",
"221 447 LINE",
"315 447 LINE",
"391 447 OFFCURVE",
"425 529 OFFCURVE",
"425 601 CURVE",
"425 670 OFFCURVE",
"371 706 OFFCURVE",
"309 707 CURVE",
"248 707 OFFCURVE",
"195 682 OFFCURVE",
"197 582 CURVE",
"98 582 LINE",
"98 586 LINE",
"98 694 OFFCURVE",
"158 780 OFFCURVE",
"304 780 CURVE"
);
}
);
width = 600;
}
);
unicode = 0033;
},
{
glyphname = four;
lastChange = "2021-11-30 14:17:40 +0000";
layers = (
{
backgroundImage = {
crop = "{{0, 0}, {610, 1000}}";
imagePath = "VOT-Workshop-Letters-Export/numbers/4.jpg";
transform = "{1, 0, 0, 1, 0, -200}";
};
layerId = "D4A6A7D4-A1C7-46AD-82E1-17E0F86778FD";
paths = (
{
closed = 1;
nodes = (
"474 0 LINE",
"474 219 LINE",
"555 219 LINE",
"555 300 LINE",
"474 300 LINE",
"474 762 LINE",
"338 762 LINE",
"50 343 LINE",
"50 219 LINE",
"378 219 LINE",
"380 0 LINE"
);
},
{
closed = 1;
nodes = (
"149 330 LINE",
"364 644 LINE",
"378 644 LINE",
"378 300 LINE",
"149 300 LINE"
);
}
);
width = 610;
}
);
unicode = 0034;
},
{
glyphname = five;
lastChange = "2021-11-30 14:17:40 +0000";
layers = (
{
backgroundImage = {
crop = "{{0, 0}, {527, 1000}}";
imagePath = "VOT-Workshop-Letters-Export/numbers/5.jpg";
transform = "{1, 0, 0, 1, 0, -200}";
};
layerId = "D4A6A7D4-A1C7-46AD-82E1-17E0F86778FD";
paths = (
{
closed = 1;
nodes = (
"470 687 LINE",
"470 783 LINE",
"65 786 LINE",
"65 365 LINE",
"160 365 LINE",
"168 409 OFFCURVE",
"199 462 OFFCURVE",
"261 461 CURVE SMOOTH",
"323 460 OFFCURVE",
"389 409 OFFCURVE",
"390 266 CURVE SMOOTH",
"391 123 OFFCURVE",
"332 70 OFFCURVE",
"259 70 CURVE SMOOTH",
"187 70 OFFCURVE",
"148 127 OFFCURVE",
"135 220 CURVE",
"33 220 LINE",
"42 121 OFFCURVE",
"83 -15 OFFCURVE",
"261 -15 CURVE SMOOTH",
"471 -15 OFFCURVE",
"497 196 OFFCURVE",
"497 266 CURVE SMOOTH",
"497 356 OFFCURVE",
"479 543 OFFCURVE",
"291 543 CURVE SMOOTH",
"215 543 OFFCURVE",
"186 503 OFFCURVE",
"161 475 CURVE",
"161 688 LINE",
"470 688 LINE"
);
}
);
width = 520;
}
);
unicode = 0035;
},
{
glyphname = six;
lastChange = "2021-10-30 15:30:08 +0000";
layers = (
{
backgroundImage = {
crop = "{{0, 0}, {527, 1000}}";
imagePath = "VOT-Workshop-Letters-Export/numbers/6.jpg";
locked = "1";
transform = "{1, 0, 0, 1, 0, -200}";
};
layerId = "D4A6A7D4-A1C7-46AD-82E1-17E0F86778FD";
paths = (
{
closed = 1;
nodes = (
"146 701 OFFCURVE",
"141 460 OFFCURVE",
"143 417 CURVE",
"175 452 OFFCURVE",
"229 491 OFFCURVE",
"298 491 CURVE SMOOTH",
"379 491 OFFCURVE",
"489 422 OFFCURVE",
"489 240 CURVE SMOOTH",
"489 110 OFFCURVE",
"425 -16 OFFCURVE",
"266 -16 CURVE SMOOTH",
"96 -16 OFFCURVE",
"30 141 OFFCURVE",
"30 382 CURVE SMOOTH",
"30 593 OFFCURVE",
"110 787 OFFCURVE",
"283 787 CURVE SMOOTH",
"395 787 OFFCURVE",
"489 711 OFFCURVE",
"491 590 CURVE",
"394 590 LINE",
"394 634 OFFCURVE",
"383 701 OFFCURVE",
"281 701 CURVE SMOOTH"
);
},
{
closed = 1;
nodes = (
"348 68 OFFCURVE",
"408 136 OFFCURVE",
"408 236 CURVE SMOOTH",
"408 336 OFFCURVE",
"348 398 OFFCURVE",
"275 398 CURVE SMOOTH",
"202 398 OFFCURVE",
"141 320 OFFCURVE",
"141 236 CURVE SMOOTH",
"141 136 OFFCURVE",
"201 68 OFFCURVE",
"275 68 CURVE SMOOTH"
);
}
);
width = 527;
}
);
unicode = 0036;
},
{
glyphname = seven;
lastChange = "2021-10-30 15:35:25 +0000";
layers = (
{
backgroundImage = {
crop = "{{0, 0}, {527, 1000}}";
imagePath = "VOT-Workshop-Letters-Export/numbers/7.jpg";
transform = "{1, 0, 0, 1, 0, -200}";
};
layerId = "D4A6A7D4-A1C7-46AD-82E1-17E0F86778FD";
paths = (
{
closed = 1;
nodes = (
"26 679 LINE",
"502 679 LINE",
"502 776 LINE",
"26 776 LINE"
);
},
{
closed = 1;
nodes = (
"215 -20 LINE",
"502 679 LINE",
"391 679 LINE",
"104 -20 LINE"
);
}
);
width = 527;
}
);
unicode = 0037;
},
{
glyphname = eight;
lastChange = "2021-10-29 07:33:32 +0000";
layers = (
{
backgroundImage = {
crop = "{{0, 0}, {544, 1000}}";
imagePath = "VOT-Workshop-Letters-Export/numbers/8.jpg";
transform = "{1, 0, 0, 1, 0, -200}";
};
layerId = "D4A6A7D4-A1C7-46AD-82E1-17E0F86778FD";
paths = (
{
closed = 1;
nodes = (
"439 -32 OFFCURVE",
"524 83 OFFCURVE",
"521 202 CURVE SMOOTH",
"517 365 OFFCURVE",
"388 396 OFFCURVE",
"388 396 CURVE",
"409 396 OFFCURVE",
"513 446 OFFCURVE",
"513 578 CURVE SMOOTH",
"513 693 OFFCURVE",
"415 789 OFFCURVE",
"267 789 CURVE SMOOTH",
"149 789 OFFCURVE",
"37 693 OFFCURVE",
"37 578 CURVE SMOOTH",
"37 447 OFFCURVE",
"149 396 OFFCURVE",
"149 396 CURVE",
"149 396 OFFCURVE",
"29 353 OFFCURVE",
"23 202 CURVE SMOOTH",
"18 82 OFFCURVE",
"107 -32 OFFCURVE",
"267 -32 CURVE SMOOTH"
);
},
{
closed = 1;
nodes = (
"196 63 OFFCURVE",
"135 127 OFFCURVE",
"135 205 CURVE SMOOTH",
"135 283 OFFCURVE",
"196 346 OFFCURVE",
"271 346 CURVE SMOOTH",
"346 346 OFFCURVE",
"407 283 OFFCURVE",
"407 205 CURVE SMOOTH",
"407 127 OFFCURVE",
"346 63 OFFCURVE",
"271 63 CURVE SMOOTH"
);
},
{
closed = 1;
nodes = (
"207 443 OFFCURVE",
"153 501 OFFCURVE",
"153 574 CURVE SMOOTH",
"153 646 OFFCURVE",
"207 704 OFFCURVE",
"273 704 CURVE SMOOTH",
"338 704 OFFCURVE",
"392 646 OFFCURVE",
"392 574 CURVE SMOOTH",
"392 501 OFFCURVE",
"338 443 OFFCURVE",
"273 443 CURVE SMOOTH"
);
}
);
width = 540;
}
);
unicode = 0038;
},
{
glyphname = nine;
lastChange = "2021-10-29 07:33:54 +0000";
layers = (
{
backgroundImage = {
crop = "{{0, 0}, {544, 1000}}";
imagePath = "VOT-Workshop-Letters-Export/numbers/9.jpg";
transform = "{1, 0, 0, 1, 0, -200}";
};
layerId = "D4A6A7D4-A1C7-46AD-82E1-17E0F86778FD";
paths = (
{
closed = 1;
nodes = (
"126 800 OFFCURVE",
"30 665 OFFCURVE",
"30 544 CURVE",
"30 379 OFFCURVE",
"143 293 OFFCURVE",
"252 293 CURVE",
"313 293 OFFCURVE",
"368 322 OFFCURVE",
"406 363 CURVE",
"406 236 LINE",
"406 140 OFFCURVE",
"339 72 OFFCURVE",
"264 72 CURVE",
"178 72 OFFCURVE",
"133 151 OFFCURVE",
"133 221 CURVE",
"31 221 LINE",
"31 84 OFFCURVE",
"130 -23 OFFCURVE",
"263 -23 CURVE",
"415 -21 OFFCURVE",
"508 92 OFFCURVE",
"508 251 CURVE",
"508 563 LINE",
"508 682 OFFCURVE",
"408 800 OFFCURVE",
"265 800 CURVE"
);
},
{
closed = 1;
nodes = (
"195 384 OFFCURVE",
"136 458 OFFCURVE",
"136 549 CURVE SMOOTH",
"136 639 OFFCURVE",
"193 710 OFFCURVE",
"269 710 CURVE SMOOTH",
"344 710 OFFCURVE",
"402 639 OFFCURVE",
"402 549 CURVE SMOOTH",
"402 458 OFFCURVE",
"346 384 OFFCURVE",
"272 384 CURVE SMOOTH"
);
}
);
width = 538;
}
);
unicode = 0039;
},
{
glyphname = period;
lastChange = "2021-11-30 14:17:40 +0000";
layers = (
{
backgroundImage = {
crop = "{{0, 0}, {181, 1000}}";
imagePath = "VOT-Workshop-Letters-Export/punctuation + symbols/period.jpg";
transform = "{1, 0, 0, 1, 0, -200}";
};
layerId = "D4A6A7D4-A1C7-46AD-82E1-17E0F86778FD";
paths = (
{
closed = 1;
nodes = (
"32 1 LINE",
"141 1 LINE",
"141 110 LINE",
"32 110 LINE"
);
}
);
width = 173;
}
);
unicode = 002E;
},
{
glyphname = comma;
lastChange = "2021-11-30 14:17:40 +0000";
layers = (
{
backgroundImage = {
crop = "{{0, 0}, {181, 1000}}";
imagePath = "VOT-Workshop-Letters-Export/punctuation + symbols/comma.jpg";
transform = "{1, 0, 0, 1, 0, -200}";
};
layerId = "D4A6A7D4-A1C7-46AD-82E1-17E0F86778FD";
paths = (
{
closed = 1;
nodes = (
"95 -1 LINE",
"95 -47 OFFCURVE",
"84 -80 OFFCURVE",
"37 -80 CURVE",
"37 -144 LINE",
"107 -144 OFFCURVE",
"152 -95 OFFCURVE",
"152 0 CURVE SMOOTH",
"152 108 LINE",
"43 108 LINE",
"43 -1 LINE"
);
}
);
width = 189;
}
);
unicode = 002C;
},
{
glyphname = colon;
lastChange = "2021-11-30 14:17:40 +0000";
layers = (
{
backgroundImage = {
crop = "{{0, 0}, {181, 1000}}";
imagePath = "VOT-Workshop-Letters-Export/punctuation + symbols/colon.jpg";
transform = "{1, 0, 0, 1, 0, -200}";
};
layerId = "D4A6A7D4-A1C7-46AD-82E1-17E0F86778FD";
paths = (
{
closed = 1;
nodes = (
"33 0 LINE",
"142 0 LINE",
"142 109 LINE",
"33 109 LINE"
);
},
{
closed = 1;
nodes = (
"33 391 LINE",
"142 391 LINE",
"142 500 LINE",
"33 500 LINE"
);
}
);
width = 175;
}
);
unicode = 003A;
},
{
glyphname = semicolon;
lastChange = "2021-11-30 14:17:40 +0000";
layers = (
{
backgroundImage = {
crop = "{{0, 0}, {181, 1000}}";
imagePath = "VOT-Workshop-Letters-Export/punctuation + symbols/semicolon.jpg";
transform = "{1, 0, 0, 1, 0, -200}";
};
layerId = "D4A6A7D4-A1C7-46AD-82E1-17E0F86778FD";
paths = (
{
closed = 1;
nodes = (
"85 -1 LINE",
"85 -47 OFFCURVE",
"74 -80 OFFCURVE",
"27 -80 CURVE",
"27 -144 LINE",
"97 -144 OFFCURVE",
"142 -95 OFFCURVE",
"142 0 CURVE SMOOTH",
"142 108 LINE",
"33 108 LINE",
"33 -1 LINE"
);
},
{
closed = 1;
nodes = (
"33 391 LINE",
"142 391 LINE",
"142 500 LINE",
"33 500 LINE"
);
}
);
width = 175;
}
);
unicode = 003B;
},
{
glyphname = exclam;
lastChange = "2021-11-30 14:17:40 +0000";
layers = (
{
backgroundImage = {
crop = "{{0, 0}, {198, 1000}}";
imagePath = "VOT-Workshop-Letters-Export/punctuation + symbols/exclam.jpg";
transform = "{1, 0, 0, 1, 0, -200}";
};
layerId = "D4A6A7D4-A1C7-46AD-82E1-17E0F86778FD";
paths = (
{
closed = 1;
nodes = (
"46 223 LINE",
"146 223 LINE",
"146 790 LINE",
"46 790 LINE"
);
},
{
closed = 1;
nodes = (
"142 0 LINE",
"142 111 LINE",
"52 111 LINE",
"52 0 LINE"
);
}
);
width = 192;
}
);
unicode = 0021;
},
{
glyphname = question;
lastChange = "2021-11-30 14:17:40 +0000";
layers = (
{
backgroundImage = {
crop = "{{0, 0}, {527, 1000}}";
imagePath = "VOT-Workshop-Letters-Export/punctuation + symbols/question.jpg";
transform = "{1, 0, 0, 1, 0, -200}";
};
layerId = "D4A6A7D4-A1C7-46AD-82E1-17E0F86778FD";
paths = (
{
closed = 1;
nodes = (
"30 562 LINE",
"30 681 OFFCURVE",
"104 809 OFFCURVE",
"272 809 CURVE SMOOTH",
"408 809 OFFCURVE",
"504 726 OFFCURVE",
"504 597 CURVE SMOOTH",
"504 430 OFFCURVE",
"308 401 OFFCURVE",
"308 198 CURVE",
"198 198 LINE",
"198 401 OFFCURVE",
"395 478 OFFCURVE",
"395 604 CURVE SMOOTH",
"395 661 OFFCURVE",
"342 715 OFFCURVE",
"273 715 CURVE SMOOTH",
"208 715 OFFCURVE",
"137 668 OFFCURVE",
"137 562 CURVE"
);
},
{
closed = 1;
nodes = (
"198 -10 LINE",
"308 -10 LINE",
"308 100 LINE",
"200 100 LINE"
);
}
);
width = 527;
}
);
unicode = 003F;
},
{
glyphname = parenleft;
lastChange = "2021-10-28 22:17:49 +0000";
layers = (
{
backgroundImage = {
crop = "{{0, 0}, {527, 1000}}";
imagePath = "VOT-Workshop-Letters-Export/punctuation + symbols/parens.jpg";
transform = "{1, 0, 0, 1, 0, -200}";
};
layerId = "D4A6A7D4-A1C7-46AD-82E1-17E0F86778FD";
paths = (
{
closed = 1;
nodes = (
"103 -27 OFFCURVE",
"40 120 OFFCURVE",
"40 196 CURVE SMOOTH",
"41 589 LINE SMOOTH",
"41 665 OFFCURVE",
"116 784 OFFCURVE",
"250 785 CURVE",
"250 702 LINE",
"198 702 OFFCURVE",
"138 673 OFFCURVE",
"138 589 CURVE SMOOTH",
"139 379 OFFCURVE",
"139 248 OFFCURVE",
"139 171 CURVE SMOOTH",
"139 144 OFFCURVE",
"181 56 OFFCURVE",
"250 56 CURVE",
"249 -26 LINE"
);
}
);
width = 280;
}
);
unicode = 0028;
},
{
glyphname = bracketleft;
lastChange = "2021-10-29 13:55:48 +0000";
layers = (
{
layerId = "D4A6A7D4-A1C7-46AD-82E1-17E0F86778FD";
paths = (
{
closed = 1;
nodes = (
"275 -150 LINE",
"275 -85 LINE",
"140 -85 LINE",
"140 735 LINE",
"275 735 LINE",
"275 800 LINE",
"60 800 LINE",
"60 -150 LINE"
);
}
);
width = 335;
}
);
unicode = 005B;
},
{
glyphname = bracketright;
lastChange = "2021-10-29 13:55:55 +0000";
layers = (
{
layerId = "D4A6A7D4-A1C7-46AD-82E1-17E0F86778FD";
paths = (
{
closed = 1;
nodes = (
"275 800 LINE",
"60 800 LINE",
"60 735 LINE",
"195 735 LINE",
"195 -85 LINE",
"60 -85 LINE",
"60 -150 LINE",
"275 -150 LINE"
);
}
);
width = 335;
}
);
unicode = 005D;
},
{
glyphname = hyphen;
lastChange = "2021-10-29 07:35:13 +0000";
layers = (
{
backgroundImage = {
crop = "{{0, 0}, {396, 1000}}";
imagePath = "VOT-Workshop-Letters-Export/punctuation + symbols/dash.jpg";
transform = "{1, 0, 0, 1, 0, -200}";
};
layerId = "D4A6A7D4-A1C7-46AD-82E1-17E0F86778FD";
paths = (
{
closed = 1;
nodes = (
"356 248 LINE",
"356 324 LINE",
"37 324 LINE",
"37 248 LINE"
);
}
);
width = 393;
}
);
unicode = 002D;
},
{
glyphname = guillemetleft;
lastChange = "2021-10-29 07:35:20 +0000";
layers = (
{
backgroundImage = {
crop = "{{0, 0}, {527, 1000}}";
imagePath = "VOT-Workshop-Letters-Export/punctuation + symbols/guillemet.jpg";
transform = "{1, 0, 0, 1, 0, -200}";
};
layerId = "D4A6A7D4-A1C7-46AD-82E1-17E0F86778FD";
paths = (
{
closed = 1;
nodes = (
"161 4 LINE",
"281 4 LINE",
"134 263 LINE",
"296 508 LINE",
"176 508 LINE",
"19 263 LINE"
);
},
{
closed = 1;
nodes = (
"384 4 LINE",
"504 4 LINE",
"357 263 LINE",
"519 508 LINE",
"399 508 LINE",
"242 263 LINE"
);
}
);
width = 539;
}
);
unicode = 00AB;
},
{
glyphname = guillemetright;
lastChange = "2021-10-29 07:35:26 +0000";
layers = (
{
backgroundImage = {
crop = "{{0, 0}, {527, 1000}}";
imagePath = "VOT-Workshop-Letters-Export/punctuation + symbols/guillemet2.jpg";
transform = "{1, 0, 0, 1, 0, -200}";
};
layerId = "D4A6A7D4-A1C7-46AD-82E1-17E0F86778FD";
paths = (
{
closed = 1;
nodes = (
"367 504 LINE",
"247 504 LINE",
"394 245 LINE",
"232 0 LINE",
"352 0 LINE",
"509 245 LINE"
);
},
{
closed = 1;
nodes = (
"144 504 LINE",
"24 504 LINE",
"171 245 LINE",
"9 0 LINE",
"129 0 LINE",
"286 245 LINE"
);
}
);
width = 529;
}
);
unicode = 00BB;
},
{
glyphname = ampersand;
lastChange = "2021-11-30 14:17:40 +0000";
layers = (
{
backgroundImage = {
crop = "{{0, 0}, {725, 1000}}";
imagePath = "VOT-Workshop-Letters-Export/punctuation + symbols/ampersand.jpg";
transform = "{1, 0, 0, 1, 0, -200}";
};
layerId = "D4A6A7D4-A1C7-46AD-82E1-17E0F86778FD";
paths = (
{
closed = 1;
nodes = (
"37 70 OFFCURVE",
"164 -29 OFFCURVE",
"298 -29 CURVE SMOOTH",
"391 -29 OFFCURVE",
"474 3 OFFCURVE",
"532 80 CURVE",
"576 37 OFFCURVE",
"613 2 OFFCURVE",
"628 -16 CURVE",
"688 54 LINE",
"664 81 OFFCURVE",
"623 119 OFFCURVE",
"578 164 CURVE",
"599 216 OFFCURVE",
"616 271 OFFCURVE",
"616 349 CURVE",
"518 349 LINE",
"518 305 OFFCURVE",
"509 274 OFFCURVE",
"499 239 CURVE",
"452 288 OFFCURVE",
"403 335 OFFCURVE",
"359 381 CURVE SMOOTH",
"266 483 OFFCURVE",
"205 524 OFFCURVE",
"205 586 CURVE SMOOTH",
"205 617 OFFCURVE",
"226 699 OFFCURVE",
"319 699 CURVE SMOOTH",
"372 699 OFFCURVE",
"421 675 OFFCURVE",
"421 574 CURVE",
"525 574 LINE",
"525 676 OFFCURVE",
"483 786 OFFCURVE",
"306 786 CURVE SMOOTH",
"200 786 OFFCURVE",
"100 716 OFFCURVE",
"100 592 CURVE SMOOTH",
"100 527 OFFCURVE",
"126 483 OFFCURVE",
"169 435 CURVE",
"104 413 OFFCURVE",
"37 330 OFFCURVE",
"37 215 CURVE SMOOTH"
);
},
{
closed = 1;
nodes = (
"140 285 OFFCURVE",
"189 353 OFFCURVE",
"252 353 CURVE",
"271 340 OFFCURVE",
"286 323 OFFCURVE",
"304 304 CURVE SMOOTH",
"353 252 OFFCURVE",
"406 202 OFFCURVE",
"454 153 CURVE",
"415 99 OFFCURVE",
"359 75 OFFCURVE",
"298 75 CURVE SMOOTH",
"206 75 OFFCURVE",
"140 134 OFFCURVE",
"140 216 CURVE SMOOTH"
);
}
);
width = 725;
}
);
unicode = 0026;
},
{
glyphname = bar;
lastChange = "2021-11-30 14:17:40 +0000";
layers = (
{
layerId = "D4A6A7D4-A1C7-46AD-82E1-17E0F86778FD";
paths = (
{
closed = 1;
nodes = (
"0 -200 LINE",
"200 -200 LINE",
"200 800 LINE",
"0 800 LINE"
);
}
);
width = 200;
}
);
unicode = 007C;
},
{
glyphname = ampersand.ss01;
lastChange = "2021-11-30 14:17:40 +0000";
layers = (
{
backgroundImage = {
crop = "{{0, 0}, {725, 1000}}";
imagePath = "VOT-Workshop-Letters-Export/punctuation + symbols/ampersand.jpg";
transform = "{1, 0, 0, 1, 0, -200}";
};
layerId = "D4A6A7D4-A1C7-46AD-82E1-17E0F86778FD";
paths = (
{
closed = 1;
nodes = (
"700 51 LINE",
"266 500 LINE",
"188 573 OFFCURVE",
"209 664 OFFCURVE",
"265 691 CURVE SMOOTH",
"329 723 OFFCURVE",
"418 693 OFFCURVE",
"417 579 CURVE",
"531 579 LINE",
"531 693 OFFCURVE",
"492 794 OFFCURVE",
"319 797 CURVE SMOOTH",
"161 800 OFFCURVE",
"108 691 OFFCURVE",
"108 617 CURVE SMOOTH",
"108 544 OFFCURVE",
"133 502 OFFCURVE",
"204 430 CURVE SMOOTH",
"630 -13 LINE"
);
},
{
closed = 1;
nodes = (
"-23 333 OFFCURVE",
"-4 20 OFFCURVE",
"275 -14 CURVE SMOOTH",
"453 -37 OFFCURVE",
"548 44 OFFCURVE",
"584 118 CURVE SMOOTH",
"632 218 OFFCURVE",
"624 371 OFFCURVE",
"624 371 CURVE",
"520 371 LINE",
"520 371 OFFCURVE",
"525 209 OFFCURVE",
"473 140 CURVE SMOOTH",
"440 99 OFFCURVE",
"339 37 OFFCURVE",
"230 103 CURVE SMOOTH",
"112 174 OFFCURVE",
"166 345 OFFCURVE",
"275 379 CURVE",
"196 453 LINE"
);
}
);
width = 725;
}
);
},
